<svg width="416" height="123" viewBox="0 0 416 123" fill="none" xmlns="http://www.w3.org/2000/svg">
<path d="M7.61803 5.20242C7.32766 5.04311 6.81991 4.89712 6.16776 4.78363C5.11123 4.62273 4.11917 4.48847 3.17186 4.37445C2.64545 4.31798 2.13397 4.26097 1.68429 4.21035C1.0817 4.09687 0.674109 4.03133 0.432753 4.00522C0.234021 3.97325 0.124268 3.74575 0.124268 3.30619V1.64547C0.124268 1.36042 0.387465 1.19579 0.951695 1.14305C1.49781 1.0935 1.99331 1.06633 2.41688 1.06633C2.87509 1.06633 3.48567 1.06632 4.27154 1.10468C5.03504 1.12067 5.85021 1.17022 6.71227 1.2267C7.54024 1.28477 8.4332 1.32206 9.34535 1.34924C10.2879 1.38014 11.0897 1.3876 11.8037 1.3876C12.4249 1.3876 13.207 1.38014 14.2188 1.34924C15.213 1.32206 16.1832 1.28477 17.1439 1.2267C18.1216 1.17022 19.0033 1.12067 19.8079 1.10468C20.5895 1.06632 21.1345 1.06633 21.4137 1.06633C22.3413 1.06633 22.9172 1.17022 23.1122 1.43661C23.3025 1.67637 23.4016 1.99765 23.4016 2.39032V3.12664C23.4016 4.06809 22.9519 4.57745 22.0658 4.62274L20.3103 4.70691C19.8446 4.70691 19.3038 4.72929 18.7082 4.78363C18.1434 4.84277 17.5866 4.90831 17.0613 4.99622C16.5562 5.07987 16.1065 5.20242 15.7714 5.36652C15.4507 5.53115 15.2663 5.77411 15.2663 6.11882V22.5161H45.1108V6.53014C45.1108 5.91902 44.8567 5.42352 44.3585 5.0431C43.8817 4.65257 43.2791 4.40162 42.6317 4.28707C41.9684 4.12617 41.296 4.04252 40.6465 4.04252H39.5404C38.9799 3.93596 38.5484 3.89014 38.2671 3.92743C38.0369 3.94342 37.8888 3.74575 37.8888 3.30619V1.97048C37.8467 1.36042 38.1285 1.06632 38.7242 1.10468C39.3465 1.12067 39.9571 1.14305 40.6465 1.14305C40.6007 1.14305 40.8069 1.15743 41.3839 1.17022C41.9556 1.21923 42.5934 1.2267 43.3664 1.2267C44.1411 1.2267 44.959 1.22669 45.836 1.27251C46.6591 1.29489 47.3741 1.31088 47.9426 1.31088C48.533 1.31088 49.3694 1.29489 50.3503 1.27251C51.3301 1.22669 52.2998 1.19579 53.3249 1.14305C54.3186 1.0935 55.2052 1.04395 56.0123 1.01678C56.8089 0.989603 57.3427 0.967224 57.6331 0.967224C58.5682 0.967224 59.1239 0.989603 59.3343 1.01678C59.5107 1.04395 59.6172 1.25759 59.6172 1.64547V3.38239C59.6172 3.82141 59.5069 4.06809 59.2773 4.12617C59.0674 4.18318 58.7584 4.21035 58.2964 4.21035L55.7182 4.28707C54.7262 4.34728 53.9403 4.5833 53.3249 4.99622C52.7149 5.41606 52.4058 5.91902 52.4058 6.53014V51.9397C52.4058 53.0591 52.6962 53.7262 53.2759 53.9745C53.8561 54.2217 54.7976 54.4897 56.0454 54.7566C57.1525 54.9926 58.0183 55.1072 58.5756 55.1829C59.151 55.2319 59.5826 55.4247 59.873 55.7561C59.9763 55.8249 60.0259 55.9474 60.0259 56.1675C60.0259 56.3204 59.9763 56.6454 59.873 57.0764C59.7542 57.3583 59.6588 57.6252 59.5826 57.866C59.4872 58.1207 59.338 58.2475 59.1143 58.2475C57.965 58.1713 56.7977 58.1143 55.6415 57.9918C54.6409 57.8847 53.6078 57.8079 52.5508 57.7781C51.4521 57.7525 50.4292 57.7398 49.5101 57.7398C48.3007 57.7398 47.0875 57.7525 45.8855 57.7781C44.7219 57.8079 43.6163 57.8548 42.6317 57.9156C41.6311 57.9609 40.7611 57.9992 40.0445 58.0376C39.3465 58.0573 38.8238 58.0834 38.4994 58.0834C37.9309 58.0834 37.5798 57.9539 37.4034 57.7019C37.2366 57.4568 37.1871 57.1148 37.1871 56.6726C37.1871 56.282 37.202 55.9773 37.2095 55.7561C37.2366 55.5276 37.4354 55.3667 37.8014 55.2607L41.0627 55.0049C42.7191 54.6724 43.8028 54.2217 44.3415 53.593C44.8332 52.9936 45.1108 52.3068 45.1108 51.5322V27.6592H15.2663V52.5242C15.2663 53.3064 15.5689 53.8338 16.1065 54.1386C16.6601 54.4513 17.4987 54.6341 18.5835 54.6724L22.1548 54.8403C22.7073 54.901 23.0345 55.1829 23.1122 55.7018C23.1986 56.2453 23.2406 56.7221 23.2406 57.1606C23.2406 57.5027 23.1122 57.7019 22.8789 57.7781C22.6157 57.866 22.1772 57.9156 21.5666 57.9156H20.7616C20.6427 57.9156 20.2277 57.8932 19.5484 57.866C18.8627 57.8474 18.0683 57.8016 17.2094 57.7398C16.2967 57.687 15.4048 57.6561 14.5385 57.6252C13.6455 57.5879 12.9822 57.5794 12.5288 57.5794C11.0167 57.5794 9.31179 57.6252 7.48696 57.7019C5.66001 57.7781 4.01953 57.8847 2.63053 57.9918H2.10093C1.49781 57.9918 1.12006 57.8932 1.00498 57.7019C0.838213 57.5101 0.768945 57.2741 0.768945 57.0072V56.6726C0.768945 56.282 0.838213 55.9474 1.00498 55.672C1.12006 55.405 1.49781 55.2148 2.10093 55.0912C2.99017 54.9271 3.71051 54.8317 4.29712 54.8147C4.8816 54.7753 5.45381 54.7108 5.99566 54.5957C6.61371 54.4897 7.09429 54.2217 7.48696 53.8104C7.86525 53.39 8.08742 52.8567 8.08742 52.1928V6.36977C8.08742 5.75972 7.91054 5.36652 7.61803 5.20242V5.20242Z" fill="#231F20"/>
<path d="M87.4543 42.2173C87.4543 40.1186 87.1416 38.1467 86.4537 36.258C85.7979 34.3703 84.8676 32.7101 83.7162 31.2992C82.372 29.8783 81.1551 28.7615 79.5945 27.9325C78.0222 27.1211 76.3482 26.6895 74.5591 26.6895C72.974 26.6895 71.5238 27.0715 70.2008 27.7881C68.8779 28.5133 67.7484 29.524 66.8048 30.8021C65.8745 32.0995 65.127 33.6451 64.6081 35.4375C64.0694 37.2303 63.8297 39.2155 63.8297 41.401C63.8297 43.374 64.1462 45.2627 64.8319 46.9874C65.5074 48.7339 66.4244 50.2598 67.621 51.5497C68.8049 52.8359 70.2008 53.8769 71.7662 54.6404C73.3289 55.4114 75.0088 55.7934 76.7904 55.7934C78.2902 55.7934 79.6936 55.4807 80.9979 54.8306C82.3571 54.171 83.4637 53.2557 84.4014 52.0612C85.3482 50.8789 86.0893 49.4393 86.6498 47.7727C87.1874 46.1104 87.4543 44.2632 87.4543 42.2173V42.2173ZM76.2001 58.265C73.5585 58.265 71.1556 57.8537 68.9642 57.0338C66.7749 56.2133 64.8974 55.0608 63.3406 53.561C61.7693 52.0612 60.5524 50.2795 59.6936 48.192C58.8081 46.0939 58.3818 43.8125 58.3818 41.3254C58.3818 38.8335 58.7932 36.5633 59.6392 34.4949C60.4795 32.4341 61.6777 30.6418 63.1877 29.1308C64.696 27.6166 66.508 26.4343 68.5987 25.5941C70.6825 24.7352 72.974 24.3154 75.4547 24.3154C78.0872 24.3154 80.4683 24.7352 82.6128 25.5941C84.7674 26.4343 86.6141 27.6272 88.1794 29.1691C89.74 30.7185 90.9494 32.5492 91.7881 34.6862C92.6357 36.8296 93.0433 39.1958 93.0433 41.7713C93.0433 44.1646 92.6357 46.3241 91.8424 48.2954C91.0096 50.2683 89.8769 51.9781 88.4389 53.4459C86.9924 54.9159 85.2874 56.0524 83.3331 56.8803C81.3565 57.6934 79.2551 58.1393 77.019 58.1665L76.2001 58.265Z" fill="#231F20"/>
<path d="M100.538 23.7996C101.068 23.7996 101.583 23.7825 102.122 23.75C102.666 23.7351 103.136 23.6973 103.547 23.6366C104.086 23.5822 104.62 23.5524 105.162 23.5524C106.227 23.5524 106.757 23.9802 106.757 24.83C106.757 25.2696 106.585 25.5674 106.227 25.7576C105.887 25.9366 105.2 26.0789 104.193 26.1924C103.728 26.2419 103.247 26.4518 102.769 26.7955C102.286 27.1386 102.044 27.7876 102.044 28.7487V44.6431C102.044 46.1392 102.301 47.5441 102.809 48.8868C103.316 50.2134 104.049 51.3675 105.007 52.351C105.971 53.3431 107.12 54.121 108.466 54.7166C109.825 55.2958 111.343 55.5952 112.976 55.5952C116.186 55.5952 118.654 54.8461 120.417 53.3884C122.164 51.9322 123.056 49.6689 123.056 46.6421V29.3907C123.056 28.062 122.839 27.1844 122.37 26.7955C121.939 26.3842 121.035 26.1924 119.71 26.1924C119.103 26.1924 118.707 26.1087 118.504 25.9553C118.28 25.7848 118.195 25.4523 118.195 24.9078C118.195 24.2775 118.431 23.8577 118.947 23.6366C119.439 23.4304 120.47 23.3163 122.021 23.3163C122.858 23.3163 123.45 23.3227 123.721 23.3536C124.034 23.3808 124.195 23.3995 124.301 23.3995C124.385 23.3995 124.442 23.4192 124.491 23.4378C124.518 23.4687 124.763 23.4773 125.147 23.4773H127.825C128.208 23.4773 128.525 23.4575 128.83 23.3995C129.123 23.3313 129.405 23.3163 129.696 23.3163C130.588 23.3163 131.042 23.7996 131.042 24.7544C131.042 25.6132 130.241 26.1396 128.551 26.357C127.697 26.4609 127.125 26.6889 126.846 27.071C126.574 27.4439 126.407 28.2644 126.407 29.5431V45.1285C126.407 48.2075 125.994 50.7249 125.147 52.6707C124.301 54.6175 122.75 56.1733 120.492 57.3481C119.279 57.9289 117.936 58.3785 116.505 58.7105C115.06 59.0157 113.556 59.1889 111.953 59.1889C109.664 59.1889 107.577 58.8836 105.67 58.273C103.781 57.6619 102.198 56.7833 100.885 55.6703C99.5917 54.5413 98.5688 53.1982 97.8596 51.6269C97.1345 50.0691 96.7759 48.3518 96.7759 46.4839V30.1074C96.7759 28.7226 96.6043 27.7417 96.2612 27.1461C95.8904 26.5659 95.2803 26.2419 94.3735 26.1924C93.5754 26.1396 93.0405 25.9553 92.7847 25.6207C92.5189 25.3154 92.3809 24.9707 92.3809 24.5903C92.3809 24.018 92.602 23.6973 93.0293 23.6366C93.1822 23.5822 93.5754 23.5524 94.2227 23.5524C94.86 23.5524 95.6693 23.5721 96.6651 23.5982C97.6348 23.6216 98.6876 23.6973 99.8128 23.7996H100.538V23.7996Z" fill="#231F20"/>
<path d="M150.296 23.0712C150.632 22.7536 150.948 22.5943 151.269 22.5943C151.83 22.5943 152.136 22.8922 152.136 23.4729L151.995 28.2601L152.136 32.1772V32.5059C152.136 33.247 151.83 33.6205 151.269 33.6205C150.777 33.6205 150.404 33.3845 150.144 32.9028V32.9641L148.467 28.9841C147.976 27.8141 147.164 26.8679 145.992 26.1497C144.801 25.4261 143.577 25.0676 142.314 25.0676C141.033 25.0676 139.95 25.4853 139.04 26.3031C138.145 27.1343 137.698 28.1572 137.698 29.3864C137.698 30.2826 138.03 31.1792 138.759 32.0488C139.468 32.9348 140.231 33.5822 141.033 34.0217C142.15 34.49 143.317 35.0026 144.542 35.5279C145.763 36.0628 146.923 36.5781 147.976 37.0624C150.227 38.0161 151.971 39.3811 153.215 41.1676C154.47 42.9487 155.103 44.9898 155.103 47.2803C155.103 48.8824 154.843 50.3401 154.299 51.6593C153.768 52.9951 153.043 54.1475 152.074 55.1012C151.175 56.0624 150.036 56.8184 148.792 57.3709C147.506 57.9442 146.098 58.2218 144.641 58.2218C143.085 58.2218 141.601 57.803 140.204 56.9793C138.792 56.1503 137.438 55.2333 136.159 54.2231C135.881 54.8652 135.569 55.2333 135.207 55.3372C134.82 55.4438 134.561 55.5019 134.394 55.5019C133.669 55.5019 133.287 54.8417 133.287 53.5065V52.9455C133.287 52.7431 133.31 52.5752 133.36 52.4687C133.584 51.1335 133.737 50.103 133.856 49.3593C133.95 48.607 133.987 47.8903 133.987 47.1961V46.4795C133.987 46.2573 133.966 46.0139 133.921 45.7618C133.921 44.5785 134.317 43.9988 135.145 43.9988C135.668 43.9988 136.046 44.1965 136.287 44.6019C136.518 44.9973 136.691 45.6766 136.797 46.6377C137.544 52.4996 140.231 55.4262 144.854 55.4262C146.573 55.4262 147.998 54.8652 149.182 53.7463C150.338 52.6205 150.948 51.2171 150.948 49.5223C150.948 47.6543 150.296 46.1055 149.006 44.8849C147.739 43.6626 145.55 42.4793 142.379 41.3663C139.197 40.2975 136.87 38.9437 135.397 37.2909C133.936 35.6425 133.212 33.677 133.212 31.3695C133.212 30.1563 133.448 29.0124 133.963 27.9361C134.477 26.8753 135.152 25.9509 136.003 25.1592C136.859 24.3488 137.849 23.7201 138.965 23.2433C140.078 22.7536 141.284 22.5107 142.55 22.5107C144.313 22.5107 145.825 22.8032 147.099 23.3951C147.529 23.5938 147.945 23.8075 148.303 23.9977C148.663 24.1661 148.93 24.2732 149.106 24.2732C149.275 24.2732 149.419 24.1586 149.589 23.9593C149.731 23.7382 149.971 23.4532 150.296 23.0712V23.0712Z" fill="#231F20"/>
<path d="M158.132 57.5808L156.836 57.8169C155.894 57.8169 155.401 57.3709 155.401 56.4678C155.401 55.8263 155.497 55.4262 155.668 55.2621C155.881 55.1012 156.259 54.968 156.836 54.8652C158.565 54.8162 159.712 54.4528 160.328 53.7735C160.929 53.1245 161.238 51.7744 161.238 49.7519V30.1872C161.196 29.8622 161.134 29.2718 161.086 28.4242C161.007 27.5733 160.896 26.9355 160.678 26.5056C160.509 26.188 159.678 25.9509 158.132 25.7804C156.901 25.741 156.061 25.6089 155.596 25.399C155.161 25.1704 154.917 24.8257 154.917 24.3488C154.917 23.93 155.092 23.6173 155.401 23.4335C155.71 23.2502 156.29 23.1591 157.083 23.1591H163.525C164.089 23.1591 164.668 23.1282 165.325 23.0712C166.068 23.0222 166.896 22.995 167.804 22.995L169.56 22.9071C171.513 22.8613 173.23 22.7771 174.779 22.671C176.295 22.5634 177.667 22.5107 178.869 22.5107H180.006C181.014 22.6252 181.594 22.995 181.689 23.6322C181.751 23.8533 181.776 24.0137 181.806 24.1512C181.815 24.2806 181.914 24.5785 182.012 25.0281C182.116 25.4853 182.259 26.188 182.379 27.1417C182.571 28.1066 182.807 29.5191 183.123 31.3695C183.123 32.0648 182.741 32.4073 182.012 32.4073C181.395 32.4073 180.914 32.0946 180.476 31.4648C180.121 30.8159 179.716 30.1291 179.288 29.3864C178.855 28.6293 178.426 27.9361 177.999 27.2952C177.717 26.8753 177.461 26.5935 177.375 26.4294C175.558 26.0586 173.902 25.8683 172.322 25.8683C171.281 25.8683 170.38 25.8945 169.616 25.9509C168.878 25.9968 167.926 26.1353 166.827 26.3527V28.1956C166.827 28.6687 166.827 29.1259 166.774 29.5771C166.751 30.0337 166.718 30.3465 166.718 30.4999C166.718 31.4648 166.698 32.3418 166.664 33.1447C166.622 33.8304 166.603 34.4788 166.603 35.0894V36.2531H173.47C175.428 36.2531 176.427 35.4325 176.427 33.7724V33.0558C176.427 31.9998 176.774 31.4648 177.45 31.4648C178.038 31.4648 178.426 31.7696 178.674 32.3924C178.855 32.9913 178.965 34.0713 178.965 35.6132V37.1226C178.908 37.6079 178.869 38.0912 178.869 38.5728V40.0109C178.869 40.5719 178.877 41.1068 178.915 41.5181C178.954 41.9385 178.992 42.3967 179.053 42.8613C179.114 42.9982 179.128 43.2353 179.128 43.5987C179.128 44.5636 178.747 45.0293 177.9 45.0293C177.363 45.0293 176.946 44.8449 176.787 44.4869C176.551 44.1139 176.427 43.1517 176.256 41.6135C176.023 40.0109 175.165 39.2106 173.634 39.2106H167.155C166.664 39.2106 166.439 39.3747 166.439 39.68V50.874C166.439 51.7249 166.485 52.401 166.603 52.9071C166.691 53.4224 167 53.7735 167.469 54.0329C167.926 54.2615 168.651 54.4144 169.56 54.4986C170.457 54.5972 171.704 54.6355 173.292 54.6355H174.337C175.558 54.6355 176.663 54.4986 177.656 54.2231C178.648 53.9488 179.423 53.3004 180.09 52.2204L182.571 47.9964C182.781 47.6309 183.15 47.4396 183.684 47.4396C184.409 47.4396 184.791 47.9213 184.791 48.8824C184.791 49.0801 184.78 49.2628 184.769 49.3976C184.745 49.5223 184.699 49.6646 184.661 49.8276L182.968 55.902C182.914 56.1231 182.818 56.3527 182.768 56.6271C182.685 56.8941 182.571 57.104 182.379 57.2569C182.304 57.3709 182.12 57.4583 181.884 57.5041C181.654 57.5435 181.429 57.5808 181.291 57.5808H158.132V57.5808Z" fill="#231F20"/>
<path d="M224.892 56.5465C224.508 57.3472 224.004 57.7373 223.318 57.7373C222.787 57.7373 222.382 57.5076 222.116 57.0324C219.857 53.3039 218.132 50.366 216.92 48.2359C215.686 46.109 214.783 44.5175 214.165 43.4487C213.519 42.3805 213.09 41.5909 212.769 41.0261L204.871 56.7825C204.493 57.6302 203.94 58.0623 203.261 58.0623C202.661 58.0623 202.188 57.7175 201.886 57.0324C199.772 52.5031 197.819 48.4277 196.05 44.8031C195.318 43.2575 194.583 41.7443 193.87 40.2557C193.162 38.7559 192.509 37.409 191.951 36.1809C191.39 34.9517 190.929 33.9288 190.566 33.1482C190.182 32.3453 189.968 31.8882 189.922 31.7853L188.876 29.3899C188.571 28.4809 188.075 27.71 187.388 27.0701C186.749 26.4329 186.123 26.062 185.512 25.9544C184.833 25.8409 184.398 25.6949 184.257 25.5047C184.096 25.3145 184.001 25.0204 184.001 24.5894C184.001 23.9628 184.138 23.5973 184.398 23.5515C184.986 23.3986 185.512 23.3155 186.007 23.3155C186.267 23.3155 186.548 23.3219 186.866 23.3528C187.198 23.3799 187.53 23.4295 187.907 23.4764C188.644 23.6357 189.984 23.7236 191.888 23.7236C192.951 23.7236 193.87 23.7034 194.583 23.6852C195.318 23.6469 195.833 23.5973 196.156 23.5515H196.05C196.289 23.5057 196.618 23.4764 197.11 23.4764C198.122 23.4764 198.629 23.8568 198.629 24.5894C198.629 25.0204 198.58 25.3763 198.438 25.6694C198.292 25.9629 197.93 26.1079 197.347 26.1079C195.539 26.1079 194.645 26.3945 194.645 26.9848C194.645 27.6913 194.826 28.4426 195.172 29.3046C197.393 34.265 199.063 38.1181 200.285 40.8919C201.521 43.6661 202.467 45.7259 203.044 47.0845C203.681 48.4362 204.074 49.2663 204.249 49.5913C204.432 49.9164 204.58 50.0767 204.604 50.0767C204.836 49.7554 205.125 49.2296 205.535 48.4858C205.905 47.7207 206.553 46.5587 207.381 44.9747C208.197 43.3523 209.316 41.1103 210.77 38.1725V38.0196C210.77 37.6487 210.56 36.963 210.167 35.9822C209.762 34.9901 209.312 33.9288 208.808 32.8147C208.309 31.6979 207.801 30.618 207.289 29.5806C206.77 28.5502 206.398 27.7867 206.138 27.2987C205.847 26.833 205.538 26.5091 205.168 26.3561C204.81 26.1915 204.165 26.1079 203.261 26.1079C202.154 26.062 201.597 25.5815 201.597 24.6773C201.597 24.2473 201.67 23.9628 201.811 23.7987C201.986 23.6357 202.295 23.5515 202.788 23.5515C203.641 23.5973 204.355 23.6469 204.962 23.6852C205.581 23.7034 206.183 23.7236 206.763 23.7236H210.366C211.59 23.7236 212.569 23.6666 213.317 23.5515C214.058 23.4567 214.966 23.3986 216.035 23.3986C216.622 23.3986 217.026 23.5057 217.232 23.7236C217.465 23.9335 217.53 24.2473 217.53 24.6773C217.53 25.1083 217.48 25.4514 217.285 25.7184C217.072 25.9741 216.6 26.1388 215.785 26.1915C215.061 26.2411 214.433 26.3945 213.951 26.6721C213.485 26.939 213.242 27.3663 213.242 27.9396C213.242 28.4276 213.516 29.2556 214.119 30.4192C216.511 35.3215 218.348 39.0734 219.601 41.6442C220.838 44.2384 221.761 46.1383 222.387 47.3525C223.016 48.5806 223.413 49.3889 223.619 49.7554C223.841 50.1263 224.077 50.5461 224.355 51.0416C227.363 44.5287 229.648 39.481 231.139 35.8942C232.631 32.2957 233.353 29.8928 233.353 28.6722C233.353 27.7558 233.017 27.0802 232.288 26.6337C231.571 26.1771 230.77 25.9176 229.849 25.8718C228.873 25.8223 228.404 25.3369 228.404 24.4375C228.404 23.5813 229.09 23.1626 230.399 23.1626C231.471 23.1626 232.449 23.2169 233.353 23.3528C234.272 23.4822 235.077 23.5515 235.775 23.5515C236.524 23.5515 237.301 23.4822 238.132 23.3528C238.949 23.2169 239.659 23.1626 240.255 23.1626C240.331 23.0933 240.587 23.0746 240.955 23.0746C241.868 23.0746 242.314 23.4567 242.314 24.2004V24.5894C242.212 25.1739 241.972 25.5356 241.594 25.6198C241.234 25.7445 240.719 25.8979 240.102 26.1079C239.404 26.329 238.779 26.7946 238.264 27.5C237.713 28.2364 237.011 29.6557 236.179 31.7853C235.054 34.6614 233.97 37.2683 232.967 39.6142C231.975 41.942 230.971 44.1174 230.055 46.1308C229.144 48.1224 228.243 49.9728 227.363 51.6629C226.52 53.3694 225.707 55.0099 224.892 56.5465V56.5465Z" fill="#231F20"/>
<path d="M255.219 39.0769C255.564 39.3736 256.12 39.5191 256.944 39.5191C259.5 39.5191 261.613 38.9548 263.228 37.8402C264.918 36.7224 265.742 35.261 265.742 33.4521C265.742 32.3849 265.479 31.362 265.006 30.4083C264.514 29.4546 263.9 28.6085 263.097 27.8967C262.293 27.1726 261.346 26.6121 260.309 26.1805C259.225 25.7532 258.085 25.5433 256.841 25.5433C256.284 25.5433 255.758 25.684 255.33 25.9893C254.91 26.2685 254.704 26.6318 254.704 27.0591V37.5227C254.704 38.2681 254.856 38.7828 255.219 39.0769V39.0769ZM264.116 40.3087C265.307 41.3268 266.314 42.3051 267.131 43.2353C267.947 44.1741 268.817 45.318 269.795 46.7193C270.5 47.6234 271.198 48.5697 271.932 49.5804C272.617 50.5986 273.311 51.5832 273.934 52.5454C274.945 54.034 275.953 54.7799 276.887 54.7799C277.292 54.7799 277.65 54.7048 278.036 54.5295C278.372 54.3686 278.723 54.2477 278.99 54.14C279.402 53.9797 279.733 53.8278 279.976 53.7005C280.232 53.5684 280.363 53.4991 280.515 53.4991C280.76 53.4991 280.993 53.5758 281.145 53.7389C281.298 53.903 281.359 54.0564 281.359 54.2157C281.359 54.4379 281.324 54.6441 281.22 54.8577C281.016 55.3298 280.665 55.7811 280.203 56.1812C279.711 56.5739 279.161 56.9175 278.604 57.2223C277.994 57.5041 277.387 57.7263 276.777 57.8872C276.173 58.0513 275.612 58.127 275.076 58.127H274.903C272.293 58.0774 269.641 55.9713 266.901 51.8202L263.571 46.7193C262.881 45.7075 262.277 44.8609 261.778 44.189C261.271 43.5257 260.77 43.0068 260.309 42.6365C259.829 42.2656 259.31 42.0062 258.807 41.874C258.291 41.7392 257.776 41.6641 257.166 41.6641C256.059 41.6641 255.365 41.7467 255.089 41.9236C254.806 42.084 254.704 42.4718 254.704 43.1144V51.0877C254.704 52.5949 254.91 53.587 255.33 54.1017C255.758 54.6057 256.574 54.911 257.814 55.0186C258.928 55.1135 259.726 55.2547 260.221 55.4188C260.694 55.5834 260.92 55.8647 260.92 56.2835C260.92 56.5062 260.904 56.6767 260.848 56.7715C260.748 57.047 260.618 57.299 260.488 57.5276C260.351 57.7647 260.061 57.8872 259.64 57.8872H259.5C258.848 57.8414 258.351 57.7833 258.023 57.7263C257.665 57.681 257.303 57.6501 256.898 57.6192C256.487 57.5819 255.99 57.5734 255.33 57.5734H252.556C251.484 57.5734 250.603 57.5819 249.915 57.6192C249.21 57.6501 248.626 57.681 248.16 57.7263C247.645 57.7833 247.208 57.8328 246.787 57.8488C246.349 57.8787 245.909 57.917 245.432 57.9623H245.025C244.708 57.9623 244.513 57.9096 244.376 57.7647C244.288 57.6501 244.162 57.3635 243.994 56.925L243.91 56.5355C243.91 56.1156 244.124 55.788 244.555 55.5834C244.964 55.3607 245.482 55.2088 246.066 55.0938C246.765 54.9989 247.34 54.8838 247.798 54.7799C248.238 54.6665 248.611 54.4837 248.879 54.1784C249.149 53.8918 249.298 53.473 249.44 52.9381C249.542 52.4031 249.596 51.6902 249.596 50.7824V28.0118C249.596 27.3756 249.23 26.9664 248.512 26.7453C247.798 26.5167 247.123 26.3835 246.565 26.3452C245.604 26.3452 244.925 26.2301 244.521 26.0212C244.109 25.8113 243.91 25.4112 243.91 24.8182C243.91 23.7505 244.453 23.2358 245.498 23.2358H258.531C262.69 23.2358 265.887 23.9609 268.132 25.4186C270.35 26.8785 271.47 29.0544 271.47 31.9342C271.47 33.9487 270.856 35.6648 269.535 37.0858C268.269 38.5036 266.52 39.4956 264.281 40.0801L264.116 40.3087V40.3087Z" fill="#231F20"/>
<path d="M286.39 26.6919C286.046 26.36 285.352 26.1314 284.338 26.0248C283.486 25.9103 282.979 25.7494 282.807 25.4974C282.659 25.2688 282.582 24.9363 282.582 24.5053C282.582 24.0791 282.647 23.7541 282.765 23.5441C282.904 23.323 283.315 23.2394 284.021 23.2394C284.665 23.2394 285.2 23.2463 285.711 23.2687C286.168 23.2847 286.638 23.3145 287.069 23.3454C287.458 23.3726 287.908 23.411 288.377 23.4296C288.817 23.4605 289.404 23.469 290.083 23.469H290.549C290.987 23.469 291.534 23.4605 292.166 23.4296C292.819 23.411 293.409 23.3614 293.979 23.3081C294.699 23.2591 295.44 23.201 296.235 23.1552H296.544C297.154 23.1552 297.478 23.2847 297.6 23.5441C297.682 23.8111 297.757 24.1547 297.757 24.582V24.7461C297.757 25.1665 297.682 25.4516 297.523 25.5853C297.348 25.7201 296.836 25.8336 295.928 25.9471H295.773C294.901 26.0547 294.15 26.2065 293.494 26.4255C292.884 26.6354 292.572 27.1997 292.572 28.1027V53.0173C292.572 54.4105 293.812 55.0973 296.317 55.0973C296.898 55.0973 297.245 55.2124 297.348 55.4223C297.455 55.6397 297.523 55.945 297.523 56.3872C297.523 56.8603 297.435 57.1949 297.302 57.367C297.187 57.546 296.801 57.6611 296.165 57.6611H295.546C295.387 57.6611 295.135 57.6227 294.879 57.5769C294.288 57.5199 293.701 57.4816 293.124 57.4176C292.585 57.367 292.029 57.3398 291.495 57.3398H290.01C288.312 57.3398 287.111 57.3484 286.39 57.367C285.737 57.4176 285.226 57.4251 284.978 57.4634C284.707 57.4943 284.475 57.5076 284.292 57.5311C284.104 57.546 283.642 57.5769 282.884 57.5769C282.582 57.5769 282.327 57.4251 282.231 57.1272C282.079 56.8528 282.01 56.5662 282.01 56.287C282.01 55.8682 282.131 55.6003 282.326 55.498C282.518 55.4026 282.712 55.3072 282.979 55.2582C283.254 55.2124 283.91 55.0973 284.978 54.9369C285.887 54.8378 286.412 54.4675 286.661 53.8314C286.855 53.1814 286.97 52.4648 286.97 51.6554V28.3436C286.97 27.595 286.779 27.0627 286.39 26.6919V26.6919Z" fill="#231F20"/>
<path d="M330.568 54.4714C330.568 54.6739 330.512 54.911 330.378 55.1385C330.233 55.3756 330.053 55.5019 329.771 55.5019C329.729 55.5019 329.599 55.4438 329.378 55.3372C328.936 55.0815 328.615 54.911 328.326 54.8257C328.057 54.7384 327.889 54.7122 327.78 54.7122C327.531 54.7122 327.22 54.8039 326.906 54.9941C326.597 55.1779 326.235 55.3681 325.799 55.5908C324.345 56.5429 322.979 57.2388 321.71 57.665C320.427 58.0848 318.955 58.2985 317.219 58.2985C314.467 58.2985 311.942 57.8787 309.661 57.0288C307.367 56.1689 305.392 54.968 303.777 53.4224C302.136 51.8772 300.905 50.0189 300.039 47.8323C299.138 45.6579 298.703 43.254 298.703 40.6486C298.703 38.0912 299.138 35.7117 300.039 33.5065C300.905 31.2943 302.099 29.3779 303.632 27.7523C305.151 26.1241 306.943 24.8454 309.031 23.9103C311.092 22.9838 313.33 22.5107 315.707 22.5107C316.672 22.5107 317.68 22.6018 318.776 22.7845C319.829 22.9838 320.886 23.2433 321.916 23.548C322.931 23.873 323.911 24.2151 324.773 24.5859C325.666 24.9663 326.402 25.311 326.99 25.6163L327.555 24.5859C327.993 23.7382 328.466 23.312 328.967 23.312C329.729 23.312 330.107 23.9593 330.107 25.2343C330.053 25.8188 330.03 26.2189 330.03 26.4661V27.1417C330.03 27.6223 330.072 28.1722 330.149 28.7827C330.217 29.3928 330.397 30.4467 330.664 31.9417C330.805 32.9028 330.913 33.7548 330.913 34.49C330.913 35.3452 330.545 35.7762 329.859 35.7762C329.301 35.7762 328.947 35.6499 328.783 35.4139C328.585 35.1768 328.355 34.6813 328.096 33.9253C327.78 32.7121 327.211 31.541 326.402 30.4157C325.571 29.3011 324.601 28.3165 323.463 27.4582C322.358 26.6196 321.163 25.9509 319.882 25.4645C318.591 24.9983 317.313 24.75 316.036 24.75C312.464 24.75 309.691 26.2104 307.639 29.137C305.631 32.0648 304.609 36.0826 304.609 41.2059C304.609 43.2923 304.945 45.2269 305.555 46.9936C306.143 48.7748 307.012 50.3327 308.154 51.6226C309.26 52.9333 310.568 53.9487 312.086 54.7122C313.625 55.4438 315.238 55.8263 317.024 55.8263C317.97 55.8263 318.924 55.7032 319.882 55.4635C320.837 55.2237 321.683 54.911 322.412 54.4986C323.165 54.1091 323.815 53.6509 324.281 53.1554C324.749 52.6402 324.979 52.1255 324.979 51.5906V47.349C324.979 46.6612 324.861 46.0767 324.637 45.6009C324.381 45.1241 324.036 44.8449 323.616 44.7996C323.41 44.7996 323.045 44.7698 322.477 44.7314C321.916 44.6659 321.19 44.6387 320.364 44.6387C319.649 44.6387 319.229 44.5785 319.127 44.4869C319.001 44.3718 318.924 44.189 318.924 43.9221V43.3488C318.924 43.0835 318.978 42.824 319.078 42.5683C319.18 42.3013 319.462 42.109 319.882 42.0062C320.26 41.9012 320.618 41.8431 320.991 41.8431H322.198C322.931 41.8431 323.839 41.8815 324.913 41.9566C325.993 42.0531 326.944 42.0914 327.84 42.0914H328.967C330.003 42.0914 330.768 42.0594 331.293 42.0062C331.798 41.9385 332.438 41.931 333.133 41.931C333.613 41.931 333.869 42.2507 333.869 42.8613C333.869 43.312 333.728 43.6354 333.465 43.8837C333.197 44.1139 332.691 44.3041 331.934 44.4869C331.351 44.5785 330.98 44.7613 330.805 44.9973C330.664 45.2392 330.568 45.8679 330.568 46.8796V54.4714V54.4714Z" fill="#231F20"/>
<path d="M341.997 57.3472H340.04C339.276 57.3472 338.529 57.3744 337.763 57.425C336.911 57.4889 336.045 57.5076 335.217 57.5076C334.928 57.5076 334.71 57.3744 334.508 57.1346C334.272 56.905 334.195 56.6503 334.195 56.3946C334.195 55.8484 334.302 55.516 334.581 55.3791C334.842 55.2571 335.538 55.1244 336.667 55.0295C337.561 54.9715 338.132 54.6662 338.41 54.1126C338.666 53.5468 338.811 52.4141 338.811 50.7166V28.8246C338.811 27.71 338.582 26.9097 338.125 26.4329C337.674 25.9544 336.819 25.7184 335.604 25.7184C334.965 25.7184 334.538 25.5926 334.278 25.3529C334.066 25.1083 333.927 24.7796 333.927 24.3523C333.927 23.8765 334.126 23.5515 334.454 23.3986C334.787 23.2467 335.332 23.1626 336.073 23.1626H336.965C337.33 23.1626 337.67 23.1775 337.911 23.2467C338.604 23.292 339.391 23.3219 340.292 23.3528C341.172 23.3799 341.997 23.3986 342.802 23.3986C343.561 23.3986 344.176 23.3799 344.629 23.3528C345.115 23.3219 345.561 23.292 345.946 23.2467C346.385 23.1775 346.74 23.1391 347.09 23.1242C347.415 23.0858 347.869 23.0746 348.38 23.0746C348.979 23.0746 349.346 23.1887 349.51 23.437C349.67 23.6852 349.766 24.0172 349.766 24.4375C349.766 24.8675 349.639 25.1994 349.448 25.468C349.219 25.7445 348.541 25.8718 347.353 25.8718C346.248 25.8718 345.431 26.062 344.916 26.4329C344.427 26.8143 344.176 27.6913 344.176 29.0654V34.6613C344.199 35.2458 344.455 35.6534 344.859 35.8942C345.24 36.1356 346.014 36.2565 347.202 36.2565H360.856C360.938 36.2107 361.169 36.1228 361.452 36.0205C361.75 35.9054 361.887 35.5708 361.887 34.9901V28.1991C361.887 27.443 361.734 26.8895 361.364 26.5463C361.024 26.2043 360.423 25.9741 359.491 25.8718C358.644 25.7642 358.083 25.5665 357.82 25.2762C357.564 24.9821 357.423 24.6587 357.423 24.2766C357.423 23.8568 357.514 23.5515 357.716 23.3986C357.964 23.2467 358.415 23.1626 359.101 23.1626C359.842 23.1626 360.575 23.1775 361.292 23.2467C362.017 23.292 362.813 23.3155 363.734 23.3155H366.53C366.851 23.3155 367.269 23.292 367.808 23.276C368.336 23.2537 368.917 23.2084 369.456 23.1626C370.12 23.0933 370.8 23.0746 371.451 23.0746H371.814C372.235 23.0746 372.471 23.17 372.577 23.3528C372.635 23.544 372.673 23.8568 372.673 24.2766V24.4375C372.673 24.8675 372.6 25.1627 372.44 25.3145C372.271 25.468 371.783 25.5814 370.899 25.6198L369.564 25.7184C368.533 25.7642 367.941 26.0695 367.685 26.6337C367.449 27.1836 367.32 27.8448 367.32 28.5869V52.949C367.32 53.5399 367.61 54.0364 368.197 54.4179C368.793 54.8292 369.564 55.0295 370.51 55.0295C371.25 55.0295 371.806 55.1244 372.085 55.3407C372.353 55.5543 372.523 55.8485 372.523 56.2305V56.3946C372.471 56.9668 372.235 57.3248 371.814 57.4708C371.387 57.5928 370.563 57.6685 369.403 57.6685C368.644 57.6685 367.965 57.6301 367.32 57.5843C366.74 57.5273 366.137 57.5076 365.625 57.5076H364.375C363.222 57.5076 362.142 57.5385 361.207 57.6301C360.284 57.6994 359.433 57.7372 358.618 57.7372H357.945C357.736 57.7372 357.514 57.7175 357.246 57.6685C356.881 57.6152 356.709 57.2875 356.709 56.7073V56.2305C356.709 55.8485 356.916 55.5943 357.332 55.4297C357.739 55.2656 358.514 55.1047 359.563 54.9443C360.463 54.8452 361.123 54.4563 361.452 53.7769C361.799 53.128 361.967 51.9186 361.967 50.1524V41.7576C361.967 40.9201 361.871 40.3196 361.7 40.0143C361.516 39.6835 361.139 39.53 360.513 39.53H346.408C345.443 39.53 344.839 39.6835 344.565 39.976C344.282 40.2626 344.176 40.8918 344.176 41.8466V47.7606C344.176 49.2604 344.176 50.4497 344.195 51.3581C344.222 52.2622 344.324 52.9751 344.476 53.51C344.629 54.0449 344.908 54.4104 345.279 54.6007C345.656 54.769 346.195 54.8947 346.862 54.9443L348.23 55.0295C348.979 55.085 349.434 55.1878 349.54 55.3407C349.693 55.5053 349.766 55.7462 349.766 56.0658V56.4713C349.766 56.8405 349.693 57.1197 349.54 57.3099C349.434 57.5017 349.09 57.5843 348.617 57.5843C348.358 57.5843 347.938 57.5534 347.353 57.5385C346.785 57.515 346.153 57.5017 345.484 57.4708C344.832 57.4325 344.176 57.425 343.524 57.3744C342.886 57.3557 342.375 57.3472 341.997 57.3472V57.3472Z" fill="#231F20"/>
<path d="M369.66 6.11935C367.817 6.11935 366.544 6.72141 365.823 7.94151C365.651 8.27877 365.338 8.82755 364.834 9.64059C364.353 10.4297 363.838 11.2624 363.323 12.1197C362.831 12.9786 362.378 13.7346 361.958 14.4102C361.56 15.0575 361.317 15.4406 361.271 15.5727C361.057 15.8866 360.858 16.0507 360.694 16.0507C360.5 16.0507 360.286 15.9558 359.996 15.7331C359.676 15.5157 359.523 15.1982 359.523 14.8178L359.614 14.4746C359.791 14.0468 360.067 13.0095 360.553 11.3834C361.027 9.75514 361.744 7.08424 362.667 3.38292C362.808 2.88635 363.063 2.45638 363.48 2.09728C363.873 1.73125 364.353 1.56342 364.834 1.56342H411.481C411.996 1.56342 412.412 1.6167 412.718 1.72273C413.08 1.83781 413.283 2.14256 413.396 2.63806L415.711 13.7346C415.838 14.1805 415.879 14.4597 415.879 14.5732C415.879 15.008 415.656 15.3133 415.216 15.4779L414.861 15.5727C414.594 15.5727 414.366 15.4406 414.11 15.1913C413.854 14.9552 413.613 14.6574 413.396 14.3137L411.248 10.3386C410.84 9.62781 410.397 8.81156 409.872 7.89622C409.356 6.98035 408.87 6.38522 408.425 6.11935C408.195 6.0048 407.939 5.95046 407.597 5.95046C407.208 5.95046 406.697 5.96644 406.108 6.0341C405.491 6.07992 404.697 6.11935 403.706 6.11935H394.236C393.755 6.11935 393.334 6.38522 392.956 6.94359C392.605 7.49183 392.45 8.05659 392.45 8.59791V51.1017C392.45 51.887 392.655 52.7048 393.099 53.5552C393.533 54.4135 394.295 54.9015 395.395 55.0054L397.743 55.1834L400.127 55.2612C400.615 55.2612 400.932 55.3597 401.05 55.55C401.156 55.7418 401.233 56.1222 401.233 56.6731C401.233 57.0077 401.156 57.2746 401.05 57.5032C400.932 57.7131 400.615 57.8394 400.127 57.8394H398.325C397.081 57.8394 395.998 57.8021 394.983 57.7403C394.136 57.6875 393.301 57.6566 392.496 57.6257C391.748 57.5884 391.217 57.5799 390.939 57.5799H388.031C387.207 57.638 386.448 57.6753 385.789 57.6753C385.2 57.6753 384.614 57.6753 384.072 57.7025C383.514 57.7328 383.087 57.7403 382.805 57.7403C382.697 57.8021 382.405 57.8394 381.908 57.8394C381.43 57.8394 380.889 57.8554 380.305 57.9161C379.707 57.9614 379.065 58.0184 378.34 58.0839C377.531 58.0839 377.089 57.7131 377.089 57.0077C377.089 56.558 377.111 56.2074 377.204 55.9581C377.25 55.7023 377.463 55.5574 377.829 55.5116L380.683 55.2612C381.259 55.2154 381.843 55.12 382.365 55.055C382.881 54.9671 383.343 54.8248 383.762 54.5963C384.181 54.3677 384.521 54.032 384.758 53.5552C385.01 53.0858 385.135 52.4752 385.135 51.6968V8.94263C385.135 7.66872 384.922 6.87432 384.475 6.56903C384.029 6.27173 383.102 6.11935 381.729 6.11935H369.66V6.11935Z" fill="#231F20"/>
<path d="M0 80.8911C0 79.201 0.294093 77.5792 0.862052 76.0234C1.48862 74.4693 2.30007 73.0845 3.38377 71.8863C4.45256 70.6928 5.74937 69.7391 7.2689 69.014C8.77139 68.2777 10.4651 67.934 12.2809 67.934C13.8106 67.934 15.2187 68.0986 16.5321 68.4679C17.8364 68.8238 19.1039 69.4338 20.3581 70.273C20.4891 70.3295 20.5643 70.3604 20.6064 70.3604C20.7976 70.3604 20.9463 70.2543 21.0044 70.0444C21.0225 69.8345 21.0459 69.6043 21.0608 69.3449C21.0795 69.0891 21.087 68.9373 21.087 68.8792C21.1328 68.6975 21.1871 68.5286 21.2772 68.3544C21.3885 68.1935 21.5526 68.0986 21.7588 68.0986C21.949 68.0986 22.1099 68.1567 22.2479 68.2009C22.4077 68.2691 22.4717 68.4039 22.4717 68.6064V75.7938C22.4717 75.9201 22.4717 76.1225 22.4546 76.4039C22.4546 76.6942 22.4077 76.9105 22.3433 77.0752C22.2815 77.2057 22.2319 77.3581 22.1174 77.5408C22.0257 77.7012 21.8813 77.7779 21.6602 77.7779H21.6331C21.2894 77.7779 21.072 77.6479 20.9495 77.3959C20.8434 77.153 20.7742 76.861 20.7742 76.5685C20.7449 76.2051 20.7124 75.805 20.6596 75.3665C20.6176 74.9387 20.5307 74.5732 20.4124 74.3174C20.0267 73.668 19.5227 73.0845 18.936 72.5816C18.326 72.0925 17.6883 71.6849 17.0127 71.3674C16.3147 71.0546 15.5858 70.8191 14.8309 70.6545C14.0935 70.4904 13.3422 70.3875 12.6246 70.3604H12.0561C10.8317 70.3604 9.756 70.6161 8.86623 71.1239C7.94716 71.6353 7.23322 72.3152 6.65727 73.1463C6.07812 73.985 5.67054 74.9387 5.40627 76.0234C5.15159 77.1034 4.99441 78.209 4.99441 79.3529C4.99441 80.2512 5.03651 81.1084 5.16491 81.9364C5.25016 82.7686 5.44408 83.6264 5.67052 84.5242C5.90282 85.3942 6.29444 86.3245 6.84162 87.3075C7.38241 88.2921 8.10807 89.0444 9.02714 89.5596C9.756 89.9725 10.4886 90.265 11.243 90.3988C11.9921 90.5703 12.7961 90.6284 13.6401 90.6284C14.3727 90.6284 15.109 90.5506 15.8219 90.3689C16.9013 90.0184 17.9131 89.5143 18.8359 88.8803C19.7821 88.2431 20.5643 87.5078 21.2276 86.6404C21.3885 86.1652 21.6059 85.61 21.8046 84.9888C22.0023 84.3771 22.1627 83.7671 22.2479 83.1805C22.2479 83.1421 22.3076 83.0158 22.3854 82.8144C22.4717 82.6157 22.5905 82.4932 22.7546 82.4932H23.3305C23.655 82.4932 23.8346 82.7489 23.8346 83.2183L23.785 83.677C23.785 83.7042 23.785 83.8747 23.7504 84.2104C23.7504 84.5418 23.7195 84.8753 23.6428 85.2482L23.4648 86.6788C23.4366 87.2894 23.4142 87.8994 23.3503 88.5383C23.3241 89.1856 23.2698 89.7957 23.2352 90.3689C23.2352 90.5975 23.2165 90.751 23.1313 90.8261C23.0561 90.8756 22.9448 90.9337 22.7967 91.003H22.4456C22.0023 91.003 21.7663 90.8495 21.7242 90.5506C21.6895 90.4952 21.6368 90.4297 21.6219 90.3689C21.5601 90.3034 21.5068 90.2847 21.3885 90.2847C21.3128 90.2847 21.2511 90.2922 21.1743 90.3231C20.08 90.914 18.8125 91.5054 17.424 92.0702C16.0243 92.6509 14.5554 92.9359 13.0098 92.9359H12.5564C11.1407 92.9359 9.77944 92.7644 8.51192 92.4282C7.21563 92.0963 6.06693 91.5896 5.09352 90.8953C3.52444 89.8649 2.30008 88.4839 1.37355 86.7752C0.476853 85.057 0 83.0926 0 80.8911V80.8911Z" fill="#231F20"/>
<path d="M32.0233 80.0292C32.0233 81.2349 32.1309 82.4641 32.3925 83.73C32.6371 85.0199 33.0575 86.1723 33.5492 87.2326C34.3127 88.263 35.1141 89.14 36.1471 89.8284C37.1957 90.5136 38.509 90.8572 40.0611 90.8572C41.9845 90.8572 43.5077 90.5828 44.6133 90.0186C45.7583 89.4378 46.6123 88.6903 47.1851 87.7356C47.7808 86.7925 48.15 85.6992 48.3306 84.4466C48.5171 83.2185 48.5938 81.9217 48.5938 80.5641C48.5938 79.4037 48.4553 78.1831 48.1734 76.9305C47.8942 75.6645 47.4249 74.5276 46.7578 73.4902C46.1131 72.4475 45.2324 71.5897 44.129 70.9216C43.0383 70.2545 41.6605 69.9184 40.0201 69.9184C38.6353 69.9184 37.4514 70.1853 36.4263 70.7501C35.4194 71.285 34.5669 72.0394 34.0112 72.9947C33.2365 73.9362 32.7943 75.0156 32.489 76.2373C32.1528 77.4345 32.0233 78.7159 32.0233 80.0292V80.0292ZM27.1509 80.968C27.1509 79.1815 27.4599 77.4729 28.0774 75.8931C28.6949 74.3054 29.5698 72.9169 30.7025 71.7112C31.848 70.5018 33.2056 69.5491 34.8844 68.8501C36.5089 68.1569 38.3449 67.8047 40.3856 67.8047C42.1981 67.8047 43.9041 68.0791 45.4988 68.6705C47.0444 69.2625 48.4206 70.0702 49.588 71.1241C50.7719 72.1806 51.6798 73.4407 52.3356 74.9154C52.9915 76.4041 53.324 78.0376 53.324 79.8113C53.324 80.9073 53.2254 81.9489 53.0336 82.8903C52.8311 83.8675 52.5951 84.7221 52.2701 85.4968C51.943 86.2405 51.5993 86.9348 51.2141 87.5304C50.8209 88.148 50.4581 88.6371 50.0974 89.0708C48.711 90.5903 47.1323 91.6282 45.2777 92.162C43.4768 92.7076 41.6605 92.9745 39.8485 92.9745C37.9592 92.9745 36.2276 92.6586 34.682 92.047C33.0798 91.4492 31.7676 90.5978 30.6604 89.5402C29.5474 88.473 28.6949 87.2028 28.0774 85.745C27.4599 84.2649 27.1509 82.674 27.1509 80.968V80.968Z" fill="#231F20"/>
<path d="M61.8516 74.3989C61.7653 74.2838 61.711 74.2161 61.6044 74.2161C61.46 74.2161 61.3822 74.368 61.3822 74.6733V85.9978C61.3822 86.1587 61.3822 86.3564 61.3982 86.634C61.4318 86.8897 61.444 87.1566 61.4515 87.4358C61.4712 87.7028 61.4861 87.9585 61.493 88.1983C61.5351 88.4391 61.5586 88.6181 61.5586 88.7332C61.6119 89.0875 61.7195 89.3693 61.776 89.6608C61.9134 89.9341 62.0615 90.144 62.3295 90.2783C62.5016 90.4232 62.6716 90.5143 62.8709 90.5639C63.0387 90.6022 63.2102 90.6592 63.3973 90.7173C63.5118 90.7812 63.6946 90.8319 63.8789 90.8692C64.1027 90.9187 64.352 90.9837 64.6115 91.0333C65.0191 91.1174 65.1981 91.4297 65.1981 91.9374C65.1981 92.2699 65.0574 92.4713 64.8092 92.5293C64.5619 92.6119 64.3089 92.6519 64.084 92.6519H63.0845C62.7568 92.6519 62.4739 92.6247 62.2347 92.5592H57.277C56.7778 92.5592 56.2812 92.5863 55.7969 92.6119C55.6216 92.6119 55.4607 92.491 55.3398 92.2315C55.2902 92.1388 55.2631 92.0141 55.2631 91.9374C55.2631 91.5288 55.4314 91.2394 55.7436 91.1174C56.0415 91.0098 56.3702 90.9075 56.6899 90.8505C57.1215 90.8036 57.5599 90.6406 58.0368 90.3923C58.4913 90.1637 58.7806 89.8217 58.8386 89.3619C58.9793 89.0379 59.056 88.6836 59.0907 88.2856C59.0944 87.9052 59.1434 87.5237 59.177 87.1566L59.2191 86.3942C59.2846 84.6994 59.3373 82.9907 59.3533 81.2922C59.4141 79.6021 59.4487 78.1076 59.4487 76.7719V72.468C59.3496 72.3455 59.2191 72.1851 59.0486 71.9576C58.8387 71.728 58.6618 71.4978 58.4678 71.2698C58.2382 71.0481 57.9984 70.8286 57.7427 70.6283C57.4758 70.4184 57.1939 70.2665 56.911 70.1786C56.6787 70.0763 56.3958 70.0379 56.075 70.0182C55.7474 69.9996 55.4421 69.95 55.1629 69.8659C54.9492 69.7897 54.8123 69.7055 54.7132 69.5424C54.6306 69.3879 54.5837 69.2558 54.5837 69.1407C54.5837 68.8727 54.7356 68.6639 55.0345 68.5307C55.3275 68.4097 55.5534 68.3207 55.7202 68.3207H61.9246C62.1383 68.3207 62.3988 68.4465 62.6423 68.6532C62.9092 68.8557 63.1378 69.0571 63.3019 69.2744L76.722 85.0889C76.8083 85.2343 76.8861 85.2801 76.9394 85.2801C76.9814 85.2801 77.0225 85.2418 77.0496 85.1453C77.0949 85.0505 77.1098 84.9823 77.1098 84.929V77.7331C77.1098 76.5237 77.0768 75.482 77.0347 74.5667C76.9889 73.6812 76.9234 72.7952 76.8083 71.9256C76.7518 71.5069 76.5525 71.193 76.2936 70.9805C75.9931 70.7743 75.6915 70.6096 75.4001 70.4839C74.9776 70.3305 74.6105 70.2282 74.2413 70.1525C73.8891 70.0763 73.5881 69.95 73.3211 69.7588C73.2034 69.6559 73.1618 69.4769 73.1618 69.2249C73.1618 69.0336 73.2034 68.8727 73.2865 68.691C73.4309 68.512 73.5657 68.423 73.7362 68.423H82.0366C82.3147 68.423 82.4826 68.4998 82.5817 68.6639C82.7111 68.8269 82.7879 69.0075 82.7879 69.2249C82.7879 69.5526 82.6653 69.7822 82.4751 69.9117C82.2924 69.95 82.075 70.0108 81.8837 70.0379C81.6056 70.0635 81.4031 70.1253 81.1362 70.1786C80.727 70.2862 80.3727 70.4839 80.0178 70.7434C79.6438 70.9917 79.4994 71.3241 79.4611 71.7551C79.4264 72.0711 79.4041 72.5442 79.3918 73.166C79.3918 73.7648 79.3423 74.4063 79.3002 75.0547C79.2655 75.7031 79.2544 76.294 79.24 76.878C79.2128 77.439 79.2128 77.8716 79.2128 78.1385V79.8318C79.2128 80.3198 79.2016 80.892 79.1782 81.5404C79.1707 82.2075 79.1584 83.0216 79.1584 83.9902C79.1361 84.9748 79.1361 86.1385 79.1174 87.4854C79.1089 88.8365 79.095 90.4232 79.095 92.2315C79.095 92.8048 78.8494 93.1016 78.4072 93.1016H78.3118C78.0412 93.0707 77.8131 92.995 77.6869 92.8804C77.5371 92.7579 77.3778 92.6119 77.2089 92.4217L61.8516 74.3989V74.3989Z" fill="#231F20"/>
<path d="M87.9986 90.7673C87.8068 90.7673 87.6241 90.9282 87.4179 91.2639C87.2879 91.4162 87.1968 91.5382 87.0892 91.6448C87.0066 91.7594 86.883 91.7977 86.7125 91.7977H86.6011C86.4418 91.7359 86.3464 91.6336 86.2852 91.4802C86.2196 91.3283 86.1738 91.1951 86.1738 91.0342C86.1738 90.9847 86.1823 90.9085 86.2159 90.8515C86.2319 90.8046 86.2431 90.7289 86.2431 90.6799C86.2852 90.5845 86.3182 90.3933 86.38 90.1077C86.4221 89.8285 86.4988 89.4976 86.6011 89.1343C86.6779 88.7528 86.7764 88.3521 86.8531 87.9062C86.9288 87.4751 86.9794 87.075 87.0433 86.6733C87.0433 86.6093 87.0433 86.4325 87.0892 86.1666C87.1286 85.8714 87.1622 85.5667 87.1968 85.2736C87.2117 84.9449 87.2277 84.6401 87.2623 84.3716C87.2991 84.1175 87.3348 83.9454 87.3348 83.8766C87.3486 83.6864 87.3945 83.4797 87.4525 83.2783C87.5053 83.0758 87.7083 82.9608 88.0242 82.8846H88.1196C88.4824 82.8846 88.662 83.1067 88.662 83.5255C88.662 84.3087 88.7297 84.9561 88.8447 85.4638C89.0547 86.3302 89.4095 87.2343 89.9588 88.1619C90.4852 89.097 91.1102 89.7901 91.8641 90.2792C92.2941 90.592 92.8439 90.8328 93.454 90.9468C94.064 91.0603 94.6373 91.1184 95.144 91.1184C95.7343 91.1184 96.346 91.0108 96.9784 90.7945C97.6124 90.5648 98.1532 90.2483 98.646 89.8226C99.6125 88.9504 100.093 87.8172 100.093 86.4324C100.093 85.5789 99.7878 84.841 99.2689 84.2048C98.7079 83.5639 98.0632 83.1067 97.3455 82.8089L96.1323 82.3619C95.3763 82.095 94.6053 81.8009 93.7736 81.5355C92.9883 81.2436 92.2408 80.9388 91.554 80.6569C90.3184 80.0986 89.288 79.3106 88.4483 78.253C87.5905 77.173 87.1659 76.0019 87.135 74.712V74.5676C87.135 73.5372 87.3881 72.5292 87.8601 71.5643C88.3295 70.6106 88.9891 69.8087 89.791 69.1874C91.1102 68.2721 92.577 67.8373 94.2436 67.8373C95.071 67.8373 95.8121 67.978 96.4376 68.246C97.0786 68.5129 97.727 68.791 98.4414 69.0963C98.5699 69.1613 98.7414 69.237 98.9364 69.3393C99.116 69.4544 99.3568 69.5162 99.5854 69.5434H99.636C99.7383 69.5434 99.7878 69.4666 99.8411 69.3025C99.9322 69.1331 99.978 69.0084 100.044 68.9205C100.122 68.7415 100.214 68.5886 100.299 68.4858C100.414 68.3872 100.566 68.3217 100.791 68.3217H100.947C101.035 68.3217 101.111 68.3872 101.206 68.4858C101.303 68.5886 101.352 68.7218 101.352 68.8736C101.352 69.1235 101.303 69.4544 101.206 69.8854C101.111 70.3058 101.093 70.7443 101.093 71.1641C101.093 71.4497 101.093 71.7816 101.1 72.1365C101.111 72.4801 101.134 72.7865 101.206 73.0641C101.275 73.3198 101.352 73.6523 101.428 74.0178C101.531 74.3875 101.566 74.712 101.566 74.9789V75.215C101.566 75.5139 101.549 75.735 101.531 75.8874C101.428 76.2774 101.153 76.475 100.729 76.475C100.436 76.475 100.276 76.3344 100.192 76.0674C100.122 75.7883 100.07 75.5522 100.044 75.3423C99.978 74.8345 99.8027 74.3305 99.5358 73.8425C99.2801 73.3395 98.9242 72.8813 98.4942 72.4242C98.3104 72.1562 98.0546 71.8807 97.727 71.6213C97.4222 71.3543 97.0562 71.0874 96.6896 70.8514C96.2655 70.6106 95.8728 70.4193 95.4455 70.2674C94.9884 70.1262 94.5483 70.0389 94.064 70.0389H93.9654C92.8583 70.0644 91.9701 70.3639 91.2833 70.9158C90.5619 71.462 90.2332 72.2143 90.2332 73.1408V73.3198C90.2865 73.9576 90.6312 74.5676 91.2562 75.1782C91.8737 75.7994 92.5695 76.2576 93.3442 76.5134C94.3 76.8496 95.2846 77.1842 96.3039 77.5438C97.3343 77.9093 98.3226 78.253 99.2801 78.5727C100.729 79.0932 101.772 79.9206 102.432 81.0832C103.084 82.2282 103.42 83.4797 103.42 84.7781C103.42 85.5938 103.29 86.3792 103.045 87.1192C102.801 87.8753 102.485 88.6004 102.099 89.2877C101.401 90.5451 100.398 91.5382 99.1011 92.2325C97.8074 92.9688 96.4557 93.3311 95.0486 93.3311H94.6831C94.0901 93.2927 93.5456 93.2469 93.0847 93.1478C92.577 93.0455 92.1406 92.9501 91.6909 92.7898C91.2636 92.6454 90.8289 92.4461 90.4138 92.1941C89.9934 91.9655 89.5475 91.672 89.0744 91.3097C88.914 91.2244 88.7371 91.0997 88.5357 90.974C88.3183 90.8328 88.1196 90.7673 87.9986 90.7673V90.7673Z" fill="#231F20"/>
<path d="M113.261 91.8809C113.261 91.735 113.311 91.5746 113.437 91.4153C113.563 91.2507 113.78 91.1372 114.161 91.0716C114.341 91.0493 114.528 91.0333 114.795 91.0333C115.028 91.0333 115.302 91.0221 115.646 90.9965C117.019 90.8889 117.823 90.0684 117.988 88.4775V71.8425C117.988 71.6289 117.896 71.4978 117.787 71.4488C117.637 71.4227 117.5 71.3928 117.348 71.3928H112.407C112.074 71.3928 111.807 71.4882 111.627 71.6784C111.414 71.8798 111.263 72.0402 111.113 72.1936L108 75.7032C107.534 76.2567 107.121 76.5125 106.737 76.5125C106.478 76.5125 106.34 76.294 106.34 75.8864C106.34 75.8246 106.34 75.7799 106.352 75.7218C106.374 75.6834 106.383 75.627 106.383 75.5588L108.057 69.0954C108.171 68.5765 108.53 68.3207 109.114 68.3207H130.927C131.289 68.3207 131.537 68.423 131.75 68.5999C131.922 68.7779 132.028 68.9803 132.094 69.1865L133.181 75.7873C133.211 75.8864 133.219 76.001 133.219 76.1417C133.219 76.5125 133.082 76.6968 132.823 76.6968C132.704 76.6968 132.54 76.6494 132.448 76.5892C132.308 76.5039 132.136 76.3446 131.956 76.1161C131.312 75.303 130.747 74.5507 130.273 73.8799C129.827 73.215 129.328 72.5677 128.825 71.9715C128.566 71.7045 128.327 71.5378 128.038 71.4685C127.771 71.4227 127.477 71.3928 127.145 71.3928H123.295C123.025 71.3928 122.811 71.4227 122.62 71.4488C122.467 71.4978 122.402 71.6289 122.402 71.8425V89.1419C122.402 89.6485 122.609 90.0572 123.078 90.3353C123.574 90.622 124.143 90.8036 124.779 90.8505L126.229 90.9459C126.523 90.9459 126.737 91.0098 126.931 91.1484C127.106 91.2778 127.183 91.5288 127.183 91.8341C127.183 92.0797 127.08 92.2811 126.823 92.4217C126.618 92.5864 126.275 92.6519 125.878 92.6519H114.443C114.073 92.6519 113.83 92.612 113.604 92.5097C113.36 92.4217 113.261 92.2241 113.261 91.8809V91.8809Z" fill="#231F20"/>
<path d="M144.408 79.3109C144.408 79.4132 144.422 79.5575 144.461 79.7035C144.484 79.8442 144.537 79.9209 144.652 79.9209H146.329C146.941 79.9209 147.605 79.8628 148.331 79.7408C149.066 79.5885 149.601 79.4355 149.955 79.3109C150.39 79.0935 150.803 78.8031 151.214 78.4136C151.596 78.0508 151.862 77.696 152.062 77.3651C152.217 77.0401 152.374 76.698 152.435 76.3347C152.511 75.9638 152.539 75.544 152.539 75.0251C152.539 74.4001 152.404 73.7772 152.118 73.1794C151.824 72.5827 151.496 72.0995 151.114 71.7057C150.038 70.6295 148.536 70.0775 146.605 70.0775H145.178C145.033 70.0775 144.849 70.134 144.679 70.2491C144.491 70.3551 144.408 70.6108 144.408 71.02V79.3109V79.3109ZM136.143 91.8353C136.143 91.4309 136.38 91.1645 136.86 91.0729C136.949 91.0505 137.066 91.0233 137.251 91.0111C137.402 91.0052 137.581 90.985 137.753 90.9471C137.967 90.9088 138.181 90.8704 138.383 90.8209C138.902 90.7186 139.287 90.5848 139.588 90.3936C140.04 90.108 140.294 89.7755 140.294 89.4201V73.587C140.294 73.262 140.276 72.9386 140.241 72.6062C140.234 72.2716 140.139 71.9466 140.004 71.6216C139.891 71.3088 139.677 71.02 139.356 70.7643C139.032 70.4851 138.689 70.3242 138.383 70.2677C138.043 70.2107 137.762 70.1638 137.506 70.1537C137.258 70.134 136.999 70.1265 136.765 70.0775C136.437 70.0503 136.242 69.9736 136.182 69.849C136.112 69.7067 136.093 69.5436 136.093 69.3721C136.093 69.2112 136.143 69.0348 136.228 68.8739C136.322 68.6922 136.562 68.5777 136.896 68.5628C137.411 68.5234 138.104 68.5132 139.009 68.5132H141.66C142.454 68.5132 143.323 68.4738 144.308 68.4109C145.24 68.3097 146.052 68.2724 146.712 68.2724H147.14C148.417 68.2724 149.715 68.4109 150.973 68.616C152.312 68.8446 153.496 69.257 154.548 69.8671C155.456 70.37 156.211 71.0493 156.812 71.9093C157.409 72.7665 157.704 73.8156 157.704 75.0746C157.704 75.8877 157.54 76.6203 157.231 77.3081C156.9 77.9752 156.457 78.5655 155.946 79.0626C155.403 79.5576 154.816 79.947 154.121 80.2459C153.419 80.5512 152.745 80.7217 152.016 80.7873C151.95 80.7873 151.928 80.8107 151.928 80.8858C151.928 80.9316 151.95 81.0009 152.016 81.0664C152.336 81.2369 152.785 81.5358 153.324 81.9312C153.946 82.3361 154.45 82.8316 154.87 83.3926C155.094 83.6409 155.385 83.984 155.761 84.4721C156.178 84.9564 156.563 85.4519 156.952 85.9495C157.409 86.5313 157.868 87.1318 158.398 87.7919C158.63 88.1622 158.936 88.5043 159.291 88.8479C159.66 89.1926 159.92 89.4399 160.104 89.6002C160.347 89.7755 160.577 89.9055 160.813 90.0131C161.096 90.0957 161.332 90.1277 161.584 90.1277C162.247 90.1277 162.726 90.0131 163.057 89.7377L163.393 89.4596C163.904 89.4596 164.14 89.6498 164.14 90.0499C164.14 90.8331 163.743 91.4805 162.965 92.0154C162.201 92.5604 161.157 92.8284 159.867 92.8284C159.47 92.8284 158.986 92.7901 158.374 92.7283C157.753 92.6457 157.285 92.5109 156.952 92.3404C156.392 92.0154 155.815 91.5844 155.319 91.0729C154.793 90.5774 154.289 90.0302 153.816 89.4399C153.343 88.8479 152.939 88.2576 152.539 87.6656C152.134 87.0753 151.797 86.5313 151.508 86.0449L151.061 85.3197C150.767 84.8413 150.451 84.3719 150.107 83.9078C149.772 83.4491 149.428 83.0229 149.009 82.6488C148.604 82.2743 148.192 81.9695 147.719 81.7516C147.261 81.5358 146.723 81.4207 146.155 81.4207H144.728C144.564 81.4207 144.484 81.474 144.461 81.5987C144.422 81.726 144.408 81.8283 144.408 81.9621V87.1579C144.408 87.6161 144.461 88.1425 144.537 88.6961C144.652 89.2678 144.75 89.6498 144.895 89.8672C145.24 90.3749 145.705 90.6802 146.263 90.7676C146.568 90.8331 146.906 90.8827 147.261 90.9471C147.643 91.0111 147.884 91.0606 148.002 91.1187C148.245 91.1954 148.512 91.2705 148.784 91.3931C149.032 91.53 149.18 91.7362 149.18 92.0649C149.18 92.5876 148.837 92.8284 148.13 92.8284C148.085 92.8284 147.884 92.8061 147.551 92.7901C147.222 92.7592 146.983 92.7517 146.827 92.7517H137.452C137.375 92.7517 137.258 92.7405 137.048 92.7283C136.867 92.7134 136.723 92.6825 136.608 92.6532C136.449 92.5999 136.322 92.4922 136.249 92.3084C136.174 92.1566 136.143 91.9957 136.143 91.8353V91.8353Z" fill="#231F20"/>
<path d="M161.85 69.1419C161.85 68.8372 161.934 68.647 162.056 68.5319C162.194 68.4477 162.453 68.3875 162.857 68.3875H167.653C168.107 68.3875 168.611 68.3784 169.123 68.3491C169.638 68.3331 170.144 68.3219 170.629 68.3219H172.251C172.548 68.3219 172.819 68.3987 173.129 68.5132C173.404 68.6379 173.548 68.8372 173.548 69.1419C173.441 69.7216 173.182 70.012 172.709 70.0392C172.64 70.0392 172.399 70.0578 172.003 70.1143C171.641 70.1537 171.354 70.2294 171.122 70.2949C170.886 70.4009 170.656 70.5469 170.458 70.7643C170.285 70.9742 170.144 71.1943 170.068 71.4314C170.018 71.5843 169.985 71.8203 169.969 72.1863C169.923 72.5199 169.907 72.8049 169.907 73.0644V83.5642C169.907 84.7662 170.071 85.8088 170.5 86.6922C170.915 87.5777 171.452 88.3029 172.205 88.8751C172.903 89.4398 173.763 89.8783 174.731 90.1575C175.684 90.4404 176.792 90.5848 177.955 90.5848C179.084 90.5848 180.11 90.3872 180.991 90.0131C181.912 89.6226 182.686 89.0887 183.3 88.3908C183.934 87.6928 184.418 86.8654 184.749 85.9213C185.063 84.9564 185.231 83.9004 185.231 82.7634V73.5487C185.231 72.652 185.093 71.881 184.835 71.247C184.749 71.0424 184.643 70.889 184.46 70.7829C184.331 70.6753 184.116 70.5618 183.892 70.4467C183.83 70.3823 183.715 70.3551 183.545 70.3551C183.376 70.3551 183.239 70.3317 183.079 70.2949C182.903 70.2677 182.713 70.2677 182.529 70.2677C182.304 70.2416 182.037 70.1537 181.789 70.0194C181.476 69.8857 181.387 69.6188 181.387 69.2261C181.387 68.6379 181.712 68.3219 182.368 68.3219H188.383C188.795 68.2958 189.123 68.2724 189.413 68.2724H190.091C190.382 68.2724 190.61 68.3097 190.794 68.4109C190.954 68.4738 191.026 68.6922 191.026 69.0348V69.1419C191.026 69.4781 190.847 69.7216 190.443 69.8671C190.305 69.9241 190.136 69.9512 189.924 69.9736C189.729 69.9896 189.492 70.0391 189.261 70.134C188.944 70.2294 188.717 70.3242 188.589 70.4467C188.463 70.5618 188.29 70.7755 188.077 71.0696C187.971 71.2411 187.86 71.4697 187.734 71.8437C187.569 72.1948 187.509 72.6323 187.509 73.1411V82.2668C187.509 84.4118 187.138 86.3576 186.368 88.0674C185.566 89.7755 184.201 91.1112 182.216 92.0649C181.808 92.2823 181.144 92.4848 180.262 92.6531C179.343 92.8284 178.386 92.9307 177.333 92.9307C175.65 92.9307 174.178 92.7778 172.778 92.5008C171.403 92.2178 170.221 91.7213 169.191 91.0345C168.176 90.3477 167.334 89.4324 166.757 88.2869C166.165 87.143 165.811 85.7396 165.735 84.0224V72.1565C165.735 72.0217 165.712 71.9194 165.669 71.7819C165.608 71.3088 165.444 70.9657 165.124 70.7446C164.853 70.5086 164.563 70.37 164.269 70.2949L162.796 70.0392C162.525 69.9821 162.323 69.8857 162.098 69.7451C161.957 69.6081 161.85 69.4088 161.85 69.1419V69.1419Z" fill="#231F20"/>
<path d="M192.127 80.8911C192.127 79.201 192.412 77.5792 193.008 76.0234C193.568 74.4693 194.415 73.0845 195.476 71.8863C196.571 70.6928 197.88 69.7391 199.376 69.014C200.871 68.2777 202.539 67.934 204.393 67.934C205.908 67.934 207.32 68.0986 208.632 68.4679C209.936 68.8238 211.199 69.4338 212.485 70.273C212.584 70.3295 212.669 70.3604 212.699 70.3604C212.916 70.3604 213.027 70.2543 213.11 70.0444C213.149 69.8345 213.172 69.6043 213.184 69.3449C213.196 69.0891 213.207 68.9373 213.207 68.8792C213.234 68.6975 213.294 68.5286 213.415 68.3544C213.493 68.1935 213.663 68.0986 213.859 68.0986C214.045 68.0986 214.224 68.1567 214.363 68.2009C214.523 68.2691 214.599 68.4039 214.599 68.6064V75.7938C214.599 75.9201 214.599 76.1225 214.58 76.4039C214.561 76.6942 214.523 76.9105 214.445 77.0752C214.374 77.2057 214.313 77.3581 214.248 77.5408C214.133 77.7012 213.988 77.7779 213.79 77.7779H213.729C213.415 77.7779 213.184 77.6479 213.053 77.3959C212.925 77.153 212.889 76.861 212.889 76.5685C212.863 76.2051 212.821 75.805 212.786 75.3665C212.744 74.9387 212.633 74.5732 212.508 74.3174C212.127 73.668 211.626 73.0845 211.042 72.5816C210.44 72.0925 209.798 71.6849 209.105 71.3674C208.425 71.0546 207.67 70.8191 206.949 70.6545C206.197 70.4904 205.462 70.3875 204.748 70.3604H204.145C202.924 70.3604 201.856 70.6161 200.975 71.1239C200.063 71.6353 199.353 72.3152 198.75 73.1463C198.212 73.985 197.765 74.9387 197.487 76.0234C197.239 77.1034 197.093 78.209 197.093 79.3529C197.093 80.2512 197.129 81.1084 197.27 81.9364C197.376 82.7686 197.526 83.6264 197.765 84.5242C198.01 85.3942 198.399 86.3245 198.956 87.3075C199.482 88.2921 200.219 89.0444 201.139 89.5596C201.856 89.9725 202.614 90.265 203.336 90.3988C204.107 90.5703 204.901 90.6284 205.74 90.6284C206.476 90.6284 207.205 90.5506 207.926 90.3689C208.998 90.0184 210.013 89.5143 210.956 88.8803C211.875 88.2431 212.669 87.5078 213.332 86.6404C213.507 86.1652 213.703 85.61 213.913 84.9888C214.118 84.3771 214.278 83.7671 214.363 83.1805C214.363 83.1421 214.389 83.0158 214.491 82.8144C214.599 82.6157 214.717 82.4932 214.846 82.4932H215.446C215.781 82.4932 215.93 82.7489 215.93 83.2183L215.903 83.677C215.903 83.7042 215.903 83.8747 215.866 84.2104C215.857 84.5418 215.821 84.8753 215.748 85.2482L215.591 86.6788C215.553 87.2894 215.514 87.8994 215.468 88.5383C215.419 89.1856 215.393 89.7957 215.361 90.3689C215.361 90.5975 215.305 90.751 215.244 90.8261C215.156 90.8756 215.052 90.9337 214.904 91.003H214.561C214.118 91.003 213.87 90.8495 213.828 90.5506C213.798 90.4952 213.775 90.4297 213.713 90.3689C213.663 90.3034 213.611 90.2847 213.507 90.2847C213.432 90.2847 213.336 90.2922 213.271 90.3231C212.176 90.914 210.94 91.5054 209.544 92.0702C208.131 92.6509 206.67 92.9359 205.095 92.9359H204.649C203.261 92.9359 201.894 92.7644 200.628 92.4282C199.331 92.0963 198.185 91.5896 197.193 90.8953C195.644 89.8649 194.408 88.4839 193.5 86.7752C192.569 85.057 192.127 83.0926 192.127 80.8911V80.8911Z" fill="#231F20"/>
<path d="M226.641 91.8809C226.641 91.735 226.702 91.5746 226.813 91.4153C226.954 91.2507 227.184 91.1372 227.526 91.0716C227.745 91.0493 227.916 91.0333 228.182 91.0333C228.419 91.0333 228.7 91.0221 229.014 90.9965C230.43 90.8889 231.212 90.0684 231.371 88.4775V71.8425C231.371 71.6289 231.312 71.4978 231.159 71.4488C231.029 71.4227 230.873 71.3928 230.739 71.3928H225.803C225.466 71.3928 225.191 71.4882 225.008 71.6784C224.818 71.8798 224.626 72.0402 224.482 72.1936L221.372 75.7032C220.934 76.2567 220.521 76.5125 220.137 76.5125C219.845 76.5125 219.721 76.294 219.721 75.8864C219.721 75.8246 219.721 75.7799 219.759 75.7218C219.77 75.6834 219.773 75.627 219.773 75.5588L221.427 69.0954C221.544 68.5765 221.906 68.3207 222.506 68.3207H244.302C244.647 68.3207 244.947 68.423 245.108 68.5999C245.291 68.7779 245.428 68.9803 245.473 69.1865L246.557 75.7873C246.58 75.8864 246.61 76.001 246.61 76.1417C246.61 76.5125 246.458 76.6968 246.199 76.6968C246.085 76.6968 245.932 76.6494 245.829 76.5892C245.676 76.5039 245.527 76.3446 245.344 76.1161C244.657 75.303 244.112 74.5507 243.666 73.8799C243.184 73.215 242.715 72.5677 242.181 71.9715C241.964 71.7045 241.689 71.5378 241.418 71.4685C241.158 71.4227 240.857 71.3928 240.544 71.3928H236.688C236.406 71.3928 236.18 71.4227 235.999 71.4488C235.851 71.4978 235.776 71.6289 235.776 71.8425V89.1419C235.776 89.6485 235.986 90.0572 236.493 90.3353C236.954 90.622 237.511 90.8036 238.162 90.8505L239.613 90.9459C239.905 90.9459 240.118 91.0098 240.316 91.1484C240.473 91.2778 240.581 91.5288 240.581 91.8341C240.581 92.0797 240.437 92.2811 240.232 92.4217C239.971 92.5864 239.649 92.6519 239.271 92.6519H227.82C227.477 92.6519 227.21 92.612 226.961 92.5097C226.764 92.4217 226.641 92.2241 226.641 91.8809V91.8809Z" fill="#231F20"/>
<path d="M248.064 91.9844C248.064 91.8213 248.126 91.6684 248.247 91.4766C248.354 91.3061 248.553 91.1916 248.893 91.1148C249.247 91.0568 249.553 91.0195 249.843 90.9939C250.117 90.9705 250.418 90.9246 250.727 90.8863C251.224 90.8665 251.543 90.6764 251.727 90.3141C251.941 89.94 252.032 89.558 252.032 89.1392V71.9688C252.032 71.4952 251.91 71.0657 251.69 70.7024C251.448 70.3513 251.139 70.1376 250.833 70.0737C250.727 70.0737 250.59 70.0609 250.414 70.0353C250.194 70.0081 250.006 69.9783 249.792 69.9474C249.568 69.9202 249.384 69.8941 249.235 69.8632C249.079 69.8254 248.926 69.8051 248.893 69.8051C248.553 69.7487 248.354 69.6352 248.247 69.4508C248.126 69.2718 248.064 69.0704 248.064 68.8701C248.133 68.6884 248.254 68.528 248.393 68.4071C248.553 68.26 248.813 68.1918 249.147 68.1918H259.022C259.346 68.1918 259.613 68.2302 259.846 68.2686C260.052 68.3378 260.197 68.5355 260.197 68.8701V68.917C260.197 69.0928 260.052 69.2532 259.846 69.405C259.613 69.5499 259.346 69.6533 259.022 69.6805C258.618 69.7412 258.168 69.8254 257.69 69.9474C257.221 70.0609 256.855 70.2836 256.694 70.6257C256.511 70.826 256.42 71.1222 256.374 71.4952C256.336 71.8772 256.329 72.2278 256.329 72.6023V88.9975C256.329 89.1765 256.336 89.3987 256.36 89.6347C256.382 89.8745 256.446 90.078 256.524 90.2304C256.596 90.3897 256.755 90.5613 256.977 90.6763C257.221 90.801 257.397 90.8665 257.575 90.8863C257.755 90.9246 257.98 90.9433 258.214 90.9433H258.96C259.354 90.9811 259.663 91.0568 259.915 91.1916C260.158 91.3248 260.259 91.5656 260.259 91.9348C260.259 92.2289 260.056 92.4426 259.663 92.5566C259.502 92.6221 259.319 92.6493 259.084 92.6493C258.378 92.6221 257.69 92.596 257.092 92.5566C256.524 92.5267 256.008 92.507 255.501 92.4969C255.02 92.4884 254.641 92.4809 254.427 92.4809C253.612 92.4809 252.864 92.4884 252.209 92.4969C251.522 92.507 250.952 92.5267 250.468 92.5566C249.911 92.596 249.423 92.6221 248.968 92.6493C248.697 92.6493 248.453 92.5837 248.316 92.45C248.151 92.3046 248.064 92.1527 248.064 91.9844V91.9844Z" fill="#231F20"/>
<path d="M266.875 80.0292C266.875 81.2349 266.998 82.4641 267.252 83.73C267.524 85.0199 267.932 86.1723 268.549 87.2326C269.141 88.263 269.95 89.14 271.019 89.8284C272.073 90.5136 273.362 90.8572 274.937 90.8572C276.834 90.8572 278.361 90.5828 279.467 90.0186C280.632 89.4378 281.443 88.6903 282.061 87.7356C282.629 86.7925 283.006 85.6992 283.198 84.4466C283.38 83.2185 283.468 81.9217 283.468 80.5641C283.468 79.4037 283.32 78.1831 283.026 76.9305C282.77 75.6645 282.277 74.5276 281.634 73.4902C280.966 72.4475 280.061 71.5897 278.963 70.9216C277.898 70.2545 276.513 69.9184 274.879 69.9184C273.499 69.9184 272.304 70.1853 271.274 70.7501C270.268 71.285 269.444 72.0394 268.776 72.9947C268.158 73.9362 267.65 75.0156 267.356 76.2373C267.029 77.4345 266.875 78.7159 266.875 80.0292V80.0292ZM262.026 80.968C262.026 79.1815 262.308 77.4729 262.938 75.8931C263.572 74.3054 264.429 72.9169 265.578 71.7112C266.716 70.5018 268.096 69.5491 269.729 68.8501C271.361 68.1569 273.186 67.8047 275.239 67.8047C277.051 67.8047 278.772 68.0791 280.356 68.6705C281.909 69.2625 283.294 70.0702 284.437 71.1241C285.64 72.1806 286.524 73.4407 287.184 74.9154C287.867 76.4041 288.199 78.0376 288.199 79.8113C288.199 80.9073 288.089 81.9489 287.898 82.8903C287.695 83.8675 287.439 84.7221 287.135 85.4968C286.814 86.2405 286.46 86.9348 286.063 87.5304C285.697 88.148 285.315 88.6371 284.949 89.0708C283.557 90.5903 281.958 91.6282 280.163 92.162C278.345 92.7076 276.513 92.9745 274.71 92.9745C272.788 92.9745 271.095 92.6586 269.519 92.047C267.954 91.4492 266.638 90.5978 265.529 89.5402C264.429 88.473 263.572 87.2028 262.938 85.745C262.308 84.2649 262.026 82.674 262.026 80.968V80.968Z" fill="#231F20"/>
<path d="M296.715 74.3989C296.639 74.2838 296.547 74.2161 296.459 74.2161C296.307 74.2161 296.23 74.368 296.23 74.6733V85.9978C296.23 86.1587 296.242 86.3564 296.258 86.634C296.273 86.8897 296.284 87.1566 296.307 87.4358C296.319 87.7028 296.35 87.9585 296.373 88.1983C296.394 88.4391 296.41 88.6181 296.41 88.7332C296.472 89.0875 296.555 89.3693 296.662 89.6608C296.753 89.9341 296.951 90.144 297.184 90.2783C297.364 90.4232 297.552 90.5143 297.719 90.5639C297.906 90.6022 298.067 90.6592 298.248 90.7173C298.38 90.7812 298.546 90.8319 298.752 90.8692C298.959 90.9187 299.203 90.9837 299.474 91.0333C299.867 91.1174 300.05 91.4297 300.05 91.9374C300.05 92.2699 299.943 92.4713 299.691 92.5293C299.409 92.6119 299.18 92.6519 298.924 92.6519H297.967C297.585 92.6519 297.349 92.6247 297.082 92.5592H292.144C291.614 92.5592 291.137 92.5863 290.66 92.6119C290.489 92.6119 290.341 92.491 290.187 92.2315C290.138 92.1388 290.115 92.0141 290.115 91.9374C290.115 91.5288 290.279 91.2394 290.573 91.1174C290.909 91.0098 291.234 90.9075 291.561 90.8505C291.98 90.8036 292.419 90.6406 292.892 90.3923C293.37 90.1637 293.621 89.8217 293.724 89.3619C293.839 89.0379 293.922 88.6836 293.946 88.2856C293.968 87.9052 293.999 87.5237 294.033 87.1566L294.083 86.3942C294.128 84.6994 294.19 82.9907 294.224 81.2922C294.285 79.6021 294.309 78.1076 294.309 76.7719V72.468C294.205 72.3455 294.083 72.1851 293.915 71.9576C293.724 71.728 293.518 71.4978 293.312 71.2698C293.098 71.0481 292.862 70.8286 292.583 70.6283C292.316 70.4184 292.057 70.2665 291.801 70.1786C291.539 70.0763 291.26 70.0379 290.927 70.0182C290.573 69.9996 290.306 69.95 290.031 69.8659C289.81 69.7897 289.689 69.7055 289.57 69.5424C289.493 69.3879 289.451 69.2558 289.451 69.1407C289.451 68.8727 289.588 68.6639 289.897 68.5307C290.18 68.4097 290.427 68.3207 290.564 68.3207H296.777C297.033 68.3207 297.272 68.4465 297.528 68.6532C297.784 68.8557 297.982 69.0571 298.173 69.2744L311.58 85.0889C311.641 85.2343 311.736 85.2801 311.797 85.2801C311.875 85.2801 311.897 85.2418 311.938 85.1453C311.97 85.0505 311.97 84.9823 311.97 84.929V77.7331C311.97 76.5237 311.962 75.482 311.908 74.5667C311.875 73.6812 311.771 72.7952 311.641 71.9256C311.588 71.5069 311.428 71.193 311.15 70.9805C310.859 70.7743 310.587 70.6096 310.268 70.4839C309.836 70.3305 309.458 70.2282 309.1 70.1525C308.745 70.0763 308.413 69.95 308.196 69.7588C308.084 69.6559 308.009 69.4769 308.009 69.2249C308.009 69.0336 308.077 68.8727 308.172 68.691C308.269 68.512 308.402 68.423 308.619 68.423H316.91C317.166 68.423 317.331 68.4998 317.467 68.6639C317.586 68.8269 317.639 69.0075 317.639 69.2249C317.639 69.5526 317.533 69.7822 317.296 69.9117C317.15 69.95 316.929 70.0108 316.731 70.0379C316.479 70.0635 316.251 70.1253 316.01 70.1786C315.59 70.2862 315.213 70.4839 314.877 70.7434C314.526 70.9917 314.366 71.3241 314.327 71.7551C314.29 72.0711 314.258 72.5442 314.228 73.166C314.228 73.7648 314.217 74.4063 314.19 75.0547C314.143 75.7031 314.121 76.294 314.098 76.878C314.087 77.439 314.075 77.8716 314.075 78.1385V79.8318C314.075 80.3198 314.068 80.892 314.053 81.5404C314.022 82.2075 314.011 83.0216 313.985 83.9902C313.985 84.9748 313.972 86.1385 313.956 87.4854V92.2315C313.956 92.8048 313.731 93.1016 313.282 93.1016H313.187C312.885 93.0707 312.672 92.995 312.534 92.8804C312.396 92.7579 312.251 92.6119 312.061 92.4217L296.715 74.3989V74.3989Z" fill="#231F20"/>
<path d="M0 121.556C0 121.45 0.0506096 121.319 0.136923 121.175C0.202457 121.03 0.385208 120.938 0.64468 120.889C0.927595 120.839 1.18707 120.802 1.38474 120.774C1.60585 120.763 1.83601 120.725 2.10987 120.709C2.47963 120.686 2.75509 120.527 2.89575 120.252C3.0476 119.962 3.13285 119.657 3.13285 119.324V105.729C3.13285 105.349 3.04759 105.006 2.84247 104.731C2.65119 104.456 2.41517 104.281 2.17062 104.235C2.10988 104.235 1.98414 104.227 1.83603 104.189C1.68258 104.167 1.5222 104.139 1.35757 104.121C1.18707 104.101 1.04162 104.081 0.911615 104.063C0.782145 104.036 0.686771 104.025 0.64468 104.025C0.385208 103.968 0.202457 103.884 0.136923 103.731C0.0506096 103.586 0 103.434 0 103.261C0.0506157 103.136 0.136935 103.006 0.255748 102.892C0.355914 102.791 0.575417 102.739 0.858332 102.739H8.65635C8.90197 102.739 9.14172 102.755 9.31381 102.804C9.47419 102.861 9.58021 103.014 9.58021 103.261V103.301C9.58021 103.441 9.47419 103.586 9.31381 103.693C9.14172 103.809 8.90197 103.884 8.65635 103.911C8.34147 103.949 7.99674 104.036 7.62591 104.121C7.2455 104.227 6.953 104.395 6.80222 104.662C6.68447 104.814 6.58591 105.055 6.57365 105.361C6.53636 105.647 6.51291 105.952 6.51291 106.227V119.221C6.51291 119.362 6.53262 119.527 6.56619 119.707C6.57365 119.908 6.62427 120.069 6.69726 120.183C6.73775 120.304 6.85497 120.443 7.0553 120.527C7.24551 120.633 7.40641 120.686 7.52096 120.709C7.68026 120.725 7.85609 120.737 8.03618 120.737H8.6068C8.91582 120.763 9.17529 120.839 9.35537 120.938C9.54931 121.054 9.64842 121.244 9.64842 121.525C9.64842 121.748 9.4742 121.931 9.1753 122.034C9.03837 122.071 8.88598 122.098 8.73307 122.098C8.15338 122.071 7.62591 122.053 7.11603 122.034C6.69725 121.994 6.29073 121.976 5.89912 121.969C5.50219 121.969 5.21076 121.958 5.03281 121.958C4.36947 121.958 3.79991 121.969 3.25006 121.969C2.73272 121.976 2.27292 121.994 1.88877 122.034C1.46893 122.053 1.06506 122.071 0.721409 122.098C0.469396 122.098 0.290378 122.044 0.186482 121.938C0.0607421 121.831 0 121.709 0 121.556V121.556Z" fill="#231F20"/>
<path d="M18.4433 107.649C18.3751 107.572 18.3027 107.508 18.2148 107.508C18.0922 107.508 18.0539 107.64 18.0539 107.87V116.836C18.0539 116.957 18.0629 117.122 18.0741 117.339C18.0848 117.542 18.0848 117.771 18.0922 117.981C18.1087 118.201 18.1295 118.4 18.1615 118.599C18.1876 118.762 18.2036 118.915 18.2036 119.012C18.227 119.259 18.3027 119.527 18.3901 119.735C18.4583 119.973 18.6074 120.117 18.7864 120.224C18.9399 120.339 19.0843 120.423 19.2217 120.46C19.3699 120.48 19.5047 120.529 19.6613 120.583C19.7567 120.632 19.8851 120.67 20.0199 120.697C20.2223 120.728 20.4003 120.774 20.6139 120.823C20.923 120.899 21.061 121.128 21.061 121.536C21.061 121.804 20.9917 121.956 20.778 122.018C20.5532 122.07 20.3816 122.109 20.1765 122.109H19.413C19.1573 122.109 18.9239 122.082 18.7263 122.045H14.8113C14.4111 122.045 14.0105 122.054 13.6365 122.07C13.4953 122.07 13.3807 121.979 13.2853 121.776C13.2326 121.7 13.2124 121.612 13.2124 121.536C13.2124 121.217 13.3312 120.987 13.5832 120.899C13.8352 120.805 14.0712 120.728 14.3541 120.689C14.6813 120.644 15.0398 120.506 15.4016 120.315C15.765 120.137 15.9786 119.869 16.0703 119.507C16.1502 119.239 16.2035 118.972 16.2381 118.649C16.2541 118.344 16.2914 118.049 16.3036 117.771L16.3441 117.171C16.3899 115.806 16.4219 114.463 16.4714 113.135C16.4976 111.781 16.5087 110.598 16.5087 109.541V106.123C16.4592 106.039 16.3441 105.893 16.2035 105.726C16.0703 105.542 15.8944 105.372 15.7463 105.192C15.5748 105.009 15.3792 104.824 15.1619 104.673C14.9557 104.505 14.742 104.391 14.5358 104.315C14.3493 104.245 14.0947 104.199 13.865 104.187C13.5832 104.169 13.3535 104.131 13.1287 104.073C12.9806 104.017 12.858 103.931 12.7813 103.807C12.7099 103.692 12.6812 103.596 12.6812 103.49C12.6812 103.272 12.8048 103.119 13.0371 103.016C13.2656 102.902 13.4446 102.852 13.5747 102.852H18.4705C18.673 102.852 18.8632 102.94 19.0459 103.101C19.267 103.261 19.4279 103.436 19.5835 103.596L30.1941 116.141C30.2559 116.226 30.3177 116.272 30.3476 116.272C30.4168 116.272 30.4536 116.232 30.4771 116.169C30.4994 116.08 30.5229 116.034 30.5229 115.989V110.293C30.5229 109.35 30.4994 108.518 30.4627 107.801C30.4355 107.099 30.3476 106.39 30.2559 105.694C30.2213 105.372 30.0796 105.122 29.8659 104.952C29.6187 104.779 29.3939 104.665 29.1765 104.558C28.8328 104.444 28.5132 104.351 28.2116 104.291C27.9436 104.245 27.715 104.131 27.5088 103.986C27.4332 103.894 27.3788 103.757 27.3788 103.567C27.3788 103.425 27.4332 103.272 27.4977 103.147C27.5701 102.994 27.7001 102.917 27.8408 102.917H34.4144C34.6206 102.917 34.7693 102.994 34.8454 103.119C34.9531 103.253 35.0026 103.399 35.0026 103.567C35.0026 103.819 34.8875 103.997 34.7469 104.112C34.6121 104.138 34.4378 104.177 34.2775 104.199C34.0761 104.238 33.9029 104.265 33.6967 104.315C33.3877 104.406 33.0952 104.55 32.8123 104.76C32.5219 104.962 32.3813 105.218 32.3775 105.573C32.3535 105.818 32.3317 106.184 32.3045 106.688C32.2933 107.164 32.2896 107.66 32.2672 108.175C32.2289 108.69 32.2054 109.16 32.1799 109.625C32.1708 110.075 32.1708 110.396 32.1708 110.61V111.971C32.1708 112.342 32.1633 112.799 32.1527 113.325C32.1399 113.84 32.1324 114.502 32.1181 115.263C32.0983 116.027 32.076 116.951 32.076 118.011C32.076 119.068 32.0648 120.339 32.0648 121.776C32.0648 122.235 31.9039 122.464 31.5533 122.464H31.4643C31.2517 122.445 31.0466 122.376 30.9576 122.273C30.8543 122.186 30.7019 122.07 30.5772 121.93L18.4433 107.649V107.649Z" fill="#231F20"/>
<path d="M35.6829 112.792C35.6829 111.456 35.9413 110.166 36.4043 108.946C36.8417 107.718 37.5301 106.61 38.3873 105.665C39.2345 104.711 40.2574 103.948 41.452 103.387C42.6603 102.815 43.9934 102.529 45.4314 102.529C46.6286 102.529 47.748 102.681 48.7742 102.955C49.8184 103.246 50.8265 103.712 51.8297 104.391C51.932 104.429 51.9816 104.466 52.0125 104.466C52.1729 104.466 52.2831 104.367 52.3103 104.2C52.3263 104.046 52.3556 103.863 52.3716 103.655C52.3854 103.452 52.394 103.321 52.394 103.272C52.4323 103.147 52.4707 103.005 52.5549 102.871C52.6412 102.739 52.7685 102.681 52.9092 102.681C53.0807 102.681 53.1958 102.7 53.329 102.749C53.443 102.802 53.4851 102.902 53.4851 103.061V108.755C53.4851 108.855 53.4851 109.015 53.4777 109.244C53.4628 109.465 53.443 109.655 53.402 109.746C53.3402 109.885 53.2784 110 53.2145 110.128C53.1537 110.265 53.0354 110.331 52.8596 110.331H52.8325C52.5655 110.331 52.379 110.228 52.2938 110.026C52.199 109.823 52.1654 109.606 52.1654 109.358C52.1126 109.083 52.0961 108.767 52.0583 108.411C52.0125 108.08 51.9677 107.801 51.8638 107.595C51.5554 107.076 51.1574 106.604 50.6853 106.222C50.2122 105.829 49.7193 105.504 49.1695 105.245C48.625 105.009 48.0442 104.81 47.4688 104.684C46.8422 104.55 46.2738 104.482 45.6871 104.466H45.2364C44.2593 104.466 43.4313 104.665 42.696 105.054C42.0082 105.459 41.3976 105.992 40.9629 106.668C40.5244 107.328 40.2047 108.092 39.9761 108.946C39.7731 109.786 39.6671 110.674 39.6671 111.562C39.6671 112.288 39.6969 112.964 39.7955 113.623C39.8722 114.279 39.9942 114.966 40.2047 115.671C40.3603 116.347 40.7034 117.085 41.1349 117.874C41.5548 118.649 42.1393 119.239 42.8522 119.659C43.4313 119.984 44.0318 120.213 44.6109 120.315C45.1831 120.454 45.8006 120.499 46.5002 120.499C47.0831 120.499 47.6627 120.442 48.227 120.289C49.0933 120.003 49.8712 119.622 50.6091 119.117C51.3561 118.622 51.9816 118.019 52.5091 117.339C52.6534 116.957 52.809 116.524 52.9625 116.035C53.134 115.559 53.2416 115.081 53.329 114.592C53.329 114.578 53.3663 114.489 53.4318 114.318C53.4851 114.146 53.6071 114.07 53.711 114.07H54.1868C54.4314 114.07 54.5683 114.25 54.5683 114.631L54.5315 114.986C54.5315 115.012 54.5278 115.157 54.5278 115.406C54.515 115.691 54.4735 115.959 54.4202 116.232L54.2939 117.378C54.2683 117.836 54.2337 118.333 54.1943 118.851C54.1644 119.363 54.1186 119.849 54.0877 120.289C54.0877 120.48 54.0728 120.607 54.0275 120.651C53.9582 120.697 53.8629 120.735 53.7531 120.785H53.4627C53.134 120.785 52.9278 120.682 52.8868 120.442C52.8708 120.403 52.8511 120.339 52.809 120.289C52.776 120.25 52.7227 120.224 52.6534 120.224C52.5783 120.224 52.5277 120.232 52.4707 120.262C51.5974 120.728 50.5931 121.194 49.487 121.663C48.3953 122.094 47.22 122.33 46.0036 122.33H45.6339C44.5347 122.33 43.4585 122.186 42.444 121.93C41.3902 121.674 40.5095 121.262 39.7422 120.719C38.5056 119.888 37.5173 118.79 36.7959 117.446C36.05 116.08 35.6829 114.546 35.6829 112.792V112.792Z" fill="#231F20"/>
<path d="M61.3701 112.107C61.3701 113.053 61.4852 114.035 61.6594 115.046C61.8779 116.057 62.2103 116.972 62.6749 117.811C63.163 118.631 63.8348 119.319 64.6591 119.871C65.463 120.416 66.4834 120.692 67.7376 120.692C69.2608 120.692 70.474 120.462 71.3339 120.005C72.2445 119.555 72.9163 118.967 73.3623 118.211C73.8578 117.469 74.1247 116.602 74.3048 115.611C74.4257 114.626 74.495 113.603 74.495 112.535C74.495 111.61 74.3927 110.649 74.1519 109.657C73.934 108.654 73.5674 107.75 73.0447 106.937C72.5221 106.109 71.8156 105.43 70.9583 104.896C70.092 104.362 69.0125 104.114 67.6955 104.114C66.6086 104.114 65.6671 104.324 64.853 104.763C64.0362 105.201 63.3926 105.793 62.8811 106.537C62.3473 107.28 61.977 108.132 61.741 109.113C61.4852 110.066 61.3701 111.07 61.3701 112.107V112.107ZM57.5244 112.851C57.5244 111.44 57.7567 110.093 58.2645 108.833C58.7376 107.587 59.4244 106.48 60.3328 105.515C61.2481 104.573 62.3313 103.821 63.6446 103.263C64.9185 102.713 66.3763 102.416 67.9832 102.416C69.4212 102.416 70.7851 102.652 72.0303 103.122C73.2669 103.592 74.3655 104.24 75.2697 105.056C76.2122 105.888 76.9336 106.9 77.4552 108.071C77.9779 109.246 78.2112 110.523 78.2112 111.935C78.2112 112.814 78.1505 113.633 78.005 114.378C77.8527 115.141 77.6539 115.827 77.3673 116.426C77.1574 117.036 76.8718 117.582 76.5473 118.052C76.2729 118.516 75.9676 118.929 75.6698 119.25C74.5941 120.471 73.3069 121.295 71.8848 121.722C70.4617 122.15 69.0125 122.371 67.5585 122.371C66.0747 122.371 64.7006 122.122 63.4608 121.638C62.2439 121.142 61.1799 120.482 60.2944 119.642C59.4206 118.784 58.7376 117.8 58.2645 116.618C57.7567 115.472 57.5244 114.206 57.5244 112.851V112.851Z" fill="#231F20"/>
<path d="M85.5926 111.529C85.5926 111.629 85.6038 111.742 85.6459 111.834C85.6571 111.971 85.7114 112.017 85.7882 112.017H87.1494C87.6188 112.017 88.1538 111.979 88.7372 111.856C89.2743 111.757 89.7127 111.642 89.9844 111.529C90.327 111.36 90.668 111.132 91.0026 110.835C91.2818 110.537 91.5179 110.261 91.6622 109.994C91.7736 109.728 91.9159 109.46 91.9798 109.174C92.0331 108.896 92.0442 108.553 92.0442 108.134C92.0442 107.637 91.9451 107.164 91.7017 106.684C91.4955 106.21 91.1902 105.817 90.9073 105.501C90.0676 104.661 88.8555 104.234 87.3519 104.234H86.2069C86.0769 104.234 85.9624 104.28 85.8175 104.348C85.6693 104.444 85.5926 104.654 85.5926 104.977V111.529V111.529ZM79.0265 121.46C79.0265 121.116 79.255 120.926 79.637 120.861C79.694 120.831 79.7974 120.8 79.8965 120.793C80.0643 120.786 80.2018 120.762 80.3424 120.736C80.514 120.716 80.6749 120.685 80.8278 120.64C81.2317 120.572 81.5482 120.457 81.8076 120.303C82.1513 120.075 82.3314 119.83 82.3314 119.525V107.001C82.3314 106.745 82.3314 106.486 82.3154 106.226C82.2994 105.971 82.2366 105.703 82.1177 105.436C82.0027 105.206 81.8695 104.978 81.5903 104.767C81.3542 104.546 81.107 104.418 80.8278 104.379C80.5721 104.317 80.3425 104.29 80.1522 104.28C79.9263 104.28 79.7558 104.253 79.5528 104.234C79.3024 104.215 79.1453 104.138 79.0797 104.034C79.0264 103.928 79.0195 103.795 79.0195 103.669C79.0195 103.547 79.0265 103.413 79.133 103.26C79.1986 103.135 79.3701 103.044 79.6605 103.021C80.0766 103.005 80.6376 102.982 81.3542 102.982H83.422C84.0475 102.982 84.7465 102.955 85.5164 102.891C86.2959 102.83 86.9246 102.803 87.3967 102.803H87.8016C88.7713 102.803 89.7895 102.891 90.7853 103.07C91.8503 103.249 92.7694 103.585 93.6474 104.062C94.364 104.455 94.9672 104.997 95.4328 105.665C95.9059 106.339 96.1393 107.191 96.1393 108.193C96.1393 108.819 96.012 109.415 95.7344 109.939C95.4787 110.483 95.1462 110.949 94.7077 111.324C94.3273 111.72 93.8345 112.025 93.2969 112.276C92.7198 112.506 92.1588 112.647 91.6164 112.704C91.5797 112.704 91.5599 112.722 91.5599 112.78C91.5599 112.818 91.5797 112.864 91.6164 112.926C91.8759 113.054 92.227 113.295 92.6927 113.611C93.1397 113.924 93.5638 114.314 93.9069 114.773C94.079 114.963 94.2948 115.242 94.6161 115.611C94.9373 116.004 95.2341 116.397 95.5389 116.786C95.8937 117.245 96.2715 117.733 96.6684 118.243C96.8634 118.534 97.1079 118.828 97.3861 119.083C97.6764 119.373 97.8922 119.553 98.0308 119.686C98.2135 119.83 98.4165 119.923 98.6077 119.991C98.8054 120.068 99.0191 120.097 99.1907 120.097C99.7059 120.097 100.117 119.991 100.369 119.781L100.66 119.565C101.045 119.565 101.229 119.723 101.229 120.03C101.229 120.658 100.919 121.173 100.298 121.601C99.6878 122.033 98.8598 122.235 97.8368 122.235C97.5342 122.235 97.1303 122.204 96.6684 122.158C96.1617 122.089 95.776 121.984 95.5389 121.853C95.0892 121.575 94.6496 121.25 94.242 120.861C93.8233 120.448 93.429 120.011 93.0709 119.553C92.7039 119.083 92.3618 118.617 92.0442 118.153C91.724 117.671 91.4646 117.245 91.1976 116.871L90.862 116.29C90.6483 115.915 90.3889 115.547 90.1331 115.177C89.8241 114.81 89.5881 114.49 89.2508 114.172C88.9162 113.887 88.5837 113.639 88.222 113.467C87.8485 113.295 87.4201 113.192 86.9816 113.192H85.8633C85.7349 113.192 85.6571 113.246 85.6459 113.345C85.6038 113.429 85.5926 113.543 85.5926 113.627V117.76C85.5926 118.122 85.6459 118.503 85.7114 118.961C85.7882 119.418 85.8755 119.723 86.0007 119.884C86.2959 120.289 86.622 120.526 87.0418 120.609C87.3098 120.658 87.5693 120.698 87.8586 120.736C88.1676 120.793 88.3317 120.838 88.4505 120.888C88.6493 120.937 88.847 120.991 89.0691 121.098C89.2705 121.205 89.3819 121.365 89.3819 121.651C89.3819 122.043 89.1149 122.235 88.5726 122.235C88.5124 122.235 88.3317 122.224 88.092 122.204C87.8362 122.174 87.646 122.174 87.5272 122.174H80.099C80.0372 122.174 79.9263 122.165 79.7889 122.158C79.637 122.136 79.5145 122.128 79.4383 122.097C79.312 122.051 79.2097 121.968 79.1554 121.83C79.0686 121.708 79.0265 121.564 79.0265 121.46V121.46Z" fill="#231F20"/>
<path d="M107.025 104.304C106.827 104.304 106.697 104.357 106.609 104.483C106.498 104.597 106.423 104.731 106.423 104.876V112.484C106.423 112.609 106.491 112.697 106.56 112.736C106.642 112.788 106.697 112.819 106.766 112.838C106.911 112.896 107.125 112.927 107.404 112.933C107.681 112.942 107.932 112.953 108.2 112.953C108.444 112.953 108.635 112.942 108.842 112.933C109.039 112.927 109.169 112.927 109.272 112.927C109.638 112.865 110.055 112.763 110.459 112.609C110.898 112.457 111.257 112.266 111.622 112.026C111.955 111.82 112.309 111.552 112.565 111.263C112.87 110.98 113.058 110.636 113.187 110.282C113.317 109.71 113.377 109.233 113.377 108.821C113.325 107.547 112.885 106.493 112.039 105.684C111.162 104.883 110.124 104.456 108.949 104.38C108.69 104.318 108.405 104.304 108.063 104.304H107.025V104.304ZM100.501 121.958C100.256 121.861 100.157 121.69 100.157 121.423C100.157 121.156 100.252 120.977 100.47 120.889C100.684 120.794 100.889 120.717 101.092 120.679C101.141 120.679 101.282 120.672 101.565 120.641C101.828 120.622 102.008 120.596 102.156 120.527C102.352 120.458 102.576 120.354 102.756 120.213C102.988 120.069 103.065 119.822 103.065 119.427V105.158C103.065 104.967 102.962 104.777 102.733 104.609C102.508 104.426 102.294 104.304 102.11 104.235C101.779 104.114 101.486 104.025 101.203 103.937C100.92 103.884 100.737 103.822 100.619 103.796C100.275 103.769 100.12 103.566 100.12 103.235C100.12 102.899 100.252 102.739 100.547 102.739L100.761 102.778H108.657C108.776 102.778 108.925 102.778 109.119 102.791C109.307 102.804 109.505 102.804 109.734 102.804C109.993 102.831 110.249 102.853 110.493 102.861C110.757 102.861 110.898 102.87 110.936 102.87C111.677 102.983 112.412 103.186 113.187 103.491C113.939 103.816 114.625 104.235 115.258 104.731C115.868 105.227 116.364 105.818 116.751 106.516C117.167 107.192 117.361 107.974 117.361 108.821C117.361 109.004 117.335 109.264 117.281 109.584C117.254 109.913 117.204 110.195 117.105 110.472C116.85 111.057 116.479 111.568 115.999 112.01C115.534 112.445 114.979 112.819 114.407 113.124C113.787 113.399 113.168 113.64 112.481 113.803C111.801 113.983 111.138 114.071 110.44 114.098H109.894C109.238 114.098 108.483 114.06 107.751 113.983L106.663 113.881H106.609C106.423 113.881 106.373 113.925 106.373 114.06V118.589L106.423 119.458C106.525 119.694 106.651 119.908 106.8 120.069C106.98 120.239 107.17 120.374 107.404 120.469C107.627 120.596 107.857 120.672 108.1 120.709C108.323 120.763 108.559 120.794 108.711 120.812H109.001C109.123 120.812 109.268 120.832 109.383 120.862C109.622 120.862 109.868 120.908 110.108 121.004C110.325 121.106 110.44 121.319 110.44 121.556C110.44 121.69 110.413 121.804 110.387 121.919C110.311 122.044 110.173 122.098 109.894 122.098H101.039C100.901 122.098 100.721 122.053 100.501 121.958V121.958Z" fill="#231F20"/>
<path d="M124.076 112.107C124.076 113.053 124.168 114.035 124.385 115.046C124.564 116.057 124.918 116.972 125.399 117.811C125.841 118.631 126.525 119.319 127.364 119.871C128.161 120.416 129.211 120.692 130.447 120.692C131.973 120.692 133.163 120.462 134.021 120.005C134.952 119.555 135.639 118.967 136.094 118.211C136.558 117.469 136.83 116.602 137.013 115.611C137.139 114.626 137.192 113.603 137.192 112.535C137.192 111.61 137.112 110.649 136.85 109.657C136.644 108.654 136.273 107.75 135.758 106.937C135.224 106.109 134.534 105.43 133.675 104.896C132.817 104.362 131.713 104.114 130.401 104.114C129.318 104.114 128.386 104.324 127.558 104.763C126.754 105.201 126.12 105.793 125.606 106.537C125.078 107.28 124.712 108.132 124.456 109.113C124.19 110.066 124.076 111.07 124.076 112.107V112.107ZM120.229 112.851C120.229 111.44 120.478 110.093 120.969 108.833C121.458 107.587 122.153 106.48 123.033 105.515C123.953 104.573 125.037 103.821 126.335 103.263C127.624 102.713 129.081 102.416 130.714 102.416C132.13 102.416 133.492 102.652 134.736 103.122C135.983 103.592 137.09 104.24 138.001 105.056C138.917 105.888 139.65 106.9 140.164 108.071C140.68 109.246 140.962 110.523 140.962 111.935C140.962 112.814 140.873 113.633 140.703 114.378C140.565 115.141 140.352 115.827 140.103 116.426C139.879 117.036 139.596 117.582 139.26 118.052C138.977 118.516 138.658 118.929 138.387 119.25C137.28 120.471 136.026 121.295 134.583 121.722C133.16 122.15 131.713 122.371 130.271 122.371C128.795 122.371 127.421 122.122 126.181 121.638C124.942 121.142 123.892 120.482 123.01 119.642C122.144 118.784 121.458 117.8 120.969 116.618C120.478 115.472 120.229 114.206 120.229 112.851V112.851Z" fill="#231F20"/>
<path d="M148.303 111.529C148.303 111.629 148.33 111.742 148.344 111.834C148.38 111.971 148.422 112.017 148.5 112.017H149.836C150.293 112.017 150.858 111.979 151.42 111.856C152.027 111.757 152.439 111.642 152.69 111.529C153.04 111.36 153.384 111.132 153.697 110.835C154.018 110.537 154.215 110.261 154.376 109.994C154.513 109.728 154.602 109.46 154.681 109.174C154.719 108.896 154.75 108.553 154.75 108.134C154.75 107.637 154.636 107.164 154.414 106.684C154.193 106.21 153.934 105.817 153.621 105.501C152.755 104.661 151.573 104.234 150.05 104.234H148.92C148.787 104.234 148.672 104.28 148.531 104.348C148.393 104.444 148.303 104.654 148.303 104.977V111.529V111.529ZM141.755 121.46C141.755 121.116 141.957 120.926 142.343 120.861C142.404 120.831 142.518 120.8 142.617 120.793C142.763 120.786 142.923 120.762 143.029 120.736C143.204 120.716 143.381 120.685 143.548 120.64C143.953 120.572 144.266 120.457 144.503 120.303C144.868 120.075 145.059 119.83 145.059 119.525V107.001C145.059 106.745 145.047 106.486 145.029 106.226C145.022 105.971 144.945 105.703 144.823 105.436C144.724 105.206 144.552 104.978 144.322 104.767C144.076 104.546 143.803 104.418 143.548 104.379C143.27 104.317 143.036 104.29 142.859 104.28C142.625 104.28 142.453 104.253 142.24 104.234C142.006 104.215 141.854 104.138 141.786 104.034C141.747 103.928 141.724 103.795 141.724 103.669C141.724 103.547 141.755 103.413 141.828 103.26C141.903 103.135 142.088 103.044 142.377 103.021C142.773 103.005 143.332 102.982 144.067 102.982H146.127C146.745 102.982 147.47 102.955 148.226 102.891C149.016 102.83 149.642 102.803 150.133 102.803H150.489C151.484 102.803 152.488 102.891 153.53 103.07C154.559 103.249 155.501 103.585 156.342 104.062C157.04 104.455 157.665 104.997 158.147 105.665C158.612 106.339 158.859 107.191 158.859 108.193C158.859 108.819 158.707 109.415 158.463 109.939C158.199 110.483 157.855 110.949 157.432 111.324C157.025 111.72 156.57 112.025 155.998 112.276C155.436 112.506 154.911 112.647 154.33 112.704C154.277 112.704 154.254 112.722 154.254 112.78C154.254 112.818 154.277 112.864 154.33 112.926C154.586 113.054 154.944 113.295 155.383 113.611C155.834 113.924 156.25 114.314 156.597 114.773C156.773 114.963 157.001 115.242 157.307 115.611C157.628 116.004 157.933 116.397 158.238 116.786C158.603 117.245 158.963 117.733 159.394 118.243C159.574 118.534 159.824 118.828 160.103 119.083C160.363 119.373 160.587 119.553 160.73 119.686C160.931 119.83 161.11 119.923 161.32 119.991C161.518 120.068 161.721 120.097 161.916 120.097C162.424 120.097 162.808 119.991 163.076 119.781L163.359 119.565C163.732 119.565 163.933 119.723 163.933 120.03C163.933 120.658 163.624 121.173 163.014 121.601C162.408 122.033 161.564 122.235 160.558 122.235C160.26 122.235 159.856 122.204 159.374 122.158C158.885 122.089 158.505 121.984 158.238 121.853C157.788 121.575 157.349 121.25 156.952 120.861C156.544 120.448 156.132 120.011 155.781 119.553C155.399 119.083 155.048 118.617 154.75 118.153C154.454 117.671 154.19 117.245 153.939 116.871L153.594 116.29C153.346 115.915 153.086 115.547 152.843 115.177C152.583 114.81 152.271 114.49 151.966 114.172C151.637 113.887 151.294 113.639 150.919 113.467C150.565 113.295 150.157 113.192 149.702 113.192H148.577C148.439 113.192 148.38 113.246 148.344 113.345C148.33 113.429 148.303 113.543 148.303 113.627V117.76C148.303 118.122 148.344 118.503 148.422 118.961C148.5 119.418 148.592 119.723 148.689 119.884C148.997 120.289 149.348 120.526 149.768 120.609C149.997 120.658 150.256 120.698 150.585 120.736C150.866 120.793 151.064 120.838 151.163 120.888C151.339 120.937 151.546 120.991 151.763 121.098C152.003 121.205 152.094 121.365 152.094 121.651C152.094 122.043 151.802 122.235 151.264 122.235C151.217 122.235 151.064 122.224 150.821 122.204C150.552 122.174 150.339 122.174 150.221 122.174H142.817C142.74 122.174 142.625 122.165 142.508 122.158C142.343 122.136 142.212 122.128 142.148 122.097C142.022 122.051 141.916 121.968 141.861 121.83C141.786 121.708 141.755 121.564 141.755 121.46V121.46Z" fill="#231F20"/>
<path d="M169.384 112.315C169.278 112.506 169.254 112.658 169.254 112.792C169.254 112.976 169.338 113.066 169.559 113.066H174.019C174.062 113.066 174.13 113.051 174.275 113.013C174.413 112.983 174.462 112.875 174.462 112.715C174.462 112.658 174.446 112.601 174.413 112.494L172.303 107.47C172.237 107.305 172.146 107.228 171.994 107.228C171.879 107.228 171.788 107.289 171.726 107.42L169.384 112.315ZM174.755 121.612C174.755 121.345 174.859 121.155 175.073 121.041C175.251 120.949 175.457 120.872 175.671 120.805C175.908 120.748 176.205 120.67 176.485 120.538C176.693 120.492 176.854 120.384 177.046 120.213C177.236 120.022 177.323 119.842 177.323 119.622C177.323 119.537 177.285 119.469 177.262 119.372L175.896 116.34C175.802 116.141 175.657 115.874 175.48 115.576C175.305 115.279 175.049 115.119 174.718 115.119H168.472C168.318 115.119 168.17 115.254 168.101 115.494L166.274 119.117C166.221 119.232 166.186 119.385 166.144 119.537C166.094 119.705 166.068 119.849 166.068 119.934V120.003C166.163 120.289 166.355 120.48 166.618 120.556C166.908 120.644 167.14 120.709 167.415 120.748C167.721 120.823 168.01 120.912 168.353 120.995C168.686 121.109 168.85 121.27 168.85 121.536C168.85 121.674 168.781 121.815 168.673 121.948C168.549 122.07 168.395 122.147 168.231 122.147L167.415 122.186C167.271 122.186 167.065 122.177 166.884 122.17C166.652 122.147 166.438 122.14 166.171 122.109C165.863 122.063 165.545 122.032 165.174 121.995C164.798 121.979 164.446 121.968 164.111 121.968C163.793 121.968 163.378 121.979 162.92 122.018C162.443 122.054 162.05 122.094 161.734 122.147H161.577C161.108 122.147 160.829 122.082 160.727 121.968C160.628 121.853 160.585 121.727 160.585 121.612C160.585 121.231 160.711 120.987 160.937 120.872C161.131 120.735 161.391 120.651 161.639 120.583C162.279 120.442 162.841 120.137 163.287 119.697C163.333 119.622 163.415 119.527 163.512 119.412C163.612 119.278 163.718 119.068 163.913 118.79C164.073 118.507 164.294 118.126 164.564 117.607C164.847 117.096 165.202 116.416 165.636 115.576C166.094 114.739 166.641 113.689 167.312 112.456C167.938 111.235 168.728 109.74 169.621 108.014C170.074 107.191 170.506 106.344 170.931 105.486C171.397 104.634 171.852 103.856 172.267 103.147C172.306 103.061 172.367 103.005 172.42 102.94C172.516 102.871 172.627 102.852 172.772 102.852C172.871 102.852 173.024 102.91 173.165 103.032C173.321 103.158 173.45 103.272 173.504 103.425C173.829 104.112 174.168 104.81 174.481 105.542C174.817 106.267 175.148 106.984 175.493 107.698C175.568 107.862 175.771 108.155 175.962 108.595C176.189 109.034 176.423 109.541 176.693 110.128C176.969 110.701 177.282 111.343 177.606 112.037C177.908 112.746 178.228 113.44 178.533 114.127C179.269 115.775 180.112 117.554 181.024 119.507C181.368 119.984 181.699 120.301 182.035 120.468C182.119 120.506 182.264 120.583 182.508 120.651C182.753 120.719 182.905 120.748 182.936 120.748C183.34 120.899 183.554 121.139 183.554 121.499C183.528 121.72 183.416 121.88 183.272 121.979C183.097 122.094 182.914 122.147 182.775 122.147C182.654 122.147 182.386 122.14 181.993 122.109C181.597 122.082 181.211 122.063 180.8 122.045C180.338 122.005 179.792 121.987 179.205 121.968C178.697 121.968 178.151 121.987 177.606 122.045C177.003 122.082 176.594 122.14 176.35 122.186C176.232 122.208 176.144 122.215 176.054 122.235C175.969 122.246 175.884 122.246 175.771 122.246C175.51 122.246 175.283 122.215 175.073 122.147C174.859 122.07 174.755 121.891 174.755 121.612V121.612Z" fill="#231F20"/>
<path d="M185.788 121.499C185.788 121.376 185.826 121.254 185.936 121.117C186.024 120.995 186.215 120.912 186.497 120.872C186.665 120.843 186.794 120.823 187.019 120.823C187.192 120.823 187.42 120.812 187.681 120.785C188.779 120.719 189.434 120.059 189.526 118.79V105.627C189.526 105.458 189.477 105.372 189.371 105.332C189.252 105.283 189.138 105.276 189.047 105.276H185.132C184.845 105.276 184.643 105.359 184.502 105.504C184.33 105.657 184.209 105.79 184.102 105.917L181.63 108.703C181.297 109.121 180.957 109.339 180.625 109.339C180.419 109.339 180.324 109.16 180.324 108.831C180.324 108.785 180.324 108.747 180.332 108.71C180.343 108.679 180.343 108.625 180.343 108.575L181.666 103.452C181.774 103.056 182.033 102.852 182.522 102.852H199.766C200.088 102.852 200.294 102.917 200.431 103.061C200.565 103.215 200.659 103.367 200.714 103.528L201.558 108.755C201.58 108.831 201.594 108.93 201.594 109.034C201.594 109.339 201.5 109.472 201.27 109.472C201.163 109.472 201.088 109.453 200.984 109.377C200.858 109.339 200.736 109.205 200.614 109.007C200.095 108.365 199.649 107.787 199.244 107.252C198.92 106.724 198.516 106.209 198.104 105.74C197.912 105.513 197.707 105.398 197.492 105.352C197.302 105.294 197.055 105.276 196.787 105.276H193.735C193.503 105.276 193.342 105.283 193.213 105.332C193.083 105.372 193.029 105.458 193.029 105.627V119.334C193.029 119.735 193.189 120.049 193.598 120.278C193.984 120.499 194.403 120.644 194.919 120.69L196.077 120.748C196.291 120.748 196.481 120.805 196.616 120.918C196.749 121.015 196.825 121.217 196.825 121.472C196.825 121.674 196.7 121.815 196.569 121.93C196.349 122.055 196.09 122.109 195.794 122.109H186.731C186.471 122.109 186.23 122.071 186.054 121.995C185.875 121.93 185.788 121.758 185.788 121.499V121.499Z" fill="#231F20"/>
<path d="M204.358 121.994C204.301 121.929 204.262 121.841 204.262 121.719C204.262 121.328 204.487 121.108 204.907 121.108C205.244 121.07 205.594 120.994 205.945 120.937C206.281 120.871 206.579 120.718 206.743 120.498C207.098 120.058 207.303 119.162 207.303 117.808V106.191C207.303 105.656 207.223 105.244 207.098 105.008C207.01 104.759 206.838 104.556 206.678 104.416C206.609 104.321 206.448 104.264 206.265 104.198C206.11 104.149 205.931 104.123 205.724 104.11C205.525 104.072 205.335 104.072 205.162 104.045C204.95 104.034 204.831 104.016 204.671 103.985C204.571 103.946 204.442 103.893 204.301 103.806C204.152 103.74 204.091 103.634 204.091 103.489C204.091 103.168 204.288 102.993 204.671 102.993C204.95 102.993 205.205 102.993 205.441 102.954C205.635 102.939 205.808 102.916 206.022 102.916H219.284C219.383 102.916 219.58 102.966 219.868 103.043C220.145 103.13 220.292 103.385 220.344 103.779L220.669 107.8C220.669 107.907 220.643 108.022 220.603 108.128C220.554 108.243 220.463 108.307 220.269 108.307C220.077 108.307 219.886 108.174 219.768 107.915C219.626 107.671 219.523 107.457 219.37 107.297L218.036 105.381C217.887 105.152 217.635 104.988 217.329 104.893C217.055 104.808 216.892 104.778 216.872 104.778C216.025 104.701 215.044 104.672 213.915 104.672H212.736C212.369 104.672 211.947 104.672 211.576 104.701C211.309 104.701 211.096 104.816 210.988 105.053C210.889 105.293 210.814 105.548 210.814 105.801V110.482C210.814 110.597 210.824 110.7 210.847 110.845C210.889 110.989 210.935 111.035 211.053 111.035H215.228C215.72 111.035 216.091 110.921 216.395 110.7C216.689 110.482 216.892 110.127 216.925 109.654C216.925 109.555 216.934 109.425 216.967 109.261C216.995 109.097 217.021 108.956 217.033 108.83C217.07 108.784 217.099 108.678 217.158 108.499C217.223 108.327 217.349 108.219 217.567 108.219C217.986 108.219 218.188 108.471 218.188 108.945V111.932C218.188 112.188 218.2 112.447 218.212 112.707C218.223 112.943 218.231 113.126 218.231 113.202C218.245 113.611 218.277 113.943 218.29 114.232C218.319 114.528 218.323 114.832 218.323 115.175C218.323 115.308 218.299 115.454 218.245 115.584C218.169 115.736 218.036 115.805 217.879 115.805C217.62 115.805 217.449 115.728 217.311 115.575C217.193 115.416 217.132 115.233 217.132 115.023C217.116 114.813 217.094 114.591 217.083 114.363C217.063 114.133 217.029 113.927 217.01 113.753C216.987 113.408 216.892 113.165 216.701 113.001C216.567 112.829 216.346 112.714 216.127 112.637C215.904 112.569 215.659 112.531 215.389 112.531C215.097 112.531 214.865 112.516 214.629 112.493H211.344C211.02 112.493 210.814 112.723 210.729 113.172V117.235C210.729 117.681 210.752 118.094 210.798 118.456C210.84 118.838 210.913 119.181 211.028 119.506C211.112 119.753 211.322 120.002 211.611 120.212C211.881 120.413 212.248 120.498 212.718 120.498H215.583C215.85 120.498 216.177 120.478 216.514 120.421C216.856 120.352 217.139 120.277 217.483 120.173C217.781 120.078 218.036 119.933 218.29 119.792C218.533 119.658 218.723 119.506 218.849 119.371C218.933 119.258 219.048 119.181 219.131 119.067C219.192 118.979 219.284 118.887 219.348 118.788C219.436 118.704 219.535 118.609 219.584 118.476L221.1 116.408C221.184 116.254 221.367 116.168 221.569 116.168C221.686 116.168 221.802 116.218 221.836 116.32C221.878 116.423 221.913 116.56 221.913 116.7V117.055L220.238 121.356C220.207 121.482 220.112 121.635 219.929 121.802C219.79 121.978 219.58 122.081 219.348 122.108H204.968C204.633 122.108 204.442 122.069 204.358 121.994V121.994Z" fill="#231F20"/>
<path d="M230.476 119.441C230.476 119.746 230.649 119.998 230.898 120.177C231.137 120.349 231.481 120.483 231.866 120.559C232.259 120.647 232.692 120.693 233.138 120.7C233.602 120.723 234.038 120.723 234.406 120.723H235.128C236.105 120.723 236.974 120.541 237.747 120.197C238.563 119.845 239.187 119.337 239.764 118.701C240.34 118.053 240.768 117.278 241.05 116.39C241.35 115.484 241.504 114.492 241.504 113.398V112.497C241.504 111.125 241.198 109.85 240.615 108.655C240.038 107.462 239.15 106.481 237.959 105.668C237.612 105.431 237.283 105.233 237.001 105.08C236.681 104.928 236.372 104.802 236.089 104.706C235.761 104.61 235.456 104.546 235.114 104.515C234.751 104.486 234.373 104.47 233.933 104.47C233.388 104.47 232.827 104.486 232.259 104.546C231.694 104.592 231.259 104.676 230.985 104.745C230.918 104.745 230.832 104.82 230.688 104.992C230.565 105.165 230.476 105.375 230.476 105.631V119.441V119.441ZM228.13 121.971C227.669 121.971 227.185 121.983 226.738 121.999C226.269 122.035 225.842 122.058 225.438 122.074C225.254 122.097 225.041 122.112 224.781 122.112H224.094C223.827 122.112 223.666 121.944 223.556 121.615V121.502C223.556 121.228 223.728 121.005 224.094 120.903C224.461 120.777 224.819 120.693 225.232 120.623C225.415 120.559 225.567 120.541 225.651 120.541C225.708 120.541 225.781 120.532 225.812 120.502C226.185 120.463 226.407 120.311 226.552 120.09C226.689 119.872 226.777 119.593 226.818 119.251C226.872 118.855 226.906 118.442 226.918 117.984C226.929 117.525 226.941 117.106 226.941 116.705V105.45C226.941 105.348 226.918 105.202 226.906 105.05C226.872 104.889 226.811 104.753 226.723 104.637C226.624 104.522 226.482 104.432 226.407 104.394C226.254 104.332 226.185 104.318 226.124 104.318H225.797C225.67 104.318 225.537 104.305 225.402 104.287C225.278 104.287 225.179 104.279 225.083 104.268C224.956 104.256 224.88 104.249 224.858 104.249C224.614 104.19 224.395 104.128 224.22 104.013C224.049 103.905 223.935 103.715 223.935 103.455C223.935 103.212 224.01 103.035 224.133 102.959C224.277 102.883 224.461 102.838 224.739 102.792H232.29C232.575 102.792 232.82 102.768 233.092 102.752C233.366 102.723 233.702 102.723 234.022 102.723L234.904 102.752C235.396 102.752 235.918 102.792 236.51 102.874C237.077 102.959 237.639 103.074 238.226 103.249C238.807 103.417 239.417 103.607 239.959 103.859C240.513 104.095 241.019 104.363 241.454 104.676C242.016 105.096 242.554 105.602 243.069 106.187C243.561 106.766 244.003 107.396 244.366 108.072C244.721 108.75 245.018 109.468 245.216 110.231C245.396 110.994 245.525 111.765 245.525 112.536V112.967C245.368 114.532 244.976 115.904 244.308 117.088C243.614 118.281 242.791 119.262 241.79 120.083C240.794 120.864 239.676 121.464 238.439 121.883C237.232 122.287 235.983 122.505 234.724 122.505C233.949 122.505 233.262 122.467 232.612 122.39C231.908 122.333 231.297 122.25 230.688 122.189C230.211 122.143 229.763 122.085 229.345 122.048C228.894 121.99 228.517 121.971 228.13 121.971V121.971Z" fill="#231F20"/>
</svg>
