<svg xmlns="http://www.w3.org/2000/svg" viewBox="0 0 489.46 121.54"><defs><style>.cls-1{fill:#231f20;}</style></defs><g id="Layer_2" data-name="Layer 2"><g id="Layer_1-2" data-name="Layer 1"><path class="cls-1" d="M42.61,29.54a11.74,11.74,0,0,0-1.48-5.33l4.47-2.57a16.75,16.75,0,0,1,2.16,7.9ZM16.17,21.62l4.46,2.58a11.77,11.77,0,0,0-1.47,5.34H14a16.75,16.75,0,0,1,2.17-7.92ZM18.94,18a16.45,16.45,0,0,1,3.33-2.59l2.58,4.46a11.81,11.81,0,0,0-4,4L16.4,21.23A16.35,16.35,0,0,1,18.94,18Zm17,8.73A5.86,5.86,0,0,0,34,24.85l2.66-4.6a11.32,11.32,0,0,1,3.82,3.8l-4.6,2.66Zm.23.38,4.59-2.65a11.31,11.31,0,0,1,1.42,5.1H36.84a5.83,5.83,0,0,0-.69-2.45Zm-.39.23a5.38,5.38,0,0,1,.63,2.22H31.9ZM26,27.3l3.88,2.24H25.36A5.7,5.7,0,0,1,26,27.3Zm1.72-2.46a5.93,5.93,0,0,0-1.88,1.85L21.25,24a11.23,11.23,0,0,1,3.83-3.8l2.65,4.6Zm2.93-6.2V24a5.74,5.74,0,0,0-2.54.67L25.46,20a11.16,11.16,0,0,1,5.2-1.38Zm0-.45a11.58,11.58,0,0,0-5.42,1.44l-2.58-4.47a16.92,16.92,0,0,1,8-2.13v5.16Zm.45,0V13a16.75,16.75,0,0,1,8,2.14l-2.58,4.47a11.65,11.65,0,0,0-5.42-1.45Zm0,5.76V18.64A11.25,11.25,0,0,1,36.31,20l-2.65,4.61A5.8,5.8,0,0,0,31.11,24Zm2.71,1.29a5.57,5.57,0,0,1,1,.77,5.43,5.43,0,0,1,.74.92l-4,2.33ZM31.11,29V24.39a5.63,5.63,0,0,1,2.32.62Zm-.84.21-4-2.33A5.23,5.23,0,0,1,27,26a5.6,5.6,0,0,1,1-.78l2.32,4Zm.39-.21-2.32-4a5.66,5.66,0,0,1,2.32-.61Zm-11.06.51A11.27,11.27,0,0,1,21,24.42l4.6,2.66a5.7,5.7,0,0,0-.7,2.46Zm25.77-8.29-4.46,2.58a11.84,11.84,0,0,0-4-4L39.5,15.4A17,17,0,0,1,42.82,18,16.53,16.53,0,0,1,45.37,21.25Zm-14.49-9A17.64,17.64,0,0,0,13.24,29.92v.37H48.51v-.37A17.63,17.63,0,0,0,30.88,12.28Z"/><path class="cls-1" d="M42.64,63v-7H47.8v7ZM14,56.05h5.16v7H14Zm5.16-22.5v7H14v-7Zm23.5,7v-7H47.8v7Zm0,7.55V41H47.8v7.1Zm0,.45H47.8v7.1H42.64Zm-5.76,7.1V48.5h5.31v7.1Zm0,.45h5.31v7H36.88Zm-5.76,0h5.31v7H31.12Zm-5.77,0h5.32v7H25.35Zm-.45,0v7H19.59v-7ZM19.59,48.5H24.9v7.1H19.59Zm-.45,0v7.1H14V48.5Zm0-.45H14V41h5.16ZM24.9,41v7.1H19.59V41Zm0-.45H19.59v-7H24.9Zm5.77,0H25.35v-7h5.32Zm5.76,0H31.12v-7h5.31Zm.45,0v-7h5.31v7Zm0,.45h5.31v7.1H36.88Zm-5.76,7.1V41h5.31v7.1Zm0,.45h5.31v7.1H31.12Zm-5.77-.45V41h5.32v7.1Zm5.32.45v7.1H25.35V48.5ZM13.23,32.81V63.75H48.55V32.81Z"/><path class="cls-1" d="M14,110.4H47.8v-8H14v8Zm-.75.75v-9.5H48.55v9.5Z"/><path class="cls-1" d="M42.64,96v-7H47.8v7ZM14,89.08h5.16v7H14Zm5.16-22.5v7H14v-7Zm23.5,14.5V74H47.8v7.1Zm0,.45H47.8v7.1H42.64Zm-5.76,7.1v-7.1h5.31v7.1Zm0,.45h5.31v7H36.88Zm-5.76,0h5.31v7H31.12Zm-5.77,0h5.32v7H25.35Zm-.45,0v7H19.59v-7Zm-5.31-7.55H24.9v7.1H19.59v-7.1Zm-5.61,0h5.16v7.1H14v-7.1Zm5.16-.45H14V74h5.16ZM24.9,74v7.1H19.59V74Zm0-.45H19.59v-7H24.9Zm5.77,0H25.35v-7h5.32Zm5.76,0H31.12v-7h5.31Zm.45,0v-7h5.31v7Zm0,.45h5.31v7.1H36.88Zm-5.76,7.1V74h5.31v7.1Zm0,.45h5.31v7.1H31.12v-7.1Zm-5.77-.45V74h5.32v7.1Zm5.32.45v7.1H25.35v-7.1Zm17.13-8H42.64v-7H47.8Zm-34.57-7.7v31H48.55V65.83Z"/><path class="cls-1" d="M57.86,120.37H50.59V112.8h7.27Zm-8.33-7.2H12.2v-1.42H10.89V99.81h40v11.94H49.53v1.42Zm0,7.18H12.2V114.2H49.53Zm-38.39,0H3.87V112.8h7.27Zm-1.27-80v71.37H5.38V40.38Zm-6-1.06V31.76h7.27v7.56Zm1.51-9.73A25.53,25.53,0,0,1,26,4.53L27,9.28A21,21,0,0,0,9.87,29.92v.78H5.38V29.59ZM27.86,3.28l.71,6.05-.67.08L26.8,3.53l1.06-.25ZM33.67,1l-1.08,9.24H29.2L28.11,1ZM35,3.53,33.89,9.41l-.68-.08.71-6L35,3.53ZM56.44,29.59V30.7H51.89v-.78A21,21,0,0,0,34.82,9.28l.92-4.76a25.54,25.54,0,0,1,20.7,25.07ZM10.89,30.7v-.78A20,20,0,0,1,28.26,10.11l.1.82,5.06,0,.1-.84A20,20,0,0,1,50.87,29.92v.78H49.53v9.68h1.34v58.4h-40V40.38H12.2V30.7Zm45.55,9.68v71.37H51.89V40.38Zm1.42-8.62v7.56H50.59V31.76ZM59,120.35v-8.62l-.12,0v0H57.46V40.38h1.45V30.7H57.46V29.59a26.54,26.54,0,0,0-21.41-26l.11-.8-1.6-.36L34.85,0H27l.28,2.38-1.59.36.1.79A26.57,26.57,0,0,0,4.35,29.59V30.7H2.82v9.68H4.35v71.28H2.76v8.69H0v1.17H61.75v-1.17Z"/><path class="cls-1" d="M18.6,108.54s0,0,0-.06,0-.12.13-.12l.21,0a.3.3,0,0,0,.17-.08,1,1,0,0,0,.11-.56v-2.37a.65.65,0,0,0,0-.24.19.19,0,0,0-.09-.12.16.16,0,0,0-.08,0l-.11,0h-.21l-.09,0a.07.07,0,0,1,0-.06c0-.07,0-.11.13-.11h3l.12,0c.06,0,.09.07.1.16l.06.82a.2.2,0,0,1,0,.07.06.06,0,0,1-.06,0,.12.12,0,0,1-.11-.08l-.08-.13-.28-.39a.3.3,0,0,0-.14-.1l-.1,0a5.44,5.44,0,0,0-.6,0h-.48a.14.14,0,0,0-.12.08.4.4,0,0,0,0,.15v1a.05.05,0,0,0,0,0h.85a.36.36,0,0,0,.24-.07.27.27,0,0,0,.11-.21.25.25,0,0,1,0-.08s0-.07,0-.09a.15.15,0,0,0,0-.07.08.08,0,0,1,.08-.06q.12,0,.12.15v.61a.86.86,0,0,0,0,.16v.1a1.06,1.06,0,0,0,0,.21v.19a.15.15,0,0,1,0,.09s0,0-.07,0a.12.12,0,0,1-.11,0,.21.21,0,0,1,0-.11c0-.05,0-.09,0-.14a.51.51,0,0,0,0-.13.23.23,0,0,0-.05-.15.33.33,0,0,0-.13-.07.34.34,0,0,0-.15,0H20c-.07,0-.11.05-.13.14v.83c0,.09,0,.17,0,.25A1.6,1.6,0,0,0,20,108a.33.33,0,0,0,.12.15.39.39,0,0,0,.23.06h.58l.19,0,.2,0,.17-.08.11-.09.06,0,0-.06a.18.18,0,0,0,.05-.07l.31-.42s.05-.05.1-.05a.05.05,0,0,1,.05,0,.19.19,0,0,1,0,.08v.07l-.35.88a.14.14,0,0,1-.05.09.18.18,0,0,1-.13.06H18.72c-.07,0-.11,0-.12,0Z"/><path class="cls-1" d="M22.75,108.26s-.06,0-.09.08l-.05.06a.07.07,0,0,1-.06,0h0a.12.12,0,0,1-.05-.05.22.22,0,0,1,0-.08v-.06s0,0,0-.09l0-.16c0-.06,0-.12,0-.19l0-.2a.32.32,0,0,1,0-.08s0-.1,0-.15a.78.78,0,0,0,0-.14.38.38,0,0,1,0-.08.3.3,0,0,1,0-.1.09.09,0,0,1,.09-.06h0c.06,0,.09,0,.09.1a1.42,1.42,0,0,0,0,.31,2.27,2.27,0,0,0,.18.44,1,1,0,0,0,.31.34.68.68,0,0,0,.26.11l.27,0a.8.8,0,0,0,.3-.06.72.72,0,0,0,.27-.15.68.68,0,0,0,.23-.55.52.52,0,0,0-.13-.36,1,1,0,0,0-.31-.23l-.2-.07-.38-.13-.36-.15a1.28,1.28,0,0,1-.5-.39.94.94,0,0,1-.22-.57v0a1.22,1.22,0,0,1,.12-.49,1.18,1.18,0,0,1,.32-.38,1.2,1.2,0,0,1,.72-.22,1,1,0,0,1,.35.06l.32.14.09,0,.1,0h0s0,0,0,0,0,0,0-.06a.09.09,0,0,1,0-.06s0,0,.08,0h0a.05.05,0,0,1,0,0,.06.06,0,0,1,0,.06.69.69,0,0,1,0,.16,1.49,1.49,0,0,0,0,.21.81.81,0,0,0,0,.15.66.66,0,0,0,0,.15.75.75,0,0,1,0,.16.44.44,0,0,1,0,.15v.15a.13.13,0,0,1-.13.1.09.09,0,0,1-.09-.07.5.5,0,0,1,0-.12,1.13,1.13,0,0,0-.08-.24,1.24,1.24,0,0,0-.17-.23l-.13-.13-.17-.12a1.24,1.24,0,0,0-.2-.1.83.83,0,0,0-.22,0h0a.65.65,0,0,0-.43.14.42.42,0,0,0-.17.36v0a.5.5,0,0,0,.16.3.88.88,0,0,0,.34.21l.48.17.48.17a.87.87,0,0,1,.51.4,1.17,1.17,0,0,1,.16.6,1.21,1.21,0,0,1-.06.38A2.17,2.17,0,0,1,25,108a1.33,1.33,0,0,1-.49.48,1.3,1.3,0,0,1-.65.18h-.06l-.26,0-.22,0a1.36,1.36,0,0,1-.21-.1l-.22-.14-.09-.06a.16.16,0,0,0-.09,0Z"/><path class="cls-1" d="M26.41,108.44a.13.13,0,0,1,0-.08s0,0,.11-.06h.25c.22,0,.35-.15.37-.41v-2.69a.06.06,0,0,0,0-.06h-.87a.2.2,0,0,0-.13,0l-.08.09-.5.57a.31.31,0,0,1-.21.13s-.06,0-.06-.1v0s0,0,0,0l.26-1a.16.16,0,0,1,.18-.13h3.53a.17.17,0,0,1,.13,0,.24.24,0,0,1,.06.09l.17,1.07a.13.13,0,0,1,0,.06c0,.06,0,.08-.07.08h-.06a.29.29,0,0,1-.07-.08c-.11-.13-.2-.25-.28-.36a3.55,3.55,0,0,0-.23-.31.26.26,0,0,0-.13-.08h-.88a.07.07,0,0,0,0,.06V108a.22.22,0,0,0,.12.2.77.77,0,0,0,.27.08h.24a.18.18,0,0,1,.11,0,.12.12,0,0,1,0,.11.1.1,0,0,1-.06.09.22.22,0,0,1-.15,0H26.6l-.14,0a.11.11,0,0,1-.05-.1Z"/><path class="cls-1" d="M29.3,108.16a.4.4,0,0,1,.12-.29.41.41,0,0,1,.3-.13.38.38,0,0,1,.3.13.41.41,0,0,1,.13.29.42.42,0,0,1-.13.3.38.38,0,0,1-.3.13.43.43,0,0,1-.42-.43Z"/><path class="cls-1" d="M32.49,105.44a.18.18,0,0,0,0-.1s0-.06-.11-.06l-.09,0-.15.06-.14.06a.34.34,0,0,1-.16,0c-.07,0-.1,0-.1-.09a.19.19,0,0,1,0-.1l.1-.09.08-.06a.7.7,0,0,0,.14-.08l.17-.09.16-.07.28-.13.37-.16.08,0c.06,0,.09.06.09.17v.16a.86.86,0,0,1,0,.15v2.68a1.4,1.4,0,0,0,0,.23.23.23,0,0,0,.06.13.13.13,0,0,0,.07.06l.1,0,.34,0a.38.38,0,0,1,.17.07.19.19,0,0,1,.07.13c0,.11-.06.17-.18.17H33.8l-.14,0h-.24l-.26,0H32.4l-.29,0H31.9c-.18,0-.27,0-.27-.13a.22.22,0,0,1,0-.09s0,0,.05,0l.08,0,.14,0,.14,0h.11a.24.24,0,0,0,.25-.13.7.7,0,0,0,.07-.35v-2.27Z"/><path class="cls-1" d="M35.7,106.94a.38.38,0,0,0,.26-.08.46.46,0,0,0,.14-.22,1.18,1.18,0,0,0,.06-.27c0-.1,0-.18,0-.26a1.52,1.52,0,0,0-.06-.42,1.5,1.5,0,0,0-.14-.39.91.91,0,0,0-.22-.28.44.44,0,0,0-.3-.12.48.48,0,0,0-.44.25,1.44,1.44,0,0,0-.14.72,1.75,1.75,0,0,0,.05.4,1.63,1.63,0,0,0,.17.35,1,1,0,0,0,.26.23.7.7,0,0,0,.35.09Zm-1.26,1.3h.11l.15,0h0l.19,0,.22-.08a1.13,1.13,0,0,0,.21-.12,1,1,0,0,0,.19-.15,1.56,1.56,0,0,0,.26-.3c.06-.09.09-.15.12-.2a.35.35,0,0,0,0-.12.06.06,0,0,0,0-.06h0l-.17,0a1.25,1.25,0,0,1-.38,0,1,1,0,0,1-.43-.11,1.39,1.39,0,0,1-.36-.29,1.89,1.89,0,0,1-.26-.44,1.45,1.45,0,0,1-.1-.51,1.35,1.35,0,0,1,.11-.55,1.29,1.29,0,0,1,.3-.42,1.41,1.41,0,0,1,.42-.26,1.49,1.49,0,0,1,.51-.1,1,1,0,0,1,.5.13,1.12,1.12,0,0,1,.41.34,1.54,1.54,0,0,1,.28.54,2.21,2.21,0,0,1,.1.71,2.51,2.51,0,0,1-.15.86,2.22,2.22,0,0,1-.44.72,2,2,0,0,1-1.49.69.69.69,0,0,1-.36-.08c-.08,0-.12-.1-.12-.14s0-.1,0-.11a.35.35,0,0,1,.13,0Z"/><path class="cls-1" d="M38.9,106a.48.48,0,0,0,.09-.21,1.5,1.5,0,0,0,0-.22.82.82,0,0,0,0-.21.58.58,0,0,0-.1-.21.6.6,0,0,0-.19-.16.56.56,0,0,0-.3-.07.59.59,0,0,0-.23,0,.52.52,0,0,0-.19.11.45.45,0,0,0-.13.17.71.71,0,0,0-.05.26.78.78,0,0,0,0,.21,1,1,0,0,0,.1.17A.69.69,0,0,0,38,106l.1.08.16.09a.63.63,0,0,0,.22,0,.32.32,0,0,0,.2-.07A.57.57,0,0,0,38.9,106Zm-.94.8a.58.58,0,0,0-.2.21.94.94,0,0,0,0,.76.83.83,0,0,0,.19.26.85.85,0,0,0,.29.17.72.72,0,0,0,.33.06h.05a.59.59,0,0,0,.23,0,.67.67,0,0,0,.36-.33.62.62,0,0,0,.05-.25.46.46,0,0,0-.05-.21,1.11,1.11,0,0,0-.12-.16l-.13-.1-.07-.05-.13,0-.22-.11-.3-.14a.37.37,0,0,0-.14,0,.21.21,0,0,0-.12,0Zm-.29-.29a1.2,1.2,0,0,1-.31-.35,1.17,1.17,0,0,1-.08-.45.86.86,0,0,1,.1-.41,1,1,0,0,1,.28-.34,1.33,1.33,0,0,1,.38-.23,1.44,1.44,0,0,1,.46-.08,1.26,1.26,0,0,1,.46.08,1,1,0,0,1,.31.2.82.82,0,0,1,.19.28.84.84,0,0,1,0,.31.7.7,0,0,1-.08.37,1.55,1.55,0,0,1-.19.24,1.15,1.15,0,0,1-.28.19l0,0s-.05,0-.05,0,0,0,.05,0a.21.21,0,0,1,.12,0,1,1,0,0,1,.23.11,1,1,0,0,1,.21.17,1.08,1.08,0,0,1,.16.28,1,1,0,0,1,.07.42,1,1,0,0,1-.09.4,1.1,1.1,0,0,1-.27.38,1.19,1.19,0,0,1-.42.26,1.5,1.5,0,0,1-.58.1,1.39,1.39,0,0,1-.52-.08,1.11,1.11,0,0,1-.36-.23.72.72,0,0,1-.21-.33,1.1,1.1,0,0,1-.08-.4,1,1,0,0,1,.14-.53,1.14,1.14,0,0,1,.35-.34l.06,0s0,0,0,0,0,0,0,0l-.06,0Z"/><path class="cls-1" d="M41.81,105h.11a.14.14,0,0,0,.11-.07c0-.05.06-.1.1-.18s.14-.17.23-.17h0l.05,0a.19.19,0,0,1,0,.08.17.17,0,0,1,0,.07.19.19,0,0,1,0,.09.69.69,0,0,0-.05.1c0,.07-.06.13-.08.19a1.36,1.36,0,0,0-.09.23,2.07,2.07,0,0,1-.08.2.17.17,0,0,1-.08.11.07.07,0,0,1-.06,0,.18.18,0,0,1-.09,0l0,0-.45-.14-.32-.11-.2-.07a.07.07,0,0,0-.06,0,.06.06,0,0,0-.06,0l0,0-.09.28a.18.18,0,0,0,0,.06.13.13,0,0,0,0,.08.14.14,0,0,0,.11,0,3.81,3.81,0,0,1,.51.12,1.65,1.65,0,0,1,.44.22,1.14,1.14,0,0,1,.3.32.78.78,0,0,1,.11.44,1.55,1.55,0,0,1-.09.49,2,2,0,0,1-.3.53,2,2,0,0,1-.49.42,1.41,1.41,0,0,1-.69.16,1.49,1.49,0,0,1-.47-.06.66.66,0,0,1-.25-.14.31.31,0,0,1-.11-.15.28.28,0,0,1,0-.11V108a.36.36,0,0,1,0-.09.2.2,0,0,1,.08-.08.26.26,0,0,1,.14,0,.24.24,0,0,1,.18.06,1.59,1.59,0,0,0,.13.13.7.7,0,0,0,.16.13.55.55,0,0,0,.28.06.43.43,0,0,0,.25-.08,1,1,0,0,0,.23-.22,1.4,1.4,0,0,0,.18-.32,1.34,1.34,0,0,0,.07-.4.57.57,0,0,0-.11-.36.79.79,0,0,0-.24-.21.74.74,0,0,0-.27-.1l-.19,0h-.46c-.09,0-.13,0-.13-.12v0l.05-.12a.76.76,0,0,1,0-.11.42.42,0,0,1,0-.12s0-.1.08-.22.08-.25.13-.38.08-.27.12-.38.07-.2.08-.24a.61.61,0,0,1,0-.11.09.09,0,0,1,.07,0l.11,0,.2.08.33.11.45.14,0,0Z"/><path class="cls-1" d="M81.2,4.24a5,5,0,0,0-1.45-.42c-1.06-.16-2-.3-3-.41l-1.49-.17c-.6-.11-1-.18-1.25-.2s-.31-.26-.31-.7V.68c0-.29.27-.45.83-.5S75.57.1,76,.1s1.07,0,1.85,0,1.58.06,2.44.12S82,.35,82.92.38s1.75,0,2.46,0,1.41,0,2.42,0,2-.06,2.92-.12S92.58.15,93.39.14s1.32,0,1.6,0c.93,0,1.51.1,1.7.37a1.49,1.49,0,0,1,.29,1v.74a1.31,1.31,0,0,1-1.33,1.5l-1.76.08a15.82,15.82,0,0,0-1.6.08c-.57.06-1.12.12-1.65.21a5,5,0,0,0-1.29.37.81.81,0,0,0-.5.75v16.4h29.84v-16a1.77,1.77,0,0,0-.75-1.48,3.72,3.72,0,0,0-1.73-.76,8.44,8.44,0,0,0-2-.24h-1.11A4.3,4.3,0,0,0,111.85,3c-.23,0-.38-.18-.38-.62V1c0-.61.24-.9.83-.86s1.24,0,1.93,0l.73,0c.58,0,1.21.06,2,.06s1.59,0,2.47,0l2.1,0,2.41,0,3-.13,2.69-.13,1.62,0a16.82,16.82,0,0,1,1.7.05c.18,0,.29.24.29.63V2.42c0,.43-.11.68-.34.74a3.9,3.9,0,0,1-1,.08l-2.58.08a4.8,4.8,0,0,0-2.4.71A1.81,1.81,0,0,0,126,5.56V51c0,1.12.29,1.79.87,2a17.72,17.72,0,0,0,2.76.78c1.11.24,2,.35,2.54.43a1.81,1.81,0,0,1,1.29.57c.11.07.16.19.16.41a4.49,4.49,0,0,1-.16.91c-.12.28-.21.55-.29.79a.48.48,0,0,1-.47.38c-1.15-.08-2.31-.13-3.47-.26-1-.1-2-.18-3.09-.21s-2.12,0-3,0c-1.21,0-2.42,0-3.62,0s-2.27.08-3.26.14l-2.59.12c-.69,0-1.22,0-1.54,0a1.25,1.25,0,0,1-1.1-.39,1.85,1.85,0,0,1-.21-1c0-.4,0-.7,0-.92s.22-.39.59-.5l3.26-.25a5.92,5.92,0,0,0,3.28-1.41,3.21,3.21,0,0,0,.77-2.07V26.69H88.85V51.56a1.69,1.69,0,0,0,.84,1.61,5.62,5.62,0,0,0,2.47.54l3.57.16a1,1,0,0,1,1,.86,9,9,0,0,1,.13,1.46c0,.35-.13.54-.36.62a4.42,4.42,0,0,1-1.31.14h-.81l-1.21-.05c-.69,0-1.48-.07-2.34-.13s-1.81-.08-2.67-.11-1.56,0-2,0c-1.51,0-3.22,0-5,.12s-3.47.19-4.86.29h-.53c-.6,0-1-.09-1.1-.29a1,1,0,0,1-.23-.69v-.33a2,2,0,0,1,.23-1c.12-.26.5-.45,1.1-.58a14.43,14.43,0,0,1,2.2-.27,13.38,13.38,0,0,0,1.7-.22,2.68,2.68,0,0,0,1.49-.79,2.36,2.36,0,0,0,.6-1.61V5.4a1.24,1.24,0,0,0-.47-1.16Z"/><path class="cls-1" d="M161,41.25a17.15,17.15,0,0,0-1-6,16.08,16.08,0,0,0-2.73-5A15.9,15.9,0,0,0,153.17,27a10.71,10.71,0,0,0-5-1.25,9,9,0,0,0-4.36,1.1,10.7,10.7,0,0,0-3.4,3,15.22,15.22,0,0,0-2.19,4.64,20.63,20.63,0,0,0-.78,6,15.16,15.16,0,0,0,1,5.59,14.06,14.06,0,0,0,2.79,4.56,13.68,13.68,0,0,0,4.15,3.09,11.21,11.21,0,0,0,5,1.16,9.33,9.33,0,0,0,4.21-1,9.5,9.5,0,0,0,3.4-2.77,13.8,13.8,0,0,0,2.25-4.28,18,18,0,0,0,.8-5.56Zm-11.25,16a20.53,20.53,0,0,1-7.24-1.23,16.17,16.17,0,0,1-5.62-3.48,15.46,15.46,0,0,1-3.65-5.37A17.47,17.47,0,0,1,132,40.36a17.79,17.79,0,0,1,1.26-6.83,16.18,16.18,0,0,1,3.55-5.37,16,16,0,0,1,5.41-3.53A17.78,17.78,0,0,1,149,23.35a19,19,0,0,1,7.16,1.28,16.24,16.24,0,0,1,5.57,3.57,15.84,15.84,0,0,1,3.61,5.52,19.05,19.05,0,0,1,1.25,7.08,17.14,17.14,0,0,1-1.2,6.53,16.33,16.33,0,0,1-3.4,5.15,15.63,15.63,0,0,1-5.11,3.43,16.89,16.89,0,0,1-6.31,1.29Z"/><path class="cls-1" d="M174.12,22.83c.53,0,1,0,1.58,0a11.27,11.27,0,0,0,1.43-.11,14.48,14.48,0,0,1,1.61-.09c1.07,0,1.6.43,1.6,1.28a1,1,0,0,1-.53.93,6.68,6.68,0,0,1-2,.43,3,3,0,0,0-1.42.61,2.25,2.25,0,0,0-.73,2v15.9a11.81,11.81,0,0,0,.77,4.24,10,10,0,0,0,2.2,3.46,10.75,10.75,0,0,0,3.46,2.37,11.37,11.37,0,0,0,4.51.88c3.21,0,5.67-.75,7.44-2.21s2.64-3.72,2.64-6.75V28.42c0-1.33-.22-2.2-.69-2.59a4.08,4.08,0,0,0-2.66-.61,2.21,2.21,0,0,1-1.21-.23c-.22-.17-.31-.51-.31-1a1.23,1.23,0,0,1,.76-1.27,9.4,9.4,0,0,1,3.07-.32c.84,0,1.43,0,1.7,0l.58,0a.49.49,0,0,1,.19,0,2.37,2.37,0,0,0,.66,0h2.67a5.17,5.17,0,0,0,1-.08,3.62,3.62,0,0,1,.87-.08c.89,0,1.34.48,1.34,1.44s-.8,1.38-2.49,1.6a2.37,2.37,0,0,0-1.7.71,4.67,4.67,0,0,0-.44,2.48V44.16a19.18,19.18,0,0,1-1.26,7.54,9.65,9.65,0,0,1-4.66,4.68,19.1,19.1,0,0,1-4,1.36,21.45,21.45,0,0,1-4.55.48,20.49,20.49,0,0,1-6.28-.91,14.05,14.05,0,0,1-4.79-2.61,11.79,11.79,0,0,1-3-4,12,12,0,0,1-1.08-5.14V29.14a6.27,6.27,0,0,0-.52-3,2.21,2.21,0,0,0-1.89-1,2.11,2.11,0,0,1-1.59-.57,1.55,1.55,0,0,1-.4-1c0-.57.22-.89.65-.95a4.42,4.42,0,0,1,1.19-.09c.64,0,1.45,0,2.44.05s2,.1,3.15.2Z"/><path class="cls-1" d="M223.88,22.1a1.45,1.45,0,0,1,1-.47.78.78,0,0,1,.87.88l-.15,4.78.15,3.92v.33c0,.74-.31,1.11-.87,1.11a1.22,1.22,0,0,1-1.13-.71V32l-1.67-4a6,6,0,0,0-2.48-2.84,7,7,0,0,0-3.68-1.08,4.71,4.71,0,0,0-3.27,1.24,4,4,0,0,0-1.34,3.08,4.08,4.08,0,0,0,1.06,2.66,7.6,7.6,0,0,0,2.27,2c1.12.47,2.29,1,3.51,1.51l3.44,1.53a11.78,11.78,0,0,1,5.23,4.11,10.32,10.32,0,0,1,1.89,6.11,11.46,11.46,0,0,1-.8,4.38,9.74,9.74,0,0,1-2.23,3.44,10.27,10.27,0,0,1-7.43,3.12A8.57,8.57,0,0,1,213.78,56a35.91,35.91,0,0,1-4-2.75c-.28.64-.59,1-1,1.11a3.39,3.39,0,0,1-.82.16c-.72,0-1.1-.66-1.1-2V52a1.25,1.25,0,0,1,.07-.48c.22-1.33.38-2.36.5-3.11a18.11,18.11,0,0,0,.13-2.16v-.72a3.8,3.8,0,0,0-.07-.72c0-1.18.4-1.76,1.22-1.76a1.24,1.24,0,0,1,1.15.6,5.7,5.7,0,0,1,.51,2q1.11,8.79,8.05,8.79a6,6,0,0,0,4.33-1.68,5.67,5.67,0,0,0,1.77-4.23,6.11,6.11,0,0,0-1.94-4.63A18.7,18.7,0,0,0,216,40.4a16,16,0,0,1-7-4.08,8.59,8.59,0,0,1-2.19-5.92,7.88,7.88,0,0,1,.75-3.43,9.39,9.39,0,0,1,2-2.78,9.9,9.9,0,0,1,3-1.91,8.87,8.87,0,0,1,3.59-.74,10.77,10.77,0,0,1,4.55.89c.43.2.84.41,1.2.6a2.33,2.33,0,0,0,.81.28c.16,0,.31-.12.48-.32a9.89,9.89,0,0,1,.71-.89Z"/><path class="cls-1" d="M231.71,56.61l-1.29.24c-.95,0-1.44-.45-1.44-1.35a1.84,1.84,0,0,1,.27-1.21,2.83,2.83,0,0,1,1.17-.39c1.72,0,2.87-.41,3.49-1.09s.91-2,.91-4V29.22c0-.33-.11-.92-.15-1.76a5.64,5.64,0,0,0-.41-1.92c-.17-.32-1-.56-2.55-.73a7.42,7.42,0,0,1-2.53-.38,1.13,1.13,0,0,1-.68-1.05,1,1,0,0,1,.48-.91,3.55,3.55,0,0,1,1.68-.28h6.44c.57,0,1.15,0,1.8-.09s1.58-.07,2.48-.07l1.76-.09c2-.05,3.67-.13,5.22-.24s2.89-.16,4.09-.16h1.14c1,.12,1.58.49,1.68,1.12.06.23.09.39.12.52s.1.43.2.88a19.88,19.88,0,0,1,.37,2.11c.19,1,.43,2.38.74,4.23,0,.7-.38,1-1.11,1a1.8,1.8,0,0,1-1.53-.94c-.36-.65-.76-1.34-1.19-2.08S252,27,251.58,26.33c-.28-.42-.54-.7-.63-.87a25.16,25.16,0,0,0-5-.56c-1,0-1.94,0-2.7.08a22.67,22.67,0,0,0-2.79.41v1.84a10.47,10.47,0,0,1-.06,1.38c0,.46,0,.77,0,.92,0,1,0,1.84-.06,2.65s-.06,1.33-.06,1.94v1.17h6.87c2,0,3-.82,3-2.49v-.71q0-1.59,1-1.59a1.23,1.23,0,0,1,1.22.92,12.71,12.71,0,0,1,.29,3.23v1.51a13.93,13.93,0,0,0-.09,1.45V39c0,.56,0,1.1,0,1.51s.08.88.14,1.34a2.13,2.13,0,0,1,.08.74c0,1-.38,1.43-1.23,1.43a1.12,1.12,0,0,1-1.11-.54,9.37,9.37,0,0,1-.53-2.87,2.45,2.45,0,0,0-2.63-2.41h-6.48c-.49,0-.71.17-.71.47v11.2a9.33,9.33,0,0,0,.16,2,1.58,1.58,0,0,0,.87,1.13,6.45,6.45,0,0,0,2.09.46,36.24,36.24,0,0,0,3.73.14h1a12.68,12.68,0,0,0,3.32-.41,4.18,4.18,0,0,0,2.43-2L256.15,47a1.17,1.17,0,0,1,1.11-.56c.73,0,1.11.48,1.11,1.44,0,.2,0,.39,0,.52l-.11.43-1.69,6.07c-.06.23-.15.46-.2.73a1.26,1.26,0,0,1-.39.63.84.84,0,0,1-.5.25,4,4,0,0,1-.59.07Z"/><path class="cls-1" d="M298.47,55.58a1.72,1.72,0,0,1-1.57,1.19,1.28,1.28,0,0,1-1.2-.71c-2.26-3.72-4-6.66-5.2-8.79l-2.76-4.79c-.64-1.07-1.07-1.86-1.39-2.42l-7.9,15.76a1.8,1.8,0,0,1-1.61,1.27,1.47,1.47,0,0,1-1.37-1q-3.18-6.78-5.84-12.22c-.73-1.55-1.47-3.06-2.18-4.55s-1.36-2.85-1.92-4.08-1-2.25-1.38-3-.6-1.26-.65-1.36l-1-2.4A5.63,5.63,0,0,0,261,26.1,3.65,3.65,0,0,0,259.09,25a2.24,2.24,0,0,1-1.25-.45,1.4,1.4,0,0,1-.26-.92c0-.62.14-1,.4-1a6.5,6.5,0,0,1,1.61-.23,6.63,6.63,0,0,1,.86,0c.33,0,.66.07,1,.12a21.64,21.64,0,0,0,4,.25c1.06,0,2,0,2.69,0s1.25-.09,1.58-.14h-.11a6.48,6.48,0,0,1,1.06-.07c1,0,1.52.38,1.52,1.11A2.49,2.49,0,0,1,272,24.7c-.15.3-.51.44-1.09.44-1.81,0-2.71.29-2.71.88a6.4,6.4,0,0,0,.53,2.32c2.22,5,3.89,8.81,5.11,11.58s2.19,4.84,2.76,6.2,1,2.18,1.21,2.5a1.58,1.58,0,0,0,.35.49,16.75,16.75,0,0,0,.93-1.59c.37-.77,1-1.93,1.85-3.51s1.94-3.87,3.39-6.8v-.16a7.14,7.14,0,0,0-.6-2c-.41-1-.86-2-1.36-3.16s-1-2.2-1.52-3.24-.89-1.79-1.15-2.28a2.22,2.22,0,0,0-1-.94,5,5,0,0,0-1.91-.25c-1.11-.05-1.66-.53-1.66-1.43a1.38,1.38,0,0,1,.21-.88,1.45,1.45,0,0,1,1-.25l2.17.14c.62,0,1.22,0,1.8,0H284a19.38,19.38,0,0,0,2.95-.18,22.68,22.68,0,0,1,2.71-.15,1.64,1.64,0,0,1,1.2.33,1.2,1.2,0,0,1,.3.95,1.68,1.68,0,0,1-.25,1c-.21.26-.68.42-1.5.47a4.39,4.39,0,0,0-1.83.48,1.37,1.37,0,0,0-.71,1.27,6.45,6.45,0,0,0,.88,2.48l5.48,11.23c1.24,2.59,2.16,4.49,2.79,5.71s1,2,1.23,2.4.46.79.73,1.28c3-6.51,5.3-11.56,6.79-15.14s2.21-6,2.21-7.23a2.18,2.18,0,0,0-1.06-2,4.92,4.92,0,0,0-2.44-.77c-1,0-1.45-.53-1.45-1.43s.69-1.27,2-1.27a19.33,19.33,0,0,1,2.95.19,19.24,19.24,0,0,0,2.42.19,16.52,16.52,0,0,0,2.36-.19,12.63,12.63,0,0,1,2.12-.19,1.47,1.47,0,0,1,.7-.09c.92,0,1.36.38,1.36,1.12v.39c-.1.59-.34.95-.72,1s-.87.28-1.49.49a3.69,3.69,0,0,0-1.84,1.39,20.45,20.45,0,0,0-2.08,4.29c-1.13,2.87-2.21,5.48-3.21,7.83s-2,4.5-2.92,6.51-1.81,3.85-2.69,5.54-1.65,3.34-2.47,4.88Z"/><path class="cls-1" d="M328.8,38.11a2.58,2.58,0,0,0,1.72.44,10.86,10.86,0,0,0,6.29-1.68,5,5,0,0,0,2.51-4.39,6.84,6.84,0,0,0-.73-3,8.71,8.71,0,0,0-1.91-2.51,9.81,9.81,0,0,0-2.79-1.72,9.5,9.5,0,0,0-3.47-.63,2.6,2.6,0,0,0-1.51.44,1.25,1.25,0,0,0-.63,1.07V36.56a1.9,1.9,0,0,0,.52,1.55Zm8.9,1.23a30.31,30.31,0,0,1,3,2.93,39.71,39.71,0,0,1,2.66,3.48c.71.91,1.41,1.85,2.14,2.86s1.38,2,2,3c1,1.49,2,2.23,3,2.23a2.63,2.63,0,0,0,1.15-.25c.33-.16.68-.28.95-.39a10.3,10.3,0,0,0,1-.44,1.21,1.21,0,0,1,.53-.2.85.85,0,0,1,.63.24.68.68,0,0,1,.22.48,1.45,1.45,0,0,1-.14.64,3.77,3.77,0,0,1-1,1.32,10,10,0,0,1-1.6,1,10.3,10.3,0,0,1-1.82.67,6.69,6.69,0,0,1-1.7.24h-.18c-2.61,0-5.26-2.16-8-6.31l-3.33-5.1c-.69-1-1.29-1.86-1.79-2.53a9.28,9.28,0,0,0-1.47-1.55,4.26,4.26,0,0,0-1.5-.76,6.08,6.08,0,0,0-1.64-.21,4.81,4.81,0,0,0-2.08.26c-.28.16-.39.54-.39,1.19v8a5,5,0,0,0,.63,3,3.57,3.57,0,0,0,2.48.92,11.85,11.85,0,0,1,2.41.4.89.89,0,0,1,.7.87,1.12,1.12,0,0,1-.07.48,4.86,4.86,0,0,1-.36.76.91.91,0,0,1-.85.36h-.14c-.65-.05-1.15-.1-1.48-.16s-.72-.08-1.12-.11-.91,0-1.57,0h-2.77c-1.08,0-2,0-2.65,0s-1.28.06-1.75.11-.95.11-1.37.12L319,57h-.41a.82.82,0,0,1-.64-.19,4.29,4.29,0,0,1-.39-.84l-.08-.39a1,1,0,0,1,.64-1,5,5,0,0,1,1.52-.49c.69-.1,1.27-.21,1.73-.32a2,2,0,0,0,1.08-.6A2.8,2.8,0,0,0,323,52a12.06,12.06,0,0,0,.16-2.16V27c0-.63-.37-1-1.09-1.26a8.46,8.46,0,0,0-1.95-.4,4.69,4.69,0,0,1-2-.33,1.22,1.22,0,0,1-.61-1.2,1.4,1.4,0,0,1,1.59-1.58h13c4.16,0,7.36.72,9.6,2.18A7.31,7.31,0,0,1,345.05,31a7.22,7.22,0,0,1-1.94,5.15,10.21,10.21,0,0,1-5.25,3l-.16.23Z"/><path class="cls-1" d="M360,25.72a3.59,3.59,0,0,0-2.05-.66c-.85-.12-1.36-.28-1.53-.53a1.81,1.81,0,0,1-.23-1,2.12,2.12,0,0,1,.18-1c.14-.22.55-.31,1.26-.31s1.18,0,1.69,0l1.36.08,1.31.08c.44,0,1,0,1.7,0h.47c.44,0,1,0,1.62,0s1.24-.07,1.81-.12,1.46-.11,2.25-.15h.31c.61,0,.94.13,1.06.39a3.48,3.48,0,0,1,.16,1v.17a1.11,1.11,0,0,1-.24.84,4.36,4.36,0,0,1-1.59.36h-.16a12,12,0,0,0-2.28.48c-.61.21-.92.77-.92,1.68V52.05c0,1.39,1.24,2.08,3.75,2.08.58,0,.92.11,1,.32a2.34,2.34,0,0,1,.17,1,1.72,1.72,0,0,1-.22,1c-.11.18-.5.29-1.14.29h-.61a3.86,3.86,0,0,1-.67-.08l-1.76-.16c-.54-.05-1.09-.08-1.63-.08h-1.48c-1.7,0-2.9,0-3.62,0s-1.16.06-1.41.1l-.69.06c-.19,0-.65,0-1.41,0a.65.65,0,0,1-.65-.45,1.73,1.73,0,0,1-.22-.84c0-.42.12-.69.32-.79a2.45,2.45,0,0,1,.65-.24c.27,0,.93-.16,2-.32a1.8,1.8,0,0,0,1.68-1.11,7.63,7.63,0,0,0,.31-2.17V27.38a2.18,2.18,0,0,0-.58-1.66Z"/><path class="cls-1" d="M404.15,53.5a1.37,1.37,0,0,1-.19.67.66.66,0,0,1-.61.36,1.54,1.54,0,0,1-.39-.16,4.85,4.85,0,0,0-1-.51,1.87,1.87,0,0,0-.55-.12,1.75,1.75,0,0,0-.87.29c-.31.18-.68.37-1.11.59a18.16,18.16,0,0,1-4.09,2.08,14.35,14.35,0,0,1-4.49.63,21.53,21.53,0,0,1-7.56-1.27,17,17,0,0,1-5.88-3.61,15.12,15.12,0,0,1-3.74-5.59,18.59,18.59,0,0,1-1.34-7.18,18.67,18.67,0,0,1,1.34-7.14,17.7,17.7,0,0,1,3.59-5.76,16.71,16.71,0,0,1,5.4-3.84,16.25,16.25,0,0,1,6.68-1.4,18,18,0,0,1,3.07.28c1.05.2,2.11.46,3.14.76s2,.67,2.85,1,1.63.72,2.22,1l.56-1c.44-.85.92-1.28,1.42-1.28.76,0,1.14.65,1.14,1.93-.06.58-.08,1-.08,1.23v.67a13.06,13.06,0,0,0,.12,1.65c.07.61.25,1.66.51,3.15a18.8,18.8,0,0,1,.25,2.55c0,.86-.37,1.29-1.05,1.29a1.29,1.29,0,0,1-1.08-.36,5.15,5.15,0,0,1-.68-1.49,10.55,10.55,0,0,0-1.7-3.51,14.47,14.47,0,0,0-2.94-3,14,14,0,0,0-3.58-2,11.18,11.18,0,0,0-3.84-.72,9.68,9.68,0,0,0-8.4,4.39c-2,2.93-3,6.95-3,12.07a17.71,17.71,0,0,0,.94,5.79,13.19,13.19,0,0,0,2.6,4.63,12.28,12.28,0,0,0,3.94,3.08,11.11,11.11,0,0,0,4.93,1.12,11.74,11.74,0,0,0,2.86-.36,10.18,10.18,0,0,0,2.53-1,7.24,7.24,0,0,0,1.87-1.34,2.32,2.32,0,0,0,.7-1.57V46.38a4.17,4.17,0,0,0-.34-1.75,1.38,1.38,0,0,0-1-.8c-.21,0-.58,0-1.14-.07a20.85,20.85,0,0,0-2.12-.09,2.77,2.77,0,0,1-1.23-.15.73.73,0,0,1-.21-.57v-.57a2.17,2.17,0,0,1,.16-.78,1,1,0,0,1,.8-.56,3.92,3.92,0,0,1,1.11-.16h1.21c.73,0,1.64,0,2.71.11s2,.13,2.93.13h1.13c1,0,1.8,0,2.32-.08a14.48,14.48,0,0,1,1.84-.08c.48,0,.74.32.74.93a1.32,1.32,0,0,1-.41,1,3.81,3.81,0,0,1-1.53.6,1.7,1.7,0,0,0-1.13.51,4.75,4.75,0,0,0-.23,1.88V53.5Z"/><path class="cls-1" d="M415.58,56.38h-2c-.76,0-1.51,0-2.28.08s-1.72.08-2.54.08a.89.89,0,0,1-.71-.37,1,1,0,0,1-.32-.74c0-.55.11-.88.39-1a8.36,8.36,0,0,1,2.09-.35,1.91,1.91,0,0,0,1.74-.91,9.52,9.52,0,0,0,.4-3.4V27.86a3.36,3.36,0,0,0-.69-2.39,3.43,3.43,0,0,0-2.52-.72,1.9,1.9,0,0,1-1.32-.36,1.52,1.52,0,0,1-.35-1,1,1,0,0,1,.52-.95,4.27,4.27,0,0,1,1.62-.23h.89a3.74,3.74,0,0,1,.95.08l2.38.11c.88,0,1.71,0,2.51,0s1.38,0,1.83,0l1.32-.11a8.52,8.52,0,0,1,1.14-.12,11.61,11.61,0,0,1,1.29-.05c.6,0,1,.11,1.13.36a1.82,1.82,0,0,1,.26,1,1.73,1.73,0,0,1-.32,1c-.23.28-.91.4-2.1.4a4.12,4.12,0,0,0-2.43.57c-.49.38-.74,1.25-.74,2.63v5.59a1.4,1.4,0,0,0,.68,1.24,5,5,0,0,0,2.34.36h13.66c.08,0,.31-.13.59-.24s.44-.45.44-1V27.23a2.16,2.16,0,0,0-.53-1.65,3.14,3.14,0,0,0-1.87-.68,2.74,2.74,0,0,1-1.67-.59,1.48,1.48,0,0,1-.4-1,1,1,0,0,1,.3-.88,2.84,2.84,0,0,1,1.38-.23c.74,0,1.47,0,2.19.08s1.52.07,2.44.07h2.8c.32,0,.74,0,1.28,0s1.11-.07,1.65-.11a19.05,19.05,0,0,1,2-.09h.36c.42,0,.66.09.77.28a3.83,3.83,0,0,1,.09.92v.16a1.22,1.22,0,0,1-.23.88,3.07,3.07,0,0,1-1.54.3l-1.34.1c-1,.05-1.62.35-1.88.92a5.06,5.06,0,0,0-.36,1.95V52a1.7,1.7,0,0,0,.88,1.47,4,4,0,0,0,2.31.61,2.82,2.82,0,0,1,1.57.31,1.11,1.11,0,0,1,.44.89v.17a1.1,1.1,0,0,1-.71,1.07,9.74,9.74,0,0,1-2.41.2c-.76,0-1.44,0-2.08-.08a16.9,16.9,0,0,0-1.7-.08H438c-1.15,0-2.23,0-3.16.12s-1.78.11-2.59.11h-.68a3.66,3.66,0,0,1-.69-.07c-.37-.05-.54-.38-.54-1v-.48a.84.84,0,0,1,.62-.8,12.36,12.36,0,0,1,2.23-.48A2.22,2.22,0,0,0,435,52.81a8.56,8.56,0,0,0,.52-3.63V40.79a4,4,0,0,0-.27-1.74c-.18-.33-.56-.49-1.19-.49H420a2.66,2.66,0,0,0-1.85.45,2.9,2.9,0,0,0-.38,1.87v5.91c0,1.5,0,2.69,0,3.6a8.71,8.71,0,0,0,.29,2.15,1.65,1.65,0,0,0,.8,1.09,4.82,4.82,0,0,0,1.58.35l1.37.08c.75.06,1.2.16,1.31.31a1.06,1.06,0,0,1,.23.73v.4a1.33,1.33,0,0,1-.23.84c-.11.19-.45.28-.92.28-.26,0-.68,0-1.27,0l-1.87-.07c-.65,0-1.3,0-2-.09l-1.52,0Z"/><path class="cls-1" d="M443.24,5.15A4.08,4.08,0,0,0,439.4,7c-.17.34-.48.89-1,1.7l-1.51,2.48c-.49.86-.94,1.62-1.36,2.29a12.83,12.83,0,0,0-.69,1.17c-.21.31-.41.47-.58.47a1.19,1.19,0,0,1-.69-.31,1.07,1.07,0,0,1-.48-.92l.09-.34c.18-.43.46-1.47.94-3.09s1.19-4.3,2.12-8a2.54,2.54,0,0,1,.81-1.29A1.93,1.93,0,0,1,438.41.6h46.65a3.81,3.81,0,0,1,1.24.16c.36.11.56.42.68.91l2.31,11.1a3.51,3.51,0,0,1,.17.84.9.9,0,0,1-.66.9l-.36.1a1.09,1.09,0,0,1-.75-.39,3.9,3.9,0,0,1-.71-.87l-2.15-4c-.41-.71-.85-1.53-1.38-2.44A4.75,4.75,0,0,0,482,5.15a1.81,1.81,0,0,0-.82-.17,12.72,12.72,0,0,0-1.49.09c-.62,0-1.41.08-2.4.08h-9.47a1.54,1.54,0,0,0-1.28.83A3,3,0,0,0,466,7.63v42.5a5.21,5.21,0,0,0,.65,2.46A2.65,2.65,0,0,0,469,54l2.35.18,2.39.07c.48,0,.8.1.92.29a2.51,2.51,0,0,1,.18,1.13,1.88,1.88,0,0,1-.18.83c-.12.21-.44.33-.92.33H471.9c-1.24,0-2.32,0-3.34-.1-.84-.05-1.68-.08-2.48-.11s-1.28,0-1.56,0h-2.91c-.82.06-1.58.1-2.24.1s-1.18,0-1.72,0-1,0-1.27,0a2.35,2.35,0,0,1-.89.1,15.87,15.87,0,0,0-1.61.08c-.59,0-1.24.1-2,.17s-1.25-.37-1.25-1.08a3.33,3.33,0,0,1,.11-1c.05-.26.26-.4.63-.45l2.85-.25c.58,0,1.16-.14,1.68-.2a4.44,4.44,0,0,0,1.4-.46,2.4,2.4,0,0,0,1-1,3.94,3.94,0,0,0,.37-1.86V8c0-1.28-.21-2.07-.66-2.38a5.53,5.53,0,0,0-2.74-.45Z"/><path class="cls-1" d="M122.44,79.92a14,14,0,0,1,.86-4.86,13.8,13.8,0,0,1,2.52-4.14,12.19,12.19,0,0,1,3.89-2.87,11.21,11.21,0,0,1,5-1.08,15.56,15.56,0,0,1,4.25.53,13.33,13.33,0,0,1,3.83,1.81,1,1,0,0,0,.24.08.39.39,0,0,0,.4-.31c0-.21,0-.44.06-.7s0-.41,0-.47a2,2,0,0,1,.19-.52.56.56,0,0,1,.48-.26,1.7,1.7,0,0,1,.49.1.39.39,0,0,1,.22.41v7.19c0,.12,0,.33,0,.61a1.73,1.73,0,0,1-.11.67,3.65,3.65,0,0,1-.22.46.49.49,0,0,1-.46.24h0a.68.68,0,0,1-.68-.38,2.06,2.06,0,0,1-.18-.83c0-.36-.06-.76-.11-1.2a3.3,3.3,0,0,0-.25-1.05,7,7,0,0,0-1.48-1.74,10,10,0,0,0-1.92-1.21,11.11,11.11,0,0,0-2.18-.71,12.21,12.21,0,0,0-2.21-.3h-.57a6.36,6.36,0,0,0-3.19.77,6.47,6.47,0,0,0-2.2,2,8.64,8.64,0,0,0-1.26,2.88,14.67,14.67,0,0,0-.41,3.33A16.69,16.69,0,0,0,127.6,81a18.77,18.77,0,0,0,.51,2.59,12,12,0,0,0,1.17,2.78,5.59,5.59,0,0,0,2.19,2.25,6.66,6.66,0,0,0,2.21.84,10.87,10.87,0,0,0,2.4.23,8.91,8.91,0,0,0,2.18-.26,11.43,11.43,0,0,0,3-1.49,9.87,9.87,0,0,0,2.4-2.24c.16-.47.37-1,.57-1.65a11.39,11.39,0,0,0,.45-1.81,3.76,3.76,0,0,1,.13-.36c.09-.2.21-.32.37-.32h.58c.32,0,.5.25.5.72l-.05.46s0,.2,0,.53a4.85,4.85,0,0,1-.11,1l-.18,1.43c0,.61-.05,1.22-.11,1.86s-.08,1.26-.12,1.83c0,.23,0,.38-.1.46l-.33.18h-.36c-.44,0-.68-.16-.72-.46a1,1,0,0,1-.1-.18.27.27,0,0,0-.23-.08.43.43,0,0,0-.22,0,37.06,37.06,0,0,1-3.75,1.74,11.41,11.41,0,0,1-4.41.87H135a15.64,15.64,0,0,1-4-.51,10.27,10.27,0,0,1-3.42-1.53,11.21,11.21,0,0,1-3.72-4.12,12.63,12.63,0,0,1-1.37-5.89Z"/><path class="cls-1" d="M154.46,79.06a18.21,18.21,0,0,0,.37,3.7A15.39,15.39,0,0,0,156,86.27a10.32,10.32,0,0,0,2.6,2.59,7,7,0,0,0,3.91,1,10.07,10.07,0,0,0,4.55-.84,6.06,6.06,0,0,0,2.57-2.28,8.2,8.2,0,0,0,1.15-3.29A25.54,25.54,0,0,0,171,79.6a16.82,16.82,0,0,0-.42-3.64,10.67,10.67,0,0,0-1.41-3.44A7.48,7.48,0,0,0,162.46,69a7.36,7.36,0,0,0-3.6.83A6.08,6.08,0,0,0,156.45,72a7.82,7.82,0,0,0-1.52,3.24,13.92,13.92,0,0,0-.47,3.79Zm-4.87.94a13.79,13.79,0,0,1,.93-5.07,12.79,12.79,0,0,1,2.62-4.19,12,12,0,0,1,4.18-2.86,14,14,0,0,1,5.5-1,14.64,14.64,0,0,1,5.12.86A13.09,13.09,0,0,1,172,70.16,10.83,10.83,0,0,1,174.77,74a11.94,11.94,0,0,1,1,4.89,15.65,15.65,0,0,1-.29,3.08,12.68,12.68,0,0,1-1.82,4.64,13.8,13.8,0,0,1-1.11,1.54,10.3,10.3,0,0,1-4.82,3.09,18.53,18.53,0,0,1-5.43.82,14,14,0,0,1-5.17-.93,11.64,11.64,0,0,1-4-2.51,11.09,11.09,0,0,1-2.58-3.79,12.23,12.23,0,0,1-.93-4.78Z"/><path class="cls-1" d="M184.29,73.43c-.09-.11-.14-.18-.25-.18s-.22.15-.22.46V85c0,.16,0,.36,0,.64s0,.52,0,.8,0,.52,0,.76a4,4,0,0,1,.07.54c.05.35.16.63.21.92a1.22,1.22,0,0,0,.56.62,1.24,1.24,0,0,0,.54.29,4.32,4.32,0,0,1,.53.15,2,2,0,0,0,.48.15c.22,0,.47.12.73.17s.59.39.59.9a.53.53,0,0,1-.39.59,2.42,2.42,0,0,1-.73.12h-1a3.12,3.12,0,0,1-.85-.09h-4.95c-.5,0-1,0-1.48,0-.18,0-.34-.12-.46-.38a.67.67,0,0,1-.08-.29.8.8,0,0,1,.48-.82,6.08,6.08,0,0,1,.95-.27,3.73,3.73,0,0,0,1.35-.46,1.33,1.33,0,0,0,.8-1,3.5,3.5,0,0,0,.25-1.07,10.54,10.54,0,0,1,.09-1.13l0-.76c.06-1.7.12-3.41.13-5.11s.1-3.18.1-4.52V71.5c-.1-.12-.23-.28-.4-.51s-.39-.46-.58-.69a9,9,0,0,0-.73-.64,2.71,2.71,0,0,0-.83-.45,2.56,2.56,0,0,0-.84-.16,4.32,4.32,0,0,1-.91-.15.78.78,0,0,1-.45-.33.89.89,0,0,1-.13-.4.67.67,0,0,1,.45-.61,2.21,2.21,0,0,1,.69-.21h6.2a1.19,1.19,0,0,1,.72.34,3,3,0,0,1,.66.62l13.42,15.81c.09.15.16.19.22.19s.08,0,.11-.13a.66.66,0,0,0,.06-.22V76.77c0-1.21,0-2.26-.08-3.17s-.11-1.77-.22-2.64a1.49,1.49,0,0,0-.52-.95,5.28,5.28,0,0,0-.89-.49,6.65,6.65,0,0,0-1.16-.33,2.55,2.55,0,0,1-.92-.4.66.66,0,0,1-.16-.53,1.32,1.32,0,0,1,.12-.54.57.57,0,0,1,.45-.26h8.31a.56.56,0,0,1,.54.24.86.86,0,0,1,.21.56.77.77,0,0,1-.32.68c-.18,0-.4.1-.59.13s-.48.09-.75.14a3.35,3.35,0,0,0-1.11.57,1.21,1.21,0,0,0-.56,1c0,.31-.06.79-.07,1.41s-.05,1.24-.09,1.89-.05,1.24-.06,1.82,0,1,0,1.26v1.69q0,.73,0,1.71c0,.67,0,1.48,0,2.45s0,2.15,0,3.5,0,2.94,0,4.74c0,.58-.24.87-.68.87h-.1a1.08,1.08,0,0,1-.62-.22,4,4,0,0,1-.48-.46l-15.36-18Z"/><path class="cls-1" d="M210.44,89.8c-.19,0-.38.16-.58.5-.13.15-.22.27-.33.38a.45.45,0,0,1-.38.15H209a.51.51,0,0,1-.32-.32,1.14,1.14,0,0,1-.11-.44.46.46,0,0,1,0-.19.47.47,0,0,0,0-.17,3.8,3.8,0,0,0,.14-.57,8,8,0,0,1,.22-1c.08-.38.17-.79.25-1.23s.13-.83.19-1.23a2.64,2.64,0,0,1,.05-.51c0-.3.07-.6.11-.89s0-.64.06-.91.07-.42.07-.49a3.35,3.35,0,0,1,.12-.6c.05-.2.26-.32.57-.39h.1c.36,0,.54.22.54.64a9.34,9.34,0,0,0,.18,1.94,9.76,9.76,0,0,0,1.12,2.69,5.8,5.8,0,0,0,1.9,2.12,4,4,0,0,0,1.59.67,9.76,9.76,0,0,0,1.69.17,5.89,5.89,0,0,0,1.84-.32,5.29,5.29,0,0,0,1.66-1,4.37,4.37,0,0,0,1.45-3.39,3.42,3.42,0,0,0-.82-2.23,5.2,5.2,0,0,0-1.93-1.4l-1.21-.45c-.76-.26-1.53-.56-2.36-.82s-1.53-.6-2.22-.88a8.3,8.3,0,0,1-3.1-2.4,5.78,5.78,0,0,1-1.32-3.55V73.6a7,7,0,0,1,2.66-5.38,7.55,7.55,0,0,1,4.45-1.35,5.57,5.57,0,0,1,2.2.41l2,.85.49.24a1.61,1.61,0,0,0,.65.21h0c.11,0,.16-.08.21-.24s.14-.3.2-.39a1.68,1.68,0,0,1,.26-.43.69.69,0,0,1,.49-.17h.16c.08,0,.16.07.25.17a.53.53,0,0,1,.15.39,4.71,4.71,0,0,1-.15,1,6.15,6.15,0,0,0-.11,1.28c0,.28,0,.61,0,1a4.42,4.42,0,0,0,.1.93c.07.25.15.58.23,1a3.64,3.64,0,0,1,.13,1v.24a5.47,5.47,0,0,1,0,.67.75.75,0,0,1-.8.59.51.51,0,0,1-.54-.41,7.34,7.34,0,0,1-.15-.73,4.07,4.07,0,0,0-.51-1.49,5.75,5.75,0,0,0-1-1.42,3.78,3.78,0,0,0-.76-.81,12.19,12.19,0,0,0-1-.77,7.77,7.77,0,0,0-1.25-.58,4.54,4.54,0,0,0-1.38-.23h-.1a4.37,4.37,0,0,0-2.68.88,2.62,2.62,0,0,0-1.05,2.22v.18a3,3,0,0,0,1,1.86,5.42,5.42,0,0,0,2.09,1.34l3,1c1,.36,2,.71,3,1a5.58,5.58,0,0,1,3.15,2.51,7.4,7.4,0,0,1,1,3.69,7.26,7.26,0,0,1-.38,2.34,12,12,0,0,1-.94,2.17,7.35,7.35,0,0,1-3,3,8.13,8.13,0,0,1-4,1.09h-.37a10.26,10.26,0,0,1-1.6-.18,9.74,9.74,0,0,1-1.39-.36,6.38,6.38,0,0,1-1.28-.59,11.46,11.46,0,0,1-1.34-.89c-.16-.08-.33-.21-.54-.33a1.1,1.1,0,0,0-.53-.21Z"/><path class="cls-1" d="M235.7,90.91a.73.73,0,0,1,.18-.46,1.06,1.06,0,0,1,.72-.35,5.53,5.53,0,0,1,.63,0c.24,0,.51,0,.85,0a2.44,2.44,0,0,0,2.35-2.52V70.88a.42.42,0,0,0-.2-.4,3.29,3.29,0,0,0-.44,0h-4.95a1,1,0,0,0-.77.28c-.22.2-.37.36-.52.52l-3.11,3.51a1.83,1.83,0,0,1-1.26.81c-.26,0-.4-.22-.4-.63a1,1,0,0,1,0-.17.32.32,0,0,0,0-.16l1.68-6.46a1,1,0,0,1,1.05-.78h21.81a1.26,1.26,0,0,1,.83.28,1.42,1.42,0,0,1,.34.59l1.09,6.6a1.2,1.2,0,0,1,0,.35c0,.38-.14.56-.4.56a.76.76,0,0,1-.37-.11,1.89,1.89,0,0,1-.5-.47c-.64-.81-1.2-1.57-1.68-2.24A20.85,20.85,0,0,0,251.26,71a1.65,1.65,0,0,0-.78-.5,6,6,0,0,0-.9-.07h-3.85a5.77,5.77,0,0,0-.67,0c-.15,0-.22.18-.22.4V88.17a1.31,1.31,0,0,0,.68,1.2,3.89,3.89,0,0,0,1.7.51l1.45.1a1.12,1.12,0,0,1,.7.2.84.84,0,0,1,.25.69.62.62,0,0,1-.36.58,1.51,1.51,0,0,1-.94.23H236.88a2,2,0,0,1-.84-.14c-.24-.09-.34-.28-.34-.63Z"/><path class="cls-1" d="M266.85,78.34a1.56,1.56,0,0,0,0,.4c0,.14.07.21.19.21h1.68a11.32,11.32,0,0,0,2-.18,11.66,11.66,0,0,0,1.62-.43,4.85,4.85,0,0,0,1.26-.89,5.29,5.29,0,0,0,.85-1,3.85,3.85,0,0,0,.37-1,6.22,6.22,0,0,0,.11-1.31,4.34,4.34,0,0,0-.42-1.85,5.94,5.94,0,0,0-1-1.47A6.08,6.08,0,0,0,269,69.11h-1.42a1,1,0,0,0-.5.17c-.19.11-.27.36-.27.77v8.29Zm-8.27,12.53c0-.41.24-.67.72-.76a1.84,1.84,0,0,1,.39-.07,2.27,2.27,0,0,0,.5-.06l.63-.13a3.47,3.47,0,0,0,1.21-.42,1.25,1.25,0,0,0,.7-1V72.62c0-.33,0-.65-.05-1a2.71,2.71,0,0,0-.24-1,1.84,1.84,0,0,0-.65-.85,2.1,2.1,0,0,0-1-.5,6.58,6.58,0,0,0-.88-.11,6.2,6.2,0,0,1-.74-.08c-.32,0-.52-.1-.58-.23a1.06,1.06,0,0,1-.09-.48,1,1,0,0,1,.14-.49.71.71,0,0,1,.66-.31c.52,0,1.21,0,2.12,0h2.65c.79,0,1.66,0,2.65-.11a22.75,22.75,0,0,1,2.4-.14h.43a23.41,23.41,0,0,1,3.83.35A10.7,10.7,0,0,1,277,68.9a6.69,6.69,0,0,1,2.26,2,5.85,5.85,0,0,1,.42,5.4,6.3,6.3,0,0,1-1.29,1.76,6.55,6.55,0,0,1-1.82,1.18,6.91,6.91,0,0,1-2.11.54c-.06,0-.08,0-.08.1a.3.3,0,0,0,.08.18,12.69,12.69,0,0,1,1.31.86,6,6,0,0,1,1.55,1.47c.22.24.51.59.89,1.07s.8,1,1.19,1.48.92,1.18,1.45,1.84a5.39,5.39,0,0,0,.89,1.06l.81.75a4.53,4.53,0,0,0,.71.42,2.7,2.7,0,0,0,.77.11,2.19,2.19,0,0,0,1.47-.39l.34-.28c.51,0,.75.19.75.59a2.35,2.35,0,0,1-1.18,2,5.29,5.29,0,0,1-3.09.81c-.4,0-.89,0-1.5-.1a4.38,4.38,0,0,1-1.42-.39,7.36,7.36,0,0,1-1.63-1.26,17,17,0,0,1-1.51-1.64c-.47-.59-.87-1.18-1.27-1.77s-.74-1.14-1-1.62l-.45-.73c-.29-.48-.61-.95-.95-1.41a8.28,8.28,0,0,0-1.1-1.26,5.27,5.27,0,0,0-1.29-.9,3.8,3.8,0,0,0-1.57-.33h-1.42c-.17,0-.25.06-.27.18a1.12,1.12,0,0,0,0,.36v5.2a12.65,12.65,0,0,0,.12,1.54,4,4,0,0,0,.36,1.17,2,2,0,0,0,1.37.9c.31.07.64.12,1,.18a3.11,3.11,0,0,1,.74.17,6.2,6.2,0,0,1,.78.28.7.7,0,0,1,.4.67c0,.52-.34.76-1.05.76l-.58,0c-.33,0-.57,0-.72,0h-9.38l-.4,0a2.13,2.13,0,0,1-.44-.07.59.59,0,0,1-.36-.35,1,1,0,0,1-.11-.47Z"/><path class="cls-1" d="M284.29,68.17a.82.82,0,0,1,.2-.61,1.73,1.73,0,0,1,.81-.14h4.79c.46,0,1,0,1.47,0l1.51,0h1.62a2.38,2.38,0,0,1,.88.2.64.64,0,0,1,.42.62c-.11.58-.37.87-.84.9a6.58,6.58,0,0,0-.71.08,4.81,4.81,0,0,0-.88.18,1.75,1.75,0,0,0-.66.47,1.88,1.88,0,0,0-.39.66,2.82,2.82,0,0,0-.1.76,5.73,5.73,0,0,0-.06.88V82.6a7,7,0,0,0,.59,3.12,5.6,5.6,0,0,0,1.7,2.19,7.27,7.27,0,0,0,2.53,1.28,11.56,11.56,0,0,0,3.22.43,7.85,7.85,0,0,0,3-.57,6.33,6.33,0,0,0,2.31-1.63A7.08,7.08,0,0,0,307.19,85a10.25,10.25,0,0,0,.48-3.15V72.58a6,6,0,0,0-.4-2.3.82.82,0,0,0-.37-.46,3.17,3.17,0,0,0-.57-.34c-.06-.07-.18-.09-.35-.09a2.32,2.32,0,0,1-.46-.06,3.38,3.38,0,0,0-.55,0,2.09,2.09,0,0,1-.74-.25c-.32-.13-.4-.4-.4-.79,0-.59.32-.91,1-.91h6c.41,0,.74,0,1,0h.68a1.43,1.43,0,0,1,.7.14c.16.07.23.28.23.63v.1a.74.74,0,0,1-.58.73,2.14,2.14,0,0,1-.52.11,2,2,0,0,0-.66.16,1.67,1.67,0,0,0-.67.31,4,4,0,0,0-.51.62,3.5,3.5,0,0,0-.35.78,3.11,3.11,0,0,0-.22,1.29V81.3a14,14,0,0,1-1.14,5.8,8.41,8.41,0,0,1-4.16,4,7.63,7.63,0,0,1-1.95.59,16,16,0,0,1-2.93.27,22.84,22.84,0,0,1-4.55-.43,10,10,0,0,1-3.59-1.46,7.19,7.19,0,0,1-2.43-2.75,10.09,10.09,0,0,1-1-4.27V71.19a1.26,1.26,0,0,0-.06-.38,1.37,1.37,0,0,0-.55-1,2,2,0,0,0-.85-.45l-1.48-.26a2,2,0,0,1-.69-.29.84.84,0,0,1-.25-.61Z"/><path class="cls-1" d="M314.57,79.92a13.33,13.33,0,0,1,.88-4.86,12.71,12.71,0,0,1,2.46-4.14,12.93,12.93,0,0,1,3.9-2.87,11.17,11.17,0,0,1,5-1.08,15.54,15.54,0,0,1,4.24.53,13.69,13.69,0,0,1,3.85,1.81.74.74,0,0,0,.22.08.4.4,0,0,0,.41-.31,4.73,4.73,0,0,0,.07-.7c0-.26,0-.41,0-.47a1.08,1.08,0,0,1,.2-.52.49.49,0,0,1,.45-.26,1.85,1.85,0,0,1,.5.1.41.41,0,0,1,.24.41v7.19c0,.12,0,.33,0,.61a1.87,1.87,0,0,1-.14.67,2.91,2.91,0,0,0-.19.46.54.54,0,0,1-.46.24h-.06a.71.71,0,0,1-.68-.38,1.76,1.76,0,0,1-.16-.83c0-.36-.07-.76-.11-1.2a3.26,3.26,0,0,0-.27-1.05,7.16,7.16,0,0,0-1.47-1.74,9.27,9.27,0,0,0-1.94-1.21,11.06,11.06,0,0,0-2.15-.71,12.35,12.35,0,0,0-2.2-.3h-.61a6.25,6.25,0,0,0-3.17.77,6.83,6.83,0,0,0-2.22,2,9.53,9.53,0,0,0-1.26,2.88,14.66,14.66,0,0,0-.4,3.33,15.52,15.52,0,0,0,.18,2.58,18.61,18.61,0,0,0,.49,2.59,13.12,13.12,0,0,0,1.19,2.78,5.52,5.52,0,0,0,2.19,2.25,6.73,6.73,0,0,0,2.19.84,11.2,11.2,0,0,0,2.41.23,9,9,0,0,0,2.18-.26,11.86,11.86,0,0,0,3-1.49,10.15,10.15,0,0,0,2.38-2.24c.18-.47.37-1,.58-1.65a9.58,9.58,0,0,0,.45-1.81,1.08,1.08,0,0,1,.13-.36c.11-.2.23-.32.35-.32h.6c.34,0,.49.25.49.72l0,.46a4.46,4.46,0,0,1,0,.53,5.58,5.58,0,0,1-.11,1L338,85.71c0,.61-.08,1.22-.12,1.86s-.08,1.26-.11,1.83a.77.77,0,0,1-.12.46l-.34.18H337c-.44,0-.69-.16-.73-.46a.8.8,0,0,0-.12-.18.22.22,0,0,0-.2-.08.47.47,0,0,0-.24,0A36.61,36.61,0,0,1,332,91.1a11.5,11.5,0,0,1-4.45.87h-.44a15.54,15.54,0,0,1-4-.51,10.46,10.46,0,0,1-3.44-1.53,11.13,11.13,0,0,1-3.69-4.12,12.17,12.17,0,0,1-1.37-5.89Z"/><path class="cls-1" d="M349.08,90.91a.84.84,0,0,1,.17-.46,1.19,1.19,0,0,1,.71-.35,6.52,6.52,0,0,1,.66,0c.24,0,.52,0,.83,0a2.42,2.42,0,0,0,2.36-2.52V70.88c0-.22-.06-.35-.21-.4a3,3,0,0,0-.42,0h-4.94a1,1,0,0,0-.79.28c-.19.2-.39.36-.53.52l-3.11,3.51a1.73,1.73,0,0,1-1.23.81c-.3,0-.42-.22-.42-.63a.27.27,0,0,1,0-.17.67.67,0,0,0,0-.16l1.66-6.46a1,1,0,0,1,1.07-.78h21.8a1.13,1.13,0,0,1,.81.28,1.2,1.2,0,0,1,.36.59l1.09,6.6a1.63,1.63,0,0,1,.05.35c0,.38-.15.56-.41.56a.8.8,0,0,1-.37-.11,1.74,1.74,0,0,1-.49-.47,26,26,0,0,1-1.68-2.24c-.48-.66-1-1.31-1.48-1.91a1.51,1.51,0,0,0-.76-.5,5.82,5.82,0,0,0-.88-.07h-3.85a5.65,5.65,0,0,0-.69,0c-.15,0-.23.18-.23.4V88.17a1.28,1.28,0,0,0,.72,1.2,3.61,3.61,0,0,0,1.67.51l1.45.1a1.12,1.12,0,0,1,.7.2.88.88,0,0,1,.27.69.7.7,0,0,1-.35.58,1.71,1.71,0,0,1-1,.23H350.26a2.22,2.22,0,0,1-.86-.14.61.61,0,0,1-.32-.63Z"/><path class="cls-1" d="M370.5,91a.87.87,0,0,1,.19-.51.89.89,0,0,1,.64-.36c.36-.06.66-.1.95-.12l.89-.11a1.07,1.07,0,0,0,1-.57,2.36,2.36,0,0,0,.3-1.18V71a2.46,2.46,0,0,0-.34-1.27,1.4,1.4,0,0,0-.86-.62l-.42,0-.62-.09-.56-.08a2,2,0,0,0-.34-.06.81.81,0,0,1-.64-.36,1,1,0,0,1-.19-.58,1.18,1.18,0,0,1,.33-.46,1.1,1.1,0,0,1,.76-.22h9.87a4.64,4.64,0,0,1,.82.08.57.57,0,0,1,.36.6v0c0,.18-.15.34-.36.49a1.77,1.77,0,0,1-.82.27c-.4.06-.85.15-1.33.27a1.4,1.4,0,0,0-1,.68,1.58,1.58,0,0,0-.32.87,10.2,10.2,0,0,0,0,1.1V88a5,5,0,0,0,0,.64,1.53,1.53,0,0,0,.16.59,1,1,0,0,0,.46.45,1.84,1.84,0,0,0,.59.21,3.1,3.1,0,0,0,.64.06h.75a2.45,2.45,0,0,1,1,.24.76.76,0,0,1,.35.75c0,.29-.21.51-.6.62a1.61,1.61,0,0,1-.58.09c-.7,0-1.39-.05-2-.09l-1.59-.06-1.07,0-2.22,0c-.69,0-1.26,0-1.74.06l-1.5.09a1,1,0,0,1-.66-.2.62.62,0,0,1-.25-.46Z"/><path class="cls-1" d="M389.31,79.06a19,19,0,0,0,.38,3.7,11.61,11.61,0,0,0,1.3,3.51,7.44,7.44,0,0,0,2.47,2.59,7,7,0,0,0,3.92,1,10.09,10.09,0,0,0,4.53-.84,6.37,6.37,0,0,0,2.59-2.28,9,9,0,0,0,1.14-3.29,26.86,26.86,0,0,0,.27-3.88,15.75,15.75,0,0,0-.45-3.64,10.21,10.21,0,0,0-1.39-3.44A8.21,8.21,0,0,0,401.4,70a7.68,7.68,0,0,0-4.08-1,7.43,7.43,0,0,0-3.61.83,7.17,7.17,0,0,0-2.5,2.25,10.59,10.59,0,0,0-1.42,3.24,14.74,14.74,0,0,0-.48,3.79Zm-4.85.94a13.58,13.58,0,0,1,.92-5.07A12.84,12.84,0,0,1,388,70.74a12.07,12.07,0,0,1,4.15-2.86,14,14,0,0,1,5.51-1,14.55,14.55,0,0,1,5.11.86,12.5,12.5,0,0,1,4.08,2.46A10.61,10.61,0,0,1,409.62,74a11.49,11.49,0,0,1,1,4.89,15.62,15.62,0,0,1-.3,3.08,16.18,16.18,0,0,1-.77,2.61,12.49,12.49,0,0,1-1.07,2,11.64,11.64,0,0,1-1.11,1.54,10.47,10.47,0,0,1-4.79,3.09,18.82,18.82,0,0,1-5.45.82,14.1,14.1,0,0,1-5.19-.93,11.79,11.79,0,0,1-4-2.51,11.56,11.56,0,0,1-2.59-3.79,12,12,0,0,1-.92-4.78Z"/><path class="cls-1" d="M419.15,73.43a.33.33,0,0,0-.25-.18c-.15,0-.23.15-.23.46V85c0,.16,0,.36,0,.64s0,.52.05.8,0,.52.06.76,0,.42,0,.54a4.74,4.74,0,0,0,.25.92,1.11,1.11,0,0,0,.52.62,1.51,1.51,0,0,0,.54.29,3.51,3.51,0,0,1,.53.15,2.14,2.14,0,0,0,.5.15c.21,0,.45.12.72.17s.58.39.58.9c0,.33-.11.53-.36.59a2.68,2.68,0,0,1-.77.12h-1a3.22,3.22,0,0,1-.88-.09h-4.94c-.53,0-1,0-1.48,0-.17,0-.32-.12-.47-.38a.67.67,0,0,1-.08-.29.82.82,0,0,1,.46-.82,7.7,7.7,0,0,1,1-.27,3.65,3.65,0,0,0,1.33-.46,1.39,1.39,0,0,0,.83-1,3.5,3.5,0,0,0,.22-1.07l.09-1.13,0-.76c.05-1.7.11-3.41.14-5.11s.09-3.18.09-4.52V71.5c-.11-.12-.23-.28-.4-.51s-.39-.46-.6-.69a5.14,5.14,0,0,0-.73-.64,2.74,2.74,0,0,0-.78-.45,2.87,2.87,0,0,0-.87-.16,3.75,3.75,0,0,1-.9-.15.84.84,0,0,1-.46-.33.86.86,0,0,1-.12-.4.65.65,0,0,1,.45-.61,2.25,2.25,0,0,1,.66-.21h6.22a1.23,1.23,0,0,1,.75.34,4.72,4.72,0,0,1,.64.62L434,84.12c.06.15.15.19.22.19s.1,0,.14-.13a.7.7,0,0,0,0-.22V76.77c0-1.21,0-2.26-.06-3.17a25.65,25.65,0,0,0-.27-2.64,1.34,1.34,0,0,0-.49-.95,4,4,0,0,0-.88-.49,7.57,7.57,0,0,0-1.17-.33,2.12,2.12,0,0,1-.91-.4.7.7,0,0,1-.18-.53,1.24,1.24,0,0,1,.16-.54.46.46,0,0,1,.45-.26h8.29a.66.66,0,0,1,.56.24,1,1,0,0,1,.17.56.69.69,0,0,1-.35.68,4.71,4.71,0,0,1-.56.13c-.25,0-.48.09-.72.14a3.09,3.09,0,0,0-1.13.57,1.23,1.23,0,0,0-.55,1c0,.31-.07.79-.1,1.41s0,1.24,0,1.89-.07,1.24-.09,1.82,0,1,0,1.26v1.69c0,.49,0,1.06,0,1.71s0,1.48-.07,2.45,0,2.15,0,3.5v4.74c0,.58-.22.87-.67.87h-.09a1.16,1.16,0,0,1-.66-.22c-.14-.12-.28-.27-.47-.46l-15.35-18Z"/><path class="cls-1" d="M161.26,120.59a.82.82,0,0,1,.13-.38.66.66,0,0,1,.51-.29l.74-.11c.22,0,.45,0,.73-.07a.88.88,0,0,0,.78-.46,2,2,0,0,0,.24-.92v-13.6a1.68,1.68,0,0,0-.29-1,1.1,1.1,0,0,0-.67-.49,1.43,1.43,0,0,1-.34,0l-.48-.07-.44-.05a1.41,1.41,0,0,0-.27,0c-.26-.06-.44-.14-.51-.3a.92.92,0,0,1-.13-.47,1.15,1.15,0,0,1,.25-.37.9.9,0,0,1,.6-.15h7.8a2.52,2.52,0,0,1,.66.07.43.43,0,0,1,.27.45v0a.54.54,0,0,1-.27.4,1.47,1.47,0,0,1-.66.21c-.31,0-.66.13-1,.21a1.32,1.32,0,0,0-.82.54,1.24,1.24,0,0,0-.23.7,6.47,6.47,0,0,0-.06.87v13a3.13,3.13,0,0,0,0,.49,1.05,1.05,0,0,0,.13.48.6.6,0,0,0,.36.34,1.41,1.41,0,0,0,.47.18,4.12,4.12,0,0,0,.51,0h.57a2,2,0,0,1,.75.2.64.64,0,0,1,.29.59c0,.22-.17.4-.47.51a2.12,2.12,0,0,1-.44.06l-1.62-.06c-.42,0-.82-.06-1.22-.07h-2.64c-.52,0-1,0-1.37.07s-.82,0-1.16.06a.73.73,0,0,1-.54-.16.49.49,0,0,1-.18-.38Z"/><path class="cls-1" d="M179.7,106.68a.32.32,0,0,0-.23-.14c-.12,0-.16.13-.16.36v9c0,.12,0,.28,0,.5s0,.43,0,.64a4.05,4.05,0,0,0,.07.62c0,.16,0,.32,0,.41a2.45,2.45,0,0,0,.19.73.78.78,0,0,0,.39.49,1.34,1.34,0,0,0,.44.23,2,2,0,0,1,.44.13,1.4,1.4,0,0,0,.36.11c.2,0,.38.08.59.13s.45.3.45.71-.07.42-.29.48a2.57,2.57,0,0,1-.6.09h-.76a4.55,4.55,0,0,1-.69-.06h-3.91l-1.18,0c-.14,0-.25-.09-.35-.29a.47.47,0,0,1-.07-.24.61.61,0,0,1,.37-.64,3.79,3.79,0,0,1,.77-.21,3.16,3.16,0,0,0,1-.37,1.23,1.23,0,0,0,.67-.81,4.38,4.38,0,0,0,.16-.86c0-.3.06-.6.07-.88l0-.6c.05-1.36.08-2.7.13-4s0-2.54,0-3.6v-3.41a3.37,3.37,0,0,0-.3-.4c-.13-.19-.31-.36-.46-.54a4.07,4.07,0,0,0-.58-.51,2,2,0,0,0-.63-.36,2.34,2.34,0,0,0-.67-.13,5,5,0,0,1-.74-.11.71.71,0,0,1-.34-.27.6.6,0,0,1-.1-.32.49.49,0,0,1,.35-.47,1.24,1.24,0,0,1,.54-.17h4.9a.86.86,0,0,1,.57.25,4.43,4.43,0,0,1,.54.5l10.61,12.54c.06.09.12.13.15.13a.13.13,0,0,0,.13-.1,1.32,1.32,0,0,0,.05-.18v-5.69c0-1,0-1.78-.06-2.5s-.12-1.41-.21-2.1a1.06,1.06,0,0,0-.39-.75,5.58,5.58,0,0,0-.69-.39,8.88,8.88,0,0,0-1-.27,1.74,1.74,0,0,1-.71-.3.68.68,0,0,1-.13-.42,1,1,0,0,1,.12-.42.4.4,0,0,1,.35-.23h6.57a.48.48,0,0,1,.43.2.69.69,0,0,1,.16.45.67.67,0,0,1-.26.54c-.13,0-.31.07-.47.09l-.58.12a2.69,2.69,0,0,0-.88.44,1,1,0,0,0-.44.82c0,.24,0,.61-.07,1.11s0,1,0,1.49-.06,1-.08,1.45,0,.77,0,1V111c0,.37,0,.83,0,1.36s0,1.17,0,1.94,0,1.68,0,2.74,0,2.33,0,3.77c0,.46-.16.69-.51.69h-.09a.86.86,0,0,1-.51-.19c-.1-.09-.25-.21-.38-.35L179.7,106.68Z"/><path class="cls-1" d="M196.94,111.82a10.86,10.86,0,0,1,.72-3.84,9.86,9.86,0,0,1,2-3.28,9.34,9.34,0,0,1,7.05-3.14A12.73,12.73,0,0,1,210,102a10.45,10.45,0,0,1,3.06,1.43,1.45,1.45,0,0,0,.18.08.29.29,0,0,0,.3-.27c0-.15,0-.33.06-.54s0-.34,0-.39a2.08,2.08,0,0,1,.16-.4.41.41,0,0,1,.35-.19,1.06,1.06,0,0,1,.42.07c.12,0,.16.15.16.31v5.7c0,.1,0,.26,0,.49a1.73,1.73,0,0,1-.07.5c-.06.14-.13.25-.19.38a.35.35,0,0,1-.36.2h0a.52.52,0,0,1-.54-.3,1.46,1.46,0,0,1-.13-.67c0-.27-.07-.59-.11-1a2.61,2.61,0,0,0-.19-.81,5.37,5.37,0,0,0-1.18-1.38,7.13,7.13,0,0,0-1.52-1,8.47,8.47,0,0,0-1.7-.56,9.31,9.31,0,0,0-1.78-.22h-.45a5.29,5.29,0,0,0-2.54.59,4.94,4.94,0,0,0-1.73,1.61,7.61,7.61,0,0,0-1,2.28,11.36,11.36,0,0,0-.31,2.61,13.77,13.77,0,0,0,.13,2.07,12.29,12.29,0,0,0,.41,2,9.29,9.29,0,0,0,.93,2.21,4.54,4.54,0,0,0,1.72,1.78,5.5,5.5,0,0,0,1.76.66,7.93,7.93,0,0,0,1.89.18,6.64,6.64,0,0,0,1.72-.21,9.09,9.09,0,0,0,2.38-1.17,7.88,7.88,0,0,0,1.9-1.78c.15-.38.3-.81.46-1.3a8.31,8.31,0,0,0,.36-1.45s0-.1.11-.27a.31.31,0,0,1,.28-.25h.47c.25,0,.38.18.38.56l0,.36s0,.17,0,.42a5.57,5.57,0,0,1-.1.82l-.13,1.15c0,.46-.06,1-.1,1.47s-.08,1-.11,1.44c0,.19,0,.32-.06.36a1.67,1.67,0,0,1-.27.14h-.29c-.33,0-.54-.11-.58-.35a.37.37,0,0,0-.08-.15.18.18,0,0,0-.15-.06.45.45,0,0,0-.18,0c-.88.47-1.88.94-3,1.41a9.44,9.44,0,0,1-3.48.66h-.37a12.85,12.85,0,0,1-3.19-.4,7.68,7.68,0,0,1-2.7-1.21,9,9,0,0,1-2.95-3.27,9.58,9.58,0,0,1-1.11-4.66Z"/><path class="cls-1" d="M222.63,111.14a17.8,17.8,0,0,0,.28,2.94,10.21,10.21,0,0,0,1,2.76,6.48,6.48,0,0,0,2,2.06,5.35,5.35,0,0,0,3.08.82,7.9,7.9,0,0,0,3.6-.68,4.66,4.66,0,0,0,2-1.8,6.83,6.83,0,0,0,.94-2.6,25.18,25.18,0,0,0,.19-3.07,12.16,12.16,0,0,0-.34-2.88A8.29,8.29,0,0,0,234.3,106a6.37,6.37,0,0,0-2.09-2,6,6,0,0,0-3.26-.78,5.84,5.84,0,0,0-2.84.65,5.42,5.42,0,0,0-2,1.77,7,7,0,0,0-1.14,2.58,11.29,11.29,0,0,0-.37,3Zm-3.85.74a10.58,10.58,0,0,1,.74-4,9.58,9.58,0,0,1,5.38-5.57,10.87,10.87,0,0,1,4.34-.85,11.68,11.68,0,0,1,4,.7,10.15,10.15,0,0,1,3.23,1.94,8.53,8.53,0,0,1,2.19,3,9.45,9.45,0,0,1,.76,3.87,12.39,12.39,0,0,1-.21,2.44,8.5,8.5,0,0,1-.64,2,6.31,6.31,0,0,1-.82,1.62,7,7,0,0,1-.87,1.2,8.13,8.13,0,0,1-3.79,2.47,14.9,14.9,0,0,1-4.33.65,11.27,11.27,0,0,1-4.09-.73,10.18,10.18,0,0,1-3.17-2,8.65,8.65,0,0,1-2-3,9.19,9.19,0,0,1-.74-3.77Z"/><path class="cls-1" d="M246.85,110.56a.84.84,0,0,0,.05.31c0,.13.07.18.14.18h1.36a7.85,7.85,0,0,0,1.59-.16,7,7,0,0,0,1.25-.33,5.1,5.1,0,0,0,1-.69,4.89,4.89,0,0,0,.66-.84,6.32,6.32,0,0,0,.32-.82,6.19,6.19,0,0,0,.06-1,3.15,3.15,0,0,0-.34-1.45,4.42,4.42,0,0,0-.8-1.19,4.84,4.84,0,0,0-3.55-1.26h-1.15a.89.89,0,0,0-.39.11c-.15.1-.22.31-.22.63v6.55Zm-6.57,9.93c0-.34.23-.53.61-.6a.62.62,0,0,1,.26-.06c.17,0,.31,0,.45-.06a2.4,2.4,0,0,0,.48-.1,2.88,2.88,0,0,0,1-.33,1,1,0,0,0,.53-.78V106c0-.25,0-.51,0-.77a2.36,2.36,0,0,0-.2-.79,1.75,1.75,0,0,0-.52-.67,1.42,1.42,0,0,0-.77-.39,3.76,3.76,0,0,0-.67-.1,5.49,5.49,0,0,1-.6,0,.59.59,0,0,1-.47-.2.77.77,0,0,1-.07-.37.65.65,0,0,1,.12-.41c.06-.12.24-.21.53-.24s1,0,1.69,0h2.07c.62,0,1.32,0,2.09-.09s1.41-.08,1.88-.08h.41a16.91,16.91,0,0,1,3,.26,9.14,9.14,0,0,1,2.86,1,5.32,5.32,0,0,1,1.79,1.61,4.31,4.31,0,0,1,.7,2.53A3.65,3.65,0,0,1,257,109a4.1,4.1,0,0,1-1,1.39,4.72,4.72,0,0,1-1.41,1,6.4,6.4,0,0,1-1.68.43s-.05,0-.05.07a.26.26,0,0,0,.05.15c.26.13.61.37,1.08.68a5.58,5.58,0,0,1,1.21,1.17l.71.83c.32.4.62.79.92,1.18l1.13,1.46a5.1,5.1,0,0,0,.72.84c.29.29.51.47.65.6a1.85,1.85,0,0,0,.57.3,1.61,1.61,0,0,0,.59.11,1.83,1.83,0,0,0,1.17-.32l.29-.21c.39,0,.57.16.57.46a1.85,1.85,0,0,1-.93,1.57,4.12,4.12,0,0,1-2.46.64c-.3,0-.7,0-1.17-.08a3.59,3.59,0,0,1-1.13-.3,7.57,7.57,0,0,1-1.29-1,13,13,0,0,1-1.17-1.3c-.37-.47-.71-.94-1-1.4s-.58-.91-.85-1.29l-.33-.58c-.22-.37-.48-.74-.73-1.11a10.83,10.83,0,0,0-.88-1,4.75,4.75,0,0,0-1-.71,3,3,0,0,0-1.24-.28h-1.12c-.13,0-.21.06-.22.16a.69.69,0,0,0-.05.28v4.13A8,8,0,0,0,247,118a2.1,2.1,0,0,0,.29.93,1.64,1.64,0,0,0,1,.72l.81.13a3.33,3.33,0,0,1,.6.15,3,3,0,0,1,.61.21.55.55,0,0,1,.32.55c0,.4-.27.59-.81.59l-.48,0a4.64,4.64,0,0,0-.57,0h-7.43l-.31,0a1.9,1.9,0,0,1-.35-.06.49.49,0,0,1-.28-.27.64.64,0,0,1-.13-.37Z"/><path class="cls-1" d="M268.28,103.34a.46.46,0,0,0-.42.18.55.55,0,0,0-.18.39v7.61a.29.29,0,0,0,.14.25.75.75,0,0,0,.2.1,2,2,0,0,0,.64.1l.8,0,.64,0h.43a5.8,5.8,0,0,0,1.18-.32,5.11,5.11,0,0,0,1.17-.58,5,5,0,0,0,.94-.76,2.43,2.43,0,0,0,.62-1,6.57,6.57,0,0,0,.19-1.46,4.39,4.39,0,0,0-1.34-3.13,4.94,4.94,0,0,0-3.09-1.31,3.87,3.87,0,0,0-.88-.07ZM261.76,121a.51.51,0,0,1-.35-.53.52.52,0,0,1,.32-.54,3,3,0,0,1,.62-.21l.47,0a1.72,1.72,0,0,0,.59-.11,2.14,2.14,0,0,0,.6-.31.84.84,0,0,0,.31-.79V104.19a.69.69,0,0,0-.33-.55,2.51,2.51,0,0,0-.62-.37l-.91-.3c-.28,0-.47-.12-.59-.14a.49.49,0,0,1-.49-.56c0-.34.13-.5.42-.5l.22,0h8.35a6,6,0,0,0,.62,0c.26,0,.51,0,.76,0h.44a11,11,0,0,1,2.25.62,9.79,9.79,0,0,1,2.07,1.24,6.18,6.18,0,0,1,1.5,1.79,4.37,4.37,0,0,1,.61,2.3,5.42,5.42,0,0,1-.08.77,3.35,3.35,0,0,1-.18.88,4.56,4.56,0,0,1-1.11,1.54,7.46,7.46,0,0,1-1.59,1.12,12.12,12.12,0,0,1-1.92.68,9.47,9.47,0,0,1-2,.29h-.55c-.66,0-1.41,0-2.14-.11l-1.09-.11h-.06c-.18,0-.23,0-.23.18v4.53l.05.87a2.25,2.25,0,0,0,.37.61,1.9,1.9,0,0,0,.61.4,1.94,1.94,0,0,0,.7.24,3.2,3.2,0,0,0,.61.1h.29a2.47,2.47,0,0,1,.38,0,1.86,1.86,0,0,1,.72.15.58.58,0,0,1,.34.55,1.36,1.36,0,0,1-.06.36c-.07.13-.21.18-.49.18h-8.86a1.34,1.34,0,0,1-.53-.14Z"/><path class="cls-1" d="M285.33,111.14a13.74,13.74,0,0,0,.31,2.94,8.53,8.53,0,0,0,1,2.76,5.87,5.87,0,0,0,2,2.06,5.37,5.37,0,0,0,3.08.82,7.81,7.81,0,0,0,3.58-.68,4.72,4.72,0,0,0,2.07-1.8,7.35,7.35,0,0,0,.92-2.6,25.22,25.22,0,0,0,.18-3.07,11.2,11.2,0,0,0-.34-2.88A8.07,8.07,0,0,0,297,106a6.44,6.44,0,0,0-2.08-2,6.07,6.07,0,0,0-3.27-.78,5.93,5.93,0,0,0-2.85.65,5.61,5.61,0,0,0-1.95,1.77,7.69,7.69,0,0,0-1.15,2.58,10.9,10.9,0,0,0-.38,3Zm-3.85.74a11,11,0,0,1,.74-4,10.62,10.62,0,0,1,2.07-3.32,10,10,0,0,1,3.3-2.25,11.07,11.07,0,0,1,4.38-.85,11.55,11.55,0,0,1,4,.7,10.35,10.35,0,0,1,3.27,1.94,9,9,0,0,1,2.16,3,9.63,9.63,0,0,1,.8,3.87,10.93,10.93,0,0,1-.26,2.44,10.11,10.11,0,0,1-.6,2,7.05,7.05,0,0,1-.84,1.62,10.14,10.14,0,0,1-.88,1.2,8.15,8.15,0,0,1-3.8,2.47,14.92,14.92,0,0,1-4.31.65,11.27,11.27,0,0,1-4.09-.73,9.85,9.85,0,0,1-3.17-2,9,9,0,0,1-2-3,9.53,9.53,0,0,1-.74-3.77Z"/><path class="cls-1" d="M309.56,110.56c0,.1,0,.21,0,.31s.08.18.16.18h1.33a7.69,7.69,0,0,0,1.58-.16,5.8,5.8,0,0,0,1.28-.33,4.07,4.07,0,0,0,1-.69,3.91,3.91,0,0,0,.68-.84,4.3,4.3,0,0,0,.31-.82,9.12,9.12,0,0,0,.07-1,3.42,3.42,0,0,0-.34-1.45,4.18,4.18,0,0,0-.79-1.19,4.91,4.91,0,0,0-3.57-1.26h-1.13a.82.82,0,0,0-.39.11.74.74,0,0,0-.23.63v6.55ZM303,120.49c0-.34.2-.53.59-.6a.67.67,0,0,1,.27-.06,3.32,3.32,0,0,0,.41-.06,2.82,2.82,0,0,0,.52-.1,2.62,2.62,0,0,0,1-.33,1,1,0,0,0,.55-.78V106c0-.25,0-.51,0-.77a2,2,0,0,0-.2-.79,2,2,0,0,0-.5-.67,1.56,1.56,0,0,0-.78-.39,4.39,4.39,0,0,0-.69-.1c-.23,0-.4,0-.62,0a.6.6,0,0,1-.45-.2,1.1,1.1,0,0,1-.06-.37,1,1,0,0,1,.1-.41.73.73,0,0,1,.55-.24c.4,0,1,0,1.69,0h2.06c.62,0,1.35,0,2.1-.09s1.42-.08,1.91-.08h.35a17.87,17.87,0,0,1,3.05.26,8.94,8.94,0,0,1,2.81,1,5.76,5.76,0,0,1,1.8,1.61,4.32,4.32,0,0,1,.71,2.53,4.19,4.19,0,0,1-.39,1.74,4.54,4.54,0,0,1-1,1.39,4.75,4.75,0,0,1-1.44,1,5.81,5.81,0,0,1-1.66.43c-.06,0-.08,0-.08.07a.22.22,0,0,0,.08.15,10.66,10.66,0,0,1,1.05.68,5.36,5.36,0,0,1,1.21,1.17c.18.19.41.46.71.83l.93,1.18c.37.46.73,1,1.16,1.46a4.23,4.23,0,0,0,.71.84,6.15,6.15,0,0,0,.63.6,1.94,1.94,0,0,0,.59.3,1.54,1.54,0,0,0,.59.11,1.84,1.84,0,0,0,1.16-.32l.28-.21c.38,0,.58.16.58.46a1.86,1.86,0,0,1-.92,1.57,4.16,4.16,0,0,1-2.46.64c-.29,0-.7,0-1.18-.08a4,4,0,0,1-1.14-.3,7.14,7.14,0,0,1-1.28-1,14.3,14.3,0,0,1-1.17-1.3,13.5,13.5,0,0,1-1-1.4c-.3-.49-.57-.91-.82-1.29l-.34-.58c-.25-.37-.51-.74-.75-1.11a7.68,7.68,0,0,0-.88-1,4.23,4.23,0,0,0-1.05-.71,2.76,2.76,0,0,0-1.21-.28h-1.13a.21.21,0,0,0-.23.16,2.7,2.7,0,0,0,0,.28v4.13a6.85,6.85,0,0,0,.12,1.2,3.29,3.29,0,0,0,.26.93,1.77,1.77,0,0,0,1.08.72c.23,0,.49.09.82.13a3.22,3.22,0,0,1,.58.15,3.34,3.34,0,0,1,.6.21.52.52,0,0,1,.33.55c0,.4-.29.59-.83.59l-.44,0a5.26,5.26,0,0,0-.6,0h-7.41l-.31,0a1.75,1.75,0,0,1-.36-.06.47.47,0,0,1-.28-.27.68.68,0,0,1-.11-.37Z"/><path class="cls-1" d="M330.64,111.35a.88.88,0,0,0-.13.47c0,.19.08.28.3.28h4.46l.26,0c.14,0,.19-.14.19-.3a.82.82,0,0,0-.05-.22l-2.11-5c-.07-.16-.16-.24-.31-.24a.28.28,0,0,0-.27.19Zm5.37,9.29a.6.6,0,0,1,.32-.57,3.26,3.26,0,0,1,.6-.23,4.79,4.79,0,0,0,.81-.27,1.23,1.23,0,0,0,.56-.32.84.84,0,0,0,.28-.6,1.49,1.49,0,0,0-.06-.25l-1.37-3c-.09-.2-.24-.46-.41-.76a.86.86,0,0,0-.77-.46h-6.24c-.16,0-.3.14-.37.38l-1.83,3.62a3,3,0,0,0-.13.42,1.63,1.63,0,0,0-.08.4V119a.84.84,0,0,0,.55.55,5.12,5.12,0,0,0,.8.19l.94.25c.33.11.49.27.49.54a.64.64,0,0,1-.17.41.66.66,0,0,1-.44.2l-.82,0-.53,0-.71-.06c-.31,0-.63-.08-1-.11l-1.06,0c-.32,0-.74,0-1.19,0s-.87.08-1.19.13h-.16A1.29,1.29,0,0,1,322,121a.53.53,0,0,1-.14-.36.77.77,0,0,1,.35-.74,2.39,2.39,0,0,1,.7-.28,3.41,3.41,0,0,0,1.65-.89,3.14,3.14,0,0,1,.23-.29c.1-.13.2-.34.4-.62s.38-.66.65-1.18.64-1.19,1.07-2,1-1.89,1.68-3.12,1.41-2.72,2.31-4.44c.45-.83.88-1.67,1.31-2.53s.92-1.63,1.33-2.34a.83.83,0,0,1,.16-.21.54.54,0,0,1,.35-.09.67.67,0,0,1,.39.18.91.91,0,0,1,.34.4c.32.68.66,1.38,1,2.11s.66,1.45,1,2.16c.07.16.28.46.47.9s.46.94.73,1.53.59,1.22.91,1.91.62,1.4.93,2.09c.73,1.65,1.58,3.43,2.49,5.38a2.89,2.89,0,0,0,1,1,2.08,2.08,0,0,0,.47.18,3,3,0,0,0,.43.1.78.78,0,0,1,.62.75.69.69,0,0,1-.28.48.93.93,0,0,1-.5.17c-.12,0-.39,0-.78,0l-1.19-.06c-.47,0-1-.06-1.6-.08a14.77,14.77,0,0,0-1.6.08,8.41,8.41,0,0,0-1.25.14l-.3,0H337a2.19,2.19,0,0,1-.7-.1.5.5,0,0,1-.32-.54Z"/><path class="cls-1" d="M347,120.53a.6.6,0,0,1,.15-.38.84.84,0,0,1,.56-.25,3.8,3.8,0,0,1,.52,0c.18,0,.41,0,.67,0a1.88,1.88,0,0,0,1.84-2V104.66c0-.17,0-.26-.15-.3a1.06,1.06,0,0,0-.33,0h-3.91a.81.81,0,0,0-.63.23,3,3,0,0,0-.4.41l-2.48,2.79a1.38,1.38,0,0,1-1,.63c-.21,0-.3-.18-.3-.51a.49.49,0,0,1,0-.12.49.49,0,0,0,0-.13l1.32-5.13a.78.78,0,0,1,.86-.6H361a.9.9,0,0,1,.67.21,1.67,1.67,0,0,1,.28.47l.84,5.23a.75.75,0,0,1,0,.28c0,.3-.1.43-.32.43a.4.4,0,0,1-.29-.09.77.77,0,0,1-.37-.37c-.52-.64-1-1.22-1.37-1.76a11.72,11.72,0,0,0-1.14-1.51,1.16,1.16,0,0,0-.61-.39,2.94,2.94,0,0,0-.71-.07H355a1.82,1.82,0,0,0-.52,0c-.13,0-.19.13-.19.3v13.71a1,1,0,0,0,.57.94,3.1,3.1,0,0,0,1.32.41l1.16.06a.83.83,0,0,1,.54.17.68.68,0,0,1,.21.55.58.58,0,0,1-.26.46,1.49,1.49,0,0,1-.77.18H348a1.94,1.94,0,0,1-.68-.11.48.48,0,0,1-.27-.5Z"/><path class="cls-1" d="M365.61,121a.47.47,0,0,1-.09-.28.56.56,0,0,1,.64-.61c.34,0,.69-.11,1-.17a1.34,1.34,0,0,0,.8-.44,4.61,4.61,0,0,0,.56-2.69V105.22a2.64,2.64,0,0,0-.21-1.18,1.38,1.38,0,0,0-.42-.59.92.92,0,0,0-.41-.22,2.64,2.64,0,0,0-.54-.09c-.2,0-.39,0-.56-.06a3,3,0,0,1-.49-.06,2,2,0,0,1-.37-.18.32.32,0,0,1-.21-.32c0-.32.19-.49.58-.49a4.78,4.78,0,0,0,.77,0,5.11,5.11,0,0,1,.58,0h13.26a2.87,2.87,0,0,1,.58.13c.28.08.43.34.48.73l.32,4a1,1,0,0,1-.06.33c-.05.12-.14.18-.34.18a.58.58,0,0,1-.5-.39,3.17,3.17,0,0,0-.39-.62l-1.34-1.92a1.23,1.23,0,0,0-.71-.48,2.63,2.63,0,0,0-.45-.12c-.85-.08-1.83-.11-3-.11H374c-.37,0-.79,0-1.16,0a.61.61,0,0,0-.59.36,2,2,0,0,0-.17.74v4.68a2.62,2.62,0,0,0,0,.37c0,.14.09.19.21.19h4.17a1.91,1.91,0,0,0,1.17-.34,1.38,1.38,0,0,0,.53-1,2.31,2.31,0,0,1,0-.4,4.23,4.23,0,0,0,.07-.43,1.3,1.3,0,0,0,.12-.33.41.41,0,0,1,.41-.28c.42,0,.62.25.62.73v3c0,.26,0,.52,0,.78s0,.42,0,.49c0,.41,0,.75.06,1s0,.6,0,.95a1.19,1.19,0,0,1-.08.41.4.4,0,0,1-.37.22.68.68,0,0,1-.56-.23.89.89,0,0,1-.18-.55c0-.21,0-.44-.05-.66s-.06-.44-.08-.61a1,1,0,0,0-.3-.76,1.33,1.33,0,0,0-.58-.36,2.45,2.45,0,0,0-.74-.11c-.29,0-.52,0-.76,0H372.6c-.32,0-.53.23-.62.67v4.07a11.16,11.16,0,0,0,.07,1.22,5.57,5.57,0,0,0,.23,1.05,1.59,1.59,0,0,0,.59.7,1.73,1.73,0,0,0,1.1.29h2.87a5.47,5.47,0,0,0,.93-.08c.34-.07.62-.14,1-.24a4.33,4.33,0,0,0,.81-.39,2,2,0,0,0,.55-.42c.09-.11.2-.19.29-.3s.15-.18.21-.28a.83.83,0,0,0,.24-.31l1.52-2.07a.51.51,0,0,1,.46-.24.27.27,0,0,1,.27.15,1.12,1.12,0,0,1,.08.38v.36l-1.68,4.3a.89.89,0,0,1-.31.44.82.82,0,0,1-.58.31H366.22a1.09,1.09,0,0,1-.61-.11Z"/><path class="cls-1" d="M391.73,118.47a.91.91,0,0,0,.42.74,2.53,2.53,0,0,0,1,.38,5.75,5.75,0,0,0,1.27.14c.47,0,.9,0,1.27,0h.72a6.41,6.41,0,0,0,2.62-.53,5.68,5.68,0,0,0,2-1.5,6.29,6.29,0,0,0,1.29-2.31,9.43,9.43,0,0,0,.45-3v-.9a8.66,8.66,0,0,0-.89-3.84,7.52,7.52,0,0,0-2.66-3c-.34-.24-.67-.43-.95-.59a7.37,7.37,0,0,0-.92-.37,4.5,4.5,0,0,0-1-.19c-.36,0-.74,0-1.18,0a16,16,0,0,0-1.68.08,7.19,7.19,0,0,0-1.27.2c-.07,0-.15.07-.3.24a1.14,1.14,0,0,0-.21.64v13.81ZM389.39,121c-.47,0-.95,0-1.4,0s-.89.06-1.3.08a5.92,5.92,0,0,1-.65,0h-.69c-.27,0-.43-.16-.54-.49v-.12c0-.27.17-.49.54-.59a6.55,6.55,0,0,1,1.14-.28,1.21,1.21,0,0,1,.42-.09.38.38,0,0,0,.16,0,1,1,0,0,0,.74-.42,2.08,2.08,0,0,0,.26-.84,9.75,9.75,0,0,0,.1-1.26c0-.46,0-.88,0-1.28V104.48c0-.1,0-.25,0-.4a1,1,0,0,0-.18-.41.89.89,0,0,0-.32-.24.62.62,0,0,0-.28-.08h-.33a2.66,2.66,0,0,1-.39,0l-.32,0-.23,0a2.12,2.12,0,0,1-.63-.23.62.62,0,0,1-.29-.56.57.57,0,0,1,.2-.5,2.33,2.33,0,0,1,.6-.17h7.56c.28,0,.53,0,.8,0s.61,0,.93,0l.88,0a10.74,10.74,0,0,1,1.61.13,12.51,12.51,0,0,1,1.71.37,12.66,12.66,0,0,1,1.73.61,8.2,8.2,0,0,1,1.5.82,10.29,10.29,0,0,1,1.61,1.51,10.5,10.5,0,0,1,1.3,1.88,9.65,9.65,0,0,1,1.16,4.47V112a10.41,10.41,0,0,1-1.22,4.12,11,11,0,0,1-2.51,3,11.33,11.33,0,0,1-3.36,1.8,11.74,11.74,0,0,1-3.71.62,17,17,0,0,1-2.11-.12c-.71,0-1.32-.14-1.93-.2l-1.34-.14a8.86,8.86,0,0,0-1.21-.08Z"/></g></g></svg>